G04 #@! TF.GenerationSoftware,KiCad,Pcbnew,(5.1.5)-3*
G04 #@! TF.CreationDate,2020-10-19T00:58:10-04:00*
G04 #@! TF.ProjectId,Updifier,55706469-6669-4657-922e-6b696361645f,rev?*
G04 #@! TF.SameCoordinates,Original*
G04 #@! TF.FileFunction,Soldermask,Bot*
G04 #@! TF.FilePolarity,Negative*
%FSLAX46Y46*%
G04 Gerber Fmt 4.6, Leading zero omitted, Abs format (unit mm)*
G04 Created by KiCad (PCBNEW (5.1.5)-3) date 2020-10-19 00:58:10*
%MOMM*%
%LPD*%
G04 APERTURE LIST*
%ADD10C,0.100000*%
G04 APERTURE END LIST*
D10*
G36*
X33286000Y-35191000D02*
G01*
X31484000Y-35191000D01*
X31484000Y-33389000D01*
X33286000Y-33389000D01*
X33286000Y-35191000D01*
G37*
G36*
X26936000Y-35191000D02*
G01*
X25134000Y-35191000D01*
X25134000Y-33389000D01*
X26936000Y-33389000D01*
X26936000Y-35191000D01*
G37*
G36*
X29949769Y-33392188D02*
G01*
X30107812Y-33423624D01*
X30271784Y-33491544D01*
X30419354Y-33590147D01*
X30544853Y-33715646D01*
X30643456Y-33863216D01*
X30711376Y-34027188D01*
X30746000Y-34201259D01*
X30746000Y-34378741D01*
X30711376Y-34552812D01*
X30643456Y-34716784D01*
X30544853Y-34864354D01*
X30419354Y-34989853D01*
X30271784Y-35088456D01*
X30107812Y-35156376D01*
X29958512Y-35186073D01*
X29933742Y-35191000D01*
X29756258Y-35191000D01*
X29731488Y-35186073D01*
X29582188Y-35156376D01*
X29418216Y-35088456D01*
X29270646Y-34989853D01*
X29145147Y-34864354D01*
X29046544Y-34716784D01*
X28978624Y-34552812D01*
X28944000Y-34378741D01*
X28944000Y-34201259D01*
X28978624Y-34027188D01*
X29046544Y-33863216D01*
X29145147Y-33715646D01*
X29270646Y-33590147D01*
X29418216Y-33491544D01*
X29582188Y-33423624D01*
X29740231Y-33392188D01*
X29756258Y-33389000D01*
X29933742Y-33389000D01*
X29949769Y-33392188D01*
G37*
G36*
X69963512Y-32758927D02*
G01*
X70112812Y-32788624D01*
X70276784Y-32856544D01*
X70424354Y-32955147D01*
X70549853Y-33080646D01*
X70648456Y-33228216D01*
X70716376Y-33392188D01*
X70751000Y-33566259D01*
X70751000Y-33743741D01*
X70716376Y-33917812D01*
X70648456Y-34081784D01*
X70549853Y-34229354D01*
X70424354Y-34354853D01*
X70276784Y-34453456D01*
X70112812Y-34521376D01*
X69963512Y-34551073D01*
X69938742Y-34556000D01*
X69761258Y-34556000D01*
X69736488Y-34551073D01*
X69587188Y-34521376D01*
X69423216Y-34453456D01*
X69275646Y-34354853D01*
X69150147Y-34229354D01*
X69051544Y-34081784D01*
X68983624Y-33917812D01*
X68949000Y-33743741D01*
X68949000Y-33566259D01*
X68983624Y-33392188D01*
X69051544Y-33228216D01*
X69150147Y-33080646D01*
X69275646Y-32955147D01*
X69423216Y-32856544D01*
X69587188Y-32788624D01*
X69736488Y-32758927D01*
X69761258Y-32754000D01*
X69938742Y-32754000D01*
X69963512Y-32758927D01*
G37*
G36*
X79641000Y-34556000D02*
G01*
X77839000Y-34556000D01*
X77839000Y-32754000D01*
X79641000Y-32754000D01*
X79641000Y-34556000D01*
G37*
G36*
X73291000Y-34556000D02*
G01*
X71489000Y-34556000D01*
X71489000Y-32754000D01*
X73291000Y-32754000D01*
X73291000Y-34556000D01*
G37*
G36*
X32489769Y-30852188D02*
G01*
X32647812Y-30883624D01*
X32811784Y-30951544D01*
X32959354Y-31050147D01*
X33084853Y-31175646D01*
X33183456Y-31323216D01*
X33251376Y-31487188D01*
X33286000Y-31661259D01*
X33286000Y-31838741D01*
X33251376Y-32012812D01*
X33183456Y-32176784D01*
X33084853Y-32324354D01*
X32959354Y-32449853D01*
X32811784Y-32548456D01*
X32647812Y-32616376D01*
X32498512Y-32646073D01*
X32473742Y-32651000D01*
X32296258Y-32651000D01*
X32271488Y-32646073D01*
X32122188Y-32616376D01*
X31958216Y-32548456D01*
X31810646Y-32449853D01*
X31685147Y-32324354D01*
X31586544Y-32176784D01*
X31518624Y-32012812D01*
X31484000Y-31838741D01*
X31484000Y-31661259D01*
X31518624Y-31487188D01*
X31586544Y-31323216D01*
X31685147Y-31175646D01*
X31810646Y-31050147D01*
X31958216Y-30951544D01*
X32122188Y-30883624D01*
X32280231Y-30852188D01*
X32296258Y-30849000D01*
X32473742Y-30849000D01*
X32489769Y-30852188D01*
G37*
G36*
X26139769Y-30852188D02*
G01*
X26297812Y-30883624D01*
X26461784Y-30951544D01*
X26609354Y-31050147D01*
X26734853Y-31175646D01*
X26833456Y-31323216D01*
X26901376Y-31487188D01*
X26936000Y-31661259D01*
X26936000Y-31838741D01*
X26901376Y-32012812D01*
X26833456Y-32176784D01*
X26734853Y-32324354D01*
X26609354Y-32449853D01*
X26461784Y-32548456D01*
X26297812Y-32616376D01*
X26148512Y-32646073D01*
X26123742Y-32651000D01*
X25946258Y-32651000D01*
X25921488Y-32646073D01*
X25772188Y-32616376D01*
X25608216Y-32548456D01*
X25460646Y-32449853D01*
X25335147Y-32324354D01*
X25236544Y-32176784D01*
X25168624Y-32012812D01*
X25134000Y-31838741D01*
X25134000Y-31661259D01*
X25168624Y-31487188D01*
X25236544Y-31323216D01*
X25335147Y-31175646D01*
X25460646Y-31050147D01*
X25608216Y-30951544D01*
X25772188Y-30883624D01*
X25930231Y-30852188D01*
X25946258Y-30849000D01*
X26123742Y-30849000D01*
X26139769Y-30852188D01*
G37*
G36*
X29949769Y-30852188D02*
G01*
X30107812Y-30883624D01*
X30271784Y-30951544D01*
X30419354Y-31050147D01*
X30544853Y-31175646D01*
X30643456Y-31323216D01*
X30711376Y-31487188D01*
X30746000Y-31661259D01*
X30746000Y-31838741D01*
X30711376Y-32012812D01*
X30643456Y-32176784D01*
X30544853Y-32324354D01*
X30419354Y-32449853D01*
X30271784Y-32548456D01*
X30107812Y-32616376D01*
X29958512Y-32646073D01*
X29933742Y-32651000D01*
X29756258Y-32651000D01*
X29731488Y-32646073D01*
X29582188Y-32616376D01*
X29418216Y-32548456D01*
X29270646Y-32449853D01*
X29145147Y-32324354D01*
X29046544Y-32176784D01*
X28978624Y-32012812D01*
X28944000Y-31838741D01*
X28944000Y-31661259D01*
X28978624Y-31487188D01*
X29046544Y-31323216D01*
X29145147Y-31175646D01*
X29270646Y-31050147D01*
X29418216Y-30951544D01*
X29582188Y-30883624D01*
X29740231Y-30852188D01*
X29756258Y-30849000D01*
X29933742Y-30849000D01*
X29949769Y-30852188D01*
G37*
G36*
X69963512Y-30218927D02*
G01*
X70112812Y-30248624D01*
X70276784Y-30316544D01*
X70424354Y-30415147D01*
X70549853Y-30540646D01*
X70648456Y-30688216D01*
X70716376Y-30852188D01*
X70751000Y-31026259D01*
X70751000Y-31203741D01*
X70716376Y-31377812D01*
X70648456Y-31541784D01*
X70549853Y-31689354D01*
X70424354Y-31814853D01*
X70276784Y-31913456D01*
X70112812Y-31981376D01*
X69963512Y-32011073D01*
X69938742Y-32016000D01*
X69761258Y-32016000D01*
X69736488Y-32011073D01*
X69587188Y-31981376D01*
X69423216Y-31913456D01*
X69275646Y-31814853D01*
X69150147Y-31689354D01*
X69051544Y-31541784D01*
X68983624Y-31377812D01*
X68949000Y-31203741D01*
X68949000Y-31026259D01*
X68983624Y-30852188D01*
X69051544Y-30688216D01*
X69150147Y-30540646D01*
X69275646Y-30415147D01*
X69423216Y-30316544D01*
X69587188Y-30248624D01*
X69736488Y-30218927D01*
X69761258Y-30214000D01*
X69938742Y-30214000D01*
X69963512Y-30218927D01*
G37*
G36*
X78853512Y-30218927D02*
G01*
X79002812Y-30248624D01*
X79166784Y-30316544D01*
X79314354Y-30415147D01*
X79439853Y-30540646D01*
X79538456Y-30688216D01*
X79606376Y-30852188D01*
X79641000Y-31026259D01*
X79641000Y-31203741D01*
X79606376Y-31377812D01*
X79538456Y-31541784D01*
X79439853Y-31689354D01*
X79314354Y-31814853D01*
X79166784Y-31913456D01*
X79002812Y-31981376D01*
X78853512Y-32011073D01*
X78828742Y-32016000D01*
X78651258Y-32016000D01*
X78626488Y-32011073D01*
X78477188Y-31981376D01*
X78313216Y-31913456D01*
X78165646Y-31814853D01*
X78040147Y-31689354D01*
X77941544Y-31541784D01*
X77873624Y-31377812D01*
X77839000Y-31203741D01*
X77839000Y-31026259D01*
X77873624Y-30852188D01*
X77941544Y-30688216D01*
X78040147Y-30540646D01*
X78165646Y-30415147D01*
X78313216Y-30316544D01*
X78477188Y-30248624D01*
X78626488Y-30218927D01*
X78651258Y-30214000D01*
X78828742Y-30214000D01*
X78853512Y-30218927D01*
G37*
G36*
X72503512Y-30218927D02*
G01*
X72652812Y-30248624D01*
X72816784Y-30316544D01*
X72964354Y-30415147D01*
X73089853Y-30540646D01*
X73188456Y-30688216D01*
X73256376Y-30852188D01*
X73291000Y-31026259D01*
X73291000Y-31203741D01*
X73256376Y-31377812D01*
X73188456Y-31541784D01*
X73089853Y-31689354D01*
X72964354Y-31814853D01*
X72816784Y-31913456D01*
X72652812Y-31981376D01*
X72503512Y-32011073D01*
X72478742Y-32016000D01*
X72301258Y-32016000D01*
X72276488Y-32011073D01*
X72127188Y-31981376D01*
X71963216Y-31913456D01*
X71815646Y-31814853D01*
X71690147Y-31689354D01*
X71591544Y-31541784D01*
X71523624Y-31377812D01*
X71489000Y-31203741D01*
X71489000Y-31026259D01*
X71523624Y-30852188D01*
X71591544Y-30688216D01*
X71690147Y-30540646D01*
X71815646Y-30415147D01*
X71963216Y-30316544D01*
X72127188Y-30248624D01*
X72276488Y-30218927D01*
X72301258Y-30214000D01*
X72478742Y-30214000D01*
X72503512Y-30218927D01*
G37*
G36*
X29949769Y-28312188D02*
G01*
X30107812Y-28343624D01*
X30271784Y-28411544D01*
X30419354Y-28510147D01*
X30544853Y-28635646D01*
X30643456Y-28783216D01*
X30711376Y-28947188D01*
X30746000Y-29121259D01*
X30746000Y-29298741D01*
X30711376Y-29472812D01*
X30643456Y-29636784D01*
X30544853Y-29784354D01*
X30419354Y-29909853D01*
X30271784Y-30008456D01*
X30107812Y-30076376D01*
X29958512Y-30106073D01*
X29933742Y-30111000D01*
X29756258Y-30111000D01*
X29731488Y-30106073D01*
X29582188Y-30076376D01*
X29418216Y-30008456D01*
X29270646Y-29909853D01*
X29145147Y-29784354D01*
X29046544Y-29636784D01*
X28978624Y-29472812D01*
X28944000Y-29298741D01*
X28944000Y-29121259D01*
X28978624Y-28947188D01*
X29046544Y-28783216D01*
X29145147Y-28635646D01*
X29270646Y-28510147D01*
X29418216Y-28411544D01*
X29582188Y-28343624D01*
X29740231Y-28312188D01*
X29756258Y-28309000D01*
X29933742Y-28309000D01*
X29949769Y-28312188D01*
G37*
G36*
X32489769Y-28312188D02*
G01*
X32647812Y-28343624D01*
X32811784Y-28411544D01*
X32959354Y-28510147D01*
X33084853Y-28635646D01*
X33183456Y-28783216D01*
X33251376Y-28947188D01*
X33286000Y-29121259D01*
X33286000Y-29298741D01*
X33251376Y-29472812D01*
X33183456Y-29636784D01*
X33084853Y-29784354D01*
X32959354Y-29909853D01*
X32811784Y-30008456D01*
X32647812Y-30076376D01*
X32498512Y-30106073D01*
X32473742Y-30111000D01*
X32296258Y-30111000D01*
X32271488Y-30106073D01*
X32122188Y-30076376D01*
X31958216Y-30008456D01*
X31810646Y-29909853D01*
X31685147Y-29784354D01*
X31586544Y-29636784D01*
X31518624Y-29472812D01*
X31484000Y-29298741D01*
X31484000Y-29121259D01*
X31518624Y-28947188D01*
X31586544Y-28783216D01*
X31685147Y-28635646D01*
X31810646Y-28510147D01*
X31958216Y-28411544D01*
X32122188Y-28343624D01*
X32280231Y-28312188D01*
X32296258Y-28309000D01*
X32473742Y-28309000D01*
X32489769Y-28312188D01*
G37*
G36*
X26139769Y-28312188D02*
G01*
X26297812Y-28343624D01*
X26461784Y-28411544D01*
X26609354Y-28510147D01*
X26734853Y-28635646D01*
X26833456Y-28783216D01*
X26901376Y-28947188D01*
X26936000Y-29121259D01*
X26936000Y-29298741D01*
X26901376Y-29472812D01*
X26833456Y-29636784D01*
X26734853Y-29784354D01*
X26609354Y-29909853D01*
X26461784Y-30008456D01*
X26297812Y-30076376D01*
X26148512Y-30106073D01*
X26123742Y-30111000D01*
X25946258Y-30111000D01*
X25921488Y-30106073D01*
X25772188Y-30076376D01*
X25608216Y-30008456D01*
X25460646Y-29909853D01*
X25335147Y-29784354D01*
X25236544Y-29636784D01*
X25168624Y-29472812D01*
X25134000Y-29298741D01*
X25134000Y-29121259D01*
X25168624Y-28947188D01*
X25236544Y-28783216D01*
X25335147Y-28635646D01*
X25460646Y-28510147D01*
X25608216Y-28411544D01*
X25772188Y-28343624D01*
X25930231Y-28312188D01*
X25946258Y-28309000D01*
X26123742Y-28309000D01*
X26139769Y-28312188D01*
G37*
G36*
X72503512Y-27678927D02*
G01*
X72652812Y-27708624D01*
X72816784Y-27776544D01*
X72964354Y-27875147D01*
X73089853Y-28000646D01*
X73188456Y-28148216D01*
X73256376Y-28312188D01*
X73291000Y-28486259D01*
X73291000Y-28663741D01*
X73256376Y-28837812D01*
X73188456Y-29001784D01*
X73089853Y-29149354D01*
X72964354Y-29274853D01*
X72816784Y-29373456D01*
X72652812Y-29441376D01*
X72503512Y-29471073D01*
X72478742Y-29476000D01*
X72301258Y-29476000D01*
X72276488Y-29471073D01*
X72127188Y-29441376D01*
X71963216Y-29373456D01*
X71815646Y-29274853D01*
X71690147Y-29149354D01*
X71591544Y-29001784D01*
X71523624Y-28837812D01*
X71489000Y-28663741D01*
X71489000Y-28486259D01*
X71523624Y-28312188D01*
X71591544Y-28148216D01*
X71690147Y-28000646D01*
X71815646Y-27875147D01*
X71963216Y-27776544D01*
X72127188Y-27708624D01*
X72276488Y-27678927D01*
X72301258Y-27674000D01*
X72478742Y-27674000D01*
X72503512Y-27678927D01*
G37*
G36*
X69963512Y-27678927D02*
G01*
X70112812Y-27708624D01*
X70276784Y-27776544D01*
X70424354Y-27875147D01*
X70549853Y-28000646D01*
X70648456Y-28148216D01*
X70716376Y-28312188D01*
X70751000Y-28486259D01*
X70751000Y-28663741D01*
X70716376Y-28837812D01*
X70648456Y-29001784D01*
X70549853Y-29149354D01*
X70424354Y-29274853D01*
X70276784Y-29373456D01*
X70112812Y-29441376D01*
X69963512Y-29471073D01*
X69938742Y-29476000D01*
X69761258Y-29476000D01*
X69736488Y-29471073D01*
X69587188Y-29441376D01*
X69423216Y-29373456D01*
X69275646Y-29274853D01*
X69150147Y-29149354D01*
X69051544Y-29001784D01*
X68983624Y-28837812D01*
X68949000Y-28663741D01*
X68949000Y-28486259D01*
X68983624Y-28312188D01*
X69051544Y-28148216D01*
X69150147Y-28000646D01*
X69275646Y-27875147D01*
X69423216Y-27776544D01*
X69587188Y-27708624D01*
X69736488Y-27678927D01*
X69761258Y-27674000D01*
X69938742Y-27674000D01*
X69963512Y-27678927D01*
G37*
G36*
X78853512Y-27678927D02*
G01*
X79002812Y-27708624D01*
X79166784Y-27776544D01*
X79314354Y-27875147D01*
X79439853Y-28000646D01*
X79538456Y-28148216D01*
X79606376Y-28312188D01*
X79641000Y-28486259D01*
X79641000Y-28663741D01*
X79606376Y-28837812D01*
X79538456Y-29001784D01*
X79439853Y-29149354D01*
X79314354Y-29274853D01*
X79166784Y-29373456D01*
X79002812Y-29441376D01*
X78853512Y-29471073D01*
X78828742Y-29476000D01*
X78651258Y-29476000D01*
X78626488Y-29471073D01*
X78477188Y-29441376D01*
X78313216Y-29373456D01*
X78165646Y-29274853D01*
X78040147Y-29149354D01*
X77941544Y-29001784D01*
X77873624Y-28837812D01*
X77839000Y-28663741D01*
X77839000Y-28486259D01*
X77873624Y-28312188D01*
X77941544Y-28148216D01*
X78040147Y-28000646D01*
X78165646Y-27875147D01*
X78313216Y-27776544D01*
X78477188Y-27708624D01*
X78626488Y-27678927D01*
X78651258Y-27674000D01*
X78828742Y-27674000D01*
X78853512Y-27678927D01*
G37*
M02*
