M48
; DRILL file {KiCad (5.1.5)-3} date 10/19/2020 12:58:13 AM
; FORMAT={-:-/ absolute / inch / decimal}
; #@! TF.CreationDate,2020-10-19T00:58:13-04:00
; #@! TF.GenerationSoftware,Kicad,Pcbnew,(5.1.5)-3
FMAT,2
INCH
T1C0.0130
T2C0.0394
%
G90
G05
T1
X1.18Y-0.9571
X1.36Y-1.3
X1.415Y-1.38
X1.53Y-1.235
X1.585Y-1.38
X1.6Y-1.075
X1.745Y-1.035
X1.745Y-1.23
X1.82Y-1.2351
X1.93Y-1.2
X2.035Y-1.37
X2.1384Y-1.3016
X2.14Y-0.975
X2.14Y-1.34
X2.145Y-1.055
X2.1544Y-1.2456
X2.195Y-1.33
X2.505Y-1.125
X2.935Y-1.205
T2
X2.75Y-1.125
X2.75Y-1.225
X2.75Y-1.325
X2.85Y-1.125
X2.85Y-1.225
X2.85Y-1.325
X3.1Y-1.125
X3.1Y-1.225
X3.1Y-1.325
X1.175Y-1.15
X1.175Y-1.25
X1.175Y-1.35
X1.275Y-1.15
X1.275Y-1.25
X1.275Y-1.35
X1.025Y-1.15
X1.025Y-1.25
X1.025Y-1.35
T0
M30
