G04 #@! TF.GenerationSoftware,KiCad,Pcbnew,(5.1.5)-3*
G04 #@! TF.CreationDate,2020-10-19T00:58:10-04:00*
G04 #@! TF.ProjectId,Updifier,55706469-6669-4657-922e-6b696361645f,rev?*
G04 #@! TF.SameCoordinates,Original*
G04 #@! TF.FileFunction,Soldermask,Top*
G04 #@! TF.FilePolarity,Negative*
%FSLAX46Y46*%
G04 Gerber Fmt 4.6, Leading zero omitted, Abs format (unit mm)*
G04 Created by KiCad (PCBNEW (5.1.5)-3) date 2020-10-19 00:58:10*
%MOMM*%
%LPD*%
G04 APERTURE LIST*
%ADD10C,0.100000*%
G04 APERTURE END LIST*
D10*
G36*
X43801591Y-39610085D02*
G01*
X43835569Y-39620393D01*
X43866890Y-39637134D01*
X43894339Y-39659661D01*
X43916866Y-39687110D01*
X43933607Y-39718431D01*
X43943915Y-39752409D01*
X43948000Y-39793890D01*
X43948000Y-40470110D01*
X43943915Y-40511591D01*
X43933607Y-40545569D01*
X43916866Y-40576890D01*
X43894339Y-40604339D01*
X43866890Y-40626866D01*
X43835569Y-40643607D01*
X43801591Y-40653915D01*
X43760110Y-40658000D01*
X43158890Y-40658000D01*
X43117409Y-40653915D01*
X43083431Y-40643607D01*
X43052110Y-40626866D01*
X43024661Y-40604339D01*
X43002134Y-40576890D01*
X42985393Y-40545569D01*
X42975085Y-40511591D01*
X42971000Y-40470110D01*
X42971000Y-39793890D01*
X42975085Y-39752409D01*
X42985393Y-39718431D01*
X43002134Y-39687110D01*
X43024661Y-39659661D01*
X43052110Y-39637134D01*
X43083431Y-39620393D01*
X43117409Y-39610085D01*
X43158890Y-39606000D01*
X43760110Y-39606000D01*
X43801591Y-39610085D01*
G37*
G36*
X42226591Y-39610085D02*
G01*
X42260569Y-39620393D01*
X42291890Y-39637134D01*
X42319339Y-39659661D01*
X42341866Y-39687110D01*
X42358607Y-39718431D01*
X42368915Y-39752409D01*
X42373000Y-39793890D01*
X42373000Y-40470110D01*
X42368915Y-40511591D01*
X42358607Y-40545569D01*
X42341866Y-40576890D01*
X42319339Y-40604339D01*
X42291890Y-40626866D01*
X42260569Y-40643607D01*
X42226591Y-40653915D01*
X42185110Y-40658000D01*
X41583890Y-40658000D01*
X41542409Y-40653915D01*
X41508431Y-40643607D01*
X41477110Y-40626866D01*
X41449661Y-40604339D01*
X41427134Y-40576890D01*
X41410393Y-40545569D01*
X41400085Y-40511591D01*
X41396000Y-40470110D01*
X41396000Y-39793890D01*
X41400085Y-39752409D01*
X41410393Y-39718431D01*
X41427134Y-39687110D01*
X41449661Y-39659661D01*
X41477110Y-39637134D01*
X41508431Y-39620393D01*
X41542409Y-39610085D01*
X41583890Y-39606000D01*
X42185110Y-39606000D01*
X42226591Y-39610085D01*
G37*
G36*
X36866000Y-39909000D02*
G01*
X35564000Y-39909000D01*
X35564000Y-37307000D01*
X36866000Y-37307000D01*
X36866000Y-39909000D01*
G37*
G36*
X39366000Y-39909000D02*
G01*
X38064000Y-39909000D01*
X38064000Y-37307000D01*
X39366000Y-37307000D01*
X39366000Y-39909000D01*
G37*
G36*
X28167290Y-37760619D02*
G01*
X28231689Y-37773429D01*
X28413678Y-37848811D01*
X28577463Y-37958249D01*
X28716751Y-38097537D01*
X28826189Y-38261322D01*
X28901571Y-38443311D01*
X28940000Y-38636509D01*
X28940000Y-38833491D01*
X28901571Y-39026689D01*
X28826189Y-39208678D01*
X28716751Y-39372463D01*
X28577463Y-39511751D01*
X28413678Y-39621189D01*
X28231689Y-39696571D01*
X28167290Y-39709381D01*
X28038493Y-39735000D01*
X27841507Y-39735000D01*
X27712710Y-39709381D01*
X27648311Y-39696571D01*
X27466322Y-39621189D01*
X27302537Y-39511751D01*
X27163249Y-39372463D01*
X27053811Y-39208678D01*
X26978429Y-39026689D01*
X26940000Y-38833491D01*
X26940000Y-38636509D01*
X26978429Y-38443311D01*
X27053811Y-38261322D01*
X27163249Y-38097537D01*
X27302537Y-37958249D01*
X27466322Y-37848811D01*
X27648311Y-37773429D01*
X27712710Y-37760619D01*
X27841507Y-37735000D01*
X28038493Y-37735000D01*
X28167290Y-37760619D01*
G37*
G36*
X42226591Y-37070085D02*
G01*
X42260569Y-37080393D01*
X42291890Y-37097134D01*
X42319339Y-37119661D01*
X42341866Y-37147110D01*
X42358607Y-37178431D01*
X42368915Y-37212409D01*
X42373000Y-37253890D01*
X42373000Y-37930110D01*
X42368915Y-37971591D01*
X42358607Y-38005569D01*
X42341866Y-38036890D01*
X42319339Y-38064339D01*
X42291890Y-38086866D01*
X42260569Y-38103607D01*
X42226591Y-38113915D01*
X42185110Y-38118000D01*
X41583890Y-38118000D01*
X41542409Y-38113915D01*
X41508431Y-38103607D01*
X41477110Y-38086866D01*
X41449661Y-38064339D01*
X41427134Y-38036890D01*
X41410393Y-38005569D01*
X41400085Y-37971591D01*
X41396000Y-37930110D01*
X41396000Y-37253890D01*
X41400085Y-37212409D01*
X41410393Y-37178431D01*
X41427134Y-37147110D01*
X41449661Y-37119661D01*
X41477110Y-37097134D01*
X41508431Y-37080393D01*
X41542409Y-37070085D01*
X41583890Y-37066000D01*
X42185110Y-37066000D01*
X42226591Y-37070085D01*
G37*
G36*
X43801591Y-37070085D02*
G01*
X43835569Y-37080393D01*
X43866890Y-37097134D01*
X43894339Y-37119661D01*
X43916866Y-37147110D01*
X43933607Y-37178431D01*
X43943915Y-37212409D01*
X43948000Y-37253890D01*
X43948000Y-37930110D01*
X43943915Y-37971591D01*
X43933607Y-38005569D01*
X43916866Y-38036890D01*
X43894339Y-38064339D01*
X43866890Y-38086866D01*
X43835569Y-38103607D01*
X43801591Y-38113915D01*
X43760110Y-38118000D01*
X43158890Y-38118000D01*
X43117409Y-38113915D01*
X43083431Y-38103607D01*
X43052110Y-38086866D01*
X43024661Y-38064339D01*
X43002134Y-38036890D01*
X42985393Y-38005569D01*
X42975085Y-37971591D01*
X42971000Y-37930110D01*
X42971000Y-37253890D01*
X42975085Y-37212409D01*
X42985393Y-37178431D01*
X43002134Y-37147110D01*
X43024661Y-37119661D01*
X43052110Y-37097134D01*
X43083431Y-37080393D01*
X43117409Y-37070085D01*
X43158890Y-37066000D01*
X43760110Y-37066000D01*
X43801591Y-37070085D01*
G37*
G36*
X46933335Y-34452661D02*
G01*
X47027689Y-34471429D01*
X47209678Y-34546811D01*
X47373463Y-34656249D01*
X47512751Y-34795537D01*
X47622189Y-34959322D01*
X47697571Y-35141311D01*
X47707455Y-35191000D01*
X47736000Y-35334507D01*
X47736000Y-35531493D01*
X47726749Y-35578000D01*
X47697571Y-35724689D01*
X47622189Y-35906678D01*
X47512751Y-36070463D01*
X47373463Y-36209751D01*
X47209678Y-36319189D01*
X47027689Y-36394571D01*
X46963290Y-36407381D01*
X46834493Y-36433000D01*
X46637507Y-36433000D01*
X46508710Y-36407381D01*
X46444311Y-36394571D01*
X46262322Y-36319189D01*
X46098537Y-36209751D01*
X45959249Y-36070463D01*
X45849811Y-35906678D01*
X45774429Y-35724689D01*
X45745251Y-35578000D01*
X45736000Y-35531493D01*
X45736000Y-35334507D01*
X45764545Y-35191000D01*
X45774429Y-35141311D01*
X45849811Y-34959322D01*
X45959249Y-34795537D01*
X46098537Y-34656249D01*
X46262322Y-34546811D01*
X46444311Y-34471429D01*
X46538665Y-34452661D01*
X46637507Y-34433000D01*
X46834493Y-34433000D01*
X46933335Y-34452661D01*
G37*
G36*
X42226591Y-34530085D02*
G01*
X42260569Y-34540393D01*
X42291890Y-34557134D01*
X42319339Y-34579661D01*
X42341866Y-34607110D01*
X42358607Y-34638431D01*
X42368915Y-34672409D01*
X42373000Y-34713890D01*
X42373000Y-35390110D01*
X42368915Y-35431591D01*
X42358607Y-35465569D01*
X42341866Y-35496890D01*
X42319339Y-35524339D01*
X42291890Y-35546866D01*
X42260569Y-35563607D01*
X42226591Y-35573915D01*
X42185110Y-35578000D01*
X41583890Y-35578000D01*
X41542409Y-35573915D01*
X41508431Y-35563607D01*
X41477110Y-35546866D01*
X41449661Y-35524339D01*
X41427134Y-35496890D01*
X41410393Y-35465569D01*
X41400085Y-35431591D01*
X41396000Y-35390110D01*
X41396000Y-34713890D01*
X41400085Y-34672409D01*
X41410393Y-34638431D01*
X41427134Y-34607110D01*
X41449661Y-34579661D01*
X41477110Y-34557134D01*
X41508431Y-34540393D01*
X41542409Y-34530085D01*
X41583890Y-34526000D01*
X42185110Y-34526000D01*
X42226591Y-34530085D01*
G37*
G36*
X43801591Y-34530085D02*
G01*
X43835569Y-34540393D01*
X43866890Y-34557134D01*
X43894339Y-34579661D01*
X43916866Y-34607110D01*
X43933607Y-34638431D01*
X43943915Y-34672409D01*
X43948000Y-34713890D01*
X43948000Y-35390110D01*
X43943915Y-35431591D01*
X43933607Y-35465569D01*
X43916866Y-35496890D01*
X43894339Y-35524339D01*
X43866890Y-35546866D01*
X43835569Y-35563607D01*
X43801591Y-35573915D01*
X43760110Y-35578000D01*
X43158890Y-35578000D01*
X43117409Y-35573915D01*
X43083431Y-35563607D01*
X43052110Y-35546866D01*
X43024661Y-35524339D01*
X43002134Y-35496890D01*
X42985393Y-35465569D01*
X42975085Y-35431591D01*
X42971000Y-35390110D01*
X42971000Y-34713890D01*
X42975085Y-34672409D01*
X42985393Y-34638431D01*
X43002134Y-34607110D01*
X43024661Y-34579661D01*
X43052110Y-34557134D01*
X43083431Y-34540393D01*
X43117409Y-34530085D01*
X43158890Y-34526000D01*
X43760110Y-34526000D01*
X43801591Y-34530085D01*
G37*
G36*
X39204091Y-34530085D02*
G01*
X39238069Y-34540393D01*
X39269390Y-34557134D01*
X39296839Y-34579661D01*
X39319366Y-34607110D01*
X39336107Y-34638431D01*
X39346415Y-34672409D01*
X39350500Y-34713890D01*
X39350500Y-35390110D01*
X39346415Y-35431591D01*
X39336107Y-35465569D01*
X39319366Y-35496890D01*
X39296839Y-35524339D01*
X39269390Y-35546866D01*
X39238069Y-35563607D01*
X39204091Y-35573915D01*
X39162610Y-35578000D01*
X38561390Y-35578000D01*
X38519909Y-35573915D01*
X38485931Y-35563607D01*
X38454610Y-35546866D01*
X38427161Y-35524339D01*
X38404634Y-35496890D01*
X38387893Y-35465569D01*
X38377585Y-35431591D01*
X38373500Y-35390110D01*
X38373500Y-34713890D01*
X38377585Y-34672409D01*
X38387893Y-34638431D01*
X38404634Y-34607110D01*
X38427161Y-34579661D01*
X38454610Y-34557134D01*
X38485931Y-34540393D01*
X38519909Y-34530085D01*
X38561390Y-34526000D01*
X39162610Y-34526000D01*
X39204091Y-34530085D01*
G37*
G36*
X37629091Y-34530085D02*
G01*
X37663069Y-34540393D01*
X37694390Y-34557134D01*
X37721839Y-34579661D01*
X37744366Y-34607110D01*
X37761107Y-34638431D01*
X37771415Y-34672409D01*
X37775500Y-34713890D01*
X37775500Y-35390110D01*
X37771415Y-35431591D01*
X37761107Y-35465569D01*
X37744366Y-35496890D01*
X37721839Y-35524339D01*
X37694390Y-35546866D01*
X37663069Y-35563607D01*
X37629091Y-35573915D01*
X37587610Y-35578000D01*
X36986390Y-35578000D01*
X36944909Y-35573915D01*
X36910931Y-35563607D01*
X36879610Y-35546866D01*
X36852161Y-35524339D01*
X36829634Y-35496890D01*
X36812893Y-35465569D01*
X36802585Y-35431591D01*
X36798500Y-35390110D01*
X36798500Y-34713890D01*
X36802585Y-34672409D01*
X36812893Y-34638431D01*
X36829634Y-34607110D01*
X36852161Y-34579661D01*
X36879610Y-34557134D01*
X36910931Y-34540393D01*
X36944909Y-34530085D01*
X36986390Y-34526000D01*
X37587610Y-34526000D01*
X37629091Y-34530085D01*
G37*
G36*
X56095091Y-34403085D02*
G01*
X56129069Y-34413393D01*
X56160390Y-34430134D01*
X56187839Y-34452661D01*
X56210366Y-34480110D01*
X56227107Y-34511431D01*
X56237415Y-34545409D01*
X56241500Y-34586890D01*
X56241500Y-35263110D01*
X56237415Y-35304591D01*
X56227107Y-35338569D01*
X56210366Y-35369890D01*
X56187839Y-35397339D01*
X56160390Y-35419866D01*
X56129069Y-35436607D01*
X56095091Y-35446915D01*
X56053610Y-35451000D01*
X55452390Y-35451000D01*
X55410909Y-35446915D01*
X55376931Y-35436607D01*
X55345610Y-35419866D01*
X55318161Y-35397339D01*
X55295634Y-35369890D01*
X55278893Y-35338569D01*
X55268585Y-35304591D01*
X55264500Y-35263110D01*
X55264500Y-34586890D01*
X55268585Y-34545409D01*
X55278893Y-34511431D01*
X55295634Y-34480110D01*
X55318161Y-34452661D01*
X55345610Y-34430134D01*
X55376931Y-34413393D01*
X55410909Y-34403085D01*
X55452390Y-34399000D01*
X56053610Y-34399000D01*
X56095091Y-34403085D01*
G37*
G36*
X57670091Y-34403085D02*
G01*
X57704069Y-34413393D01*
X57735390Y-34430134D01*
X57762839Y-34452661D01*
X57785366Y-34480110D01*
X57802107Y-34511431D01*
X57812415Y-34545409D01*
X57816500Y-34586890D01*
X57816500Y-35263110D01*
X57812415Y-35304591D01*
X57802107Y-35338569D01*
X57785366Y-35369890D01*
X57762839Y-35397339D01*
X57735390Y-35419866D01*
X57704069Y-35436607D01*
X57670091Y-35446915D01*
X57628610Y-35451000D01*
X57027390Y-35451000D01*
X56985909Y-35446915D01*
X56951931Y-35436607D01*
X56920610Y-35419866D01*
X56893161Y-35397339D01*
X56870634Y-35369890D01*
X56853893Y-35338569D01*
X56843585Y-35304591D01*
X56839500Y-35263110D01*
X56839500Y-34586890D01*
X56843585Y-34545409D01*
X56853893Y-34511431D01*
X56870634Y-34480110D01*
X56893161Y-34452661D01*
X56920610Y-34430134D01*
X56951931Y-34413393D01*
X56985909Y-34403085D01*
X57027390Y-34399000D01*
X57628610Y-34399000D01*
X57670091Y-34403085D01*
G37*
G36*
X53610000Y-35276000D02*
G01*
X52308000Y-35276000D01*
X52308000Y-32674000D01*
X53610000Y-32674000D01*
X53610000Y-35276000D01*
G37*
G36*
X51110000Y-35276000D02*
G01*
X49808000Y-35276000D01*
X49808000Y-32674000D01*
X51110000Y-32674000D01*
X51110000Y-35276000D01*
G37*
G36*
X26936000Y-35191000D02*
G01*
X25134000Y-35191000D01*
X25134000Y-33389000D01*
X26936000Y-33389000D01*
X26936000Y-35191000D01*
G37*
G36*
X29949769Y-33392188D02*
G01*
X30107812Y-33423624D01*
X30271784Y-33491544D01*
X30419354Y-33590147D01*
X30544853Y-33715646D01*
X30643456Y-33863216D01*
X30711376Y-34027188D01*
X30746000Y-34201259D01*
X30746000Y-34378741D01*
X30711376Y-34552812D01*
X30643456Y-34716784D01*
X30544853Y-34864354D01*
X30419354Y-34989853D01*
X30271784Y-35088456D01*
X30107812Y-35156376D01*
X29958512Y-35186073D01*
X29933742Y-35191000D01*
X29756258Y-35191000D01*
X29731488Y-35186073D01*
X29582188Y-35156376D01*
X29418216Y-35088456D01*
X29270646Y-34989853D01*
X29145147Y-34864354D01*
X29046544Y-34716784D01*
X28978624Y-34552812D01*
X28944000Y-34378741D01*
X28944000Y-34201259D01*
X28978624Y-34027188D01*
X29046544Y-33863216D01*
X29145147Y-33715646D01*
X29270646Y-33590147D01*
X29418216Y-33491544D01*
X29582188Y-33423624D01*
X29740231Y-33392188D01*
X29756258Y-33389000D01*
X29933742Y-33389000D01*
X29949769Y-33392188D01*
G37*
G36*
X33286000Y-35191000D02*
G01*
X31484000Y-35191000D01*
X31484000Y-33389000D01*
X33286000Y-33389000D01*
X33286000Y-35191000D01*
G37*
G36*
X64011512Y-32674000D02*
G01*
X64109189Y-32693429D01*
X64291178Y-32768811D01*
X64454963Y-32878249D01*
X64594251Y-33017537D01*
X64703689Y-33181322D01*
X64779071Y-33363311D01*
X64817500Y-33556509D01*
X64817500Y-33753491D01*
X64779071Y-33946689D01*
X64703689Y-34128678D01*
X64594251Y-34292463D01*
X64454963Y-34431751D01*
X64291178Y-34541189D01*
X64109189Y-34616571D01*
X64044790Y-34629381D01*
X63915993Y-34655000D01*
X63719007Y-34655000D01*
X63590210Y-34629381D01*
X63525811Y-34616571D01*
X63343822Y-34541189D01*
X63180037Y-34431751D01*
X63040749Y-34292463D01*
X62931311Y-34128678D01*
X62855929Y-33946689D01*
X62817500Y-33753491D01*
X62817500Y-33556509D01*
X62855929Y-33363311D01*
X62931311Y-33181322D01*
X63040749Y-33017537D01*
X63180037Y-32878249D01*
X63343822Y-32768811D01*
X63525811Y-32693429D01*
X63623488Y-32674000D01*
X63719007Y-32655000D01*
X63915993Y-32655000D01*
X64011512Y-32674000D01*
G37*
G36*
X73291000Y-34556000D02*
G01*
X71489000Y-34556000D01*
X71489000Y-32754000D01*
X73291000Y-32754000D01*
X73291000Y-34556000D01*
G37*
G36*
X69963512Y-32758927D02*
G01*
X70112812Y-32788624D01*
X70276784Y-32856544D01*
X70424354Y-32955147D01*
X70549853Y-33080646D01*
X70648456Y-33228216D01*
X70716376Y-33392188D01*
X70751000Y-33566259D01*
X70751000Y-33743741D01*
X70716376Y-33917812D01*
X70648456Y-34081784D01*
X70549853Y-34229354D01*
X70424354Y-34354853D01*
X70276784Y-34453456D01*
X70112812Y-34521376D01*
X69984938Y-34546811D01*
X69938742Y-34556000D01*
X69761258Y-34556000D01*
X69715062Y-34546811D01*
X69587188Y-34521376D01*
X69423216Y-34453456D01*
X69275646Y-34354853D01*
X69150147Y-34229354D01*
X69051544Y-34081784D01*
X68983624Y-33917812D01*
X68949000Y-33743741D01*
X68949000Y-33566259D01*
X68983624Y-33392188D01*
X69051544Y-33228216D01*
X69150147Y-33080646D01*
X69275646Y-32955147D01*
X69423216Y-32856544D01*
X69587188Y-32788624D01*
X69736488Y-32758927D01*
X69761258Y-32754000D01*
X69938742Y-32754000D01*
X69963512Y-32758927D01*
G37*
G36*
X79641000Y-34556000D02*
G01*
X77839000Y-34556000D01*
X77839000Y-32754000D01*
X79641000Y-32754000D01*
X79641000Y-34556000D01*
G37*
G36*
X59031000Y-33051000D02*
G01*
X57729000Y-33051000D01*
X57729000Y-32349000D01*
X59031000Y-32349000D01*
X59031000Y-33051000D01*
G37*
G36*
X56531000Y-33051000D02*
G01*
X55229000Y-33051000D01*
X55229000Y-30449000D01*
X56531000Y-30449000D01*
X56531000Y-33051000D01*
G37*
G36*
X46570091Y-31990085D02*
G01*
X46604069Y-32000393D01*
X46635390Y-32017134D01*
X46662839Y-32039661D01*
X46685366Y-32067110D01*
X46702107Y-32098431D01*
X46712415Y-32132409D01*
X46716500Y-32173890D01*
X46716500Y-32850110D01*
X46712415Y-32891591D01*
X46702107Y-32925569D01*
X46685366Y-32956890D01*
X46662839Y-32984339D01*
X46635390Y-33006866D01*
X46604069Y-33023607D01*
X46570091Y-33033915D01*
X46528610Y-33038000D01*
X45927390Y-33038000D01*
X45885909Y-33033915D01*
X45851931Y-33023607D01*
X45820610Y-33006866D01*
X45793161Y-32984339D01*
X45770634Y-32956890D01*
X45753893Y-32925569D01*
X45743585Y-32891591D01*
X45739500Y-32850110D01*
X45739500Y-32173890D01*
X45743585Y-32132409D01*
X45753893Y-32098431D01*
X45770634Y-32067110D01*
X45793161Y-32039661D01*
X45820610Y-32017134D01*
X45851931Y-32000393D01*
X45885909Y-31990085D01*
X45927390Y-31986000D01*
X46528610Y-31986000D01*
X46570091Y-31990085D01*
G37*
G36*
X37654591Y-31990085D02*
G01*
X37688569Y-32000393D01*
X37719890Y-32017134D01*
X37747339Y-32039661D01*
X37769866Y-32067110D01*
X37786607Y-32098431D01*
X37796915Y-32132409D01*
X37801000Y-32173890D01*
X37801000Y-32850110D01*
X37796915Y-32891591D01*
X37786607Y-32925569D01*
X37769866Y-32956890D01*
X37747339Y-32984339D01*
X37719890Y-33006866D01*
X37688569Y-33023607D01*
X37654591Y-33033915D01*
X37613110Y-33038000D01*
X37011890Y-33038000D01*
X36970409Y-33033915D01*
X36936431Y-33023607D01*
X36905110Y-33006866D01*
X36877661Y-32984339D01*
X36855134Y-32956890D01*
X36838393Y-32925569D01*
X36828085Y-32891591D01*
X36824000Y-32850110D01*
X36824000Y-32173890D01*
X36828085Y-32132409D01*
X36838393Y-32098431D01*
X36855134Y-32067110D01*
X36877661Y-32039661D01*
X36905110Y-32017134D01*
X36936431Y-32000393D01*
X36970409Y-31990085D01*
X37011890Y-31986000D01*
X37613110Y-31986000D01*
X37654591Y-31990085D01*
G37*
G36*
X43801591Y-31990085D02*
G01*
X43835569Y-32000393D01*
X43866890Y-32017134D01*
X43894339Y-32039661D01*
X43916866Y-32067110D01*
X43933607Y-32098431D01*
X43943915Y-32132409D01*
X43948000Y-32173890D01*
X43948000Y-32850110D01*
X43943915Y-32891591D01*
X43933607Y-32925569D01*
X43916866Y-32956890D01*
X43894339Y-32984339D01*
X43866890Y-33006866D01*
X43835569Y-33023607D01*
X43801591Y-33033915D01*
X43760110Y-33038000D01*
X43158890Y-33038000D01*
X43117409Y-33033915D01*
X43083431Y-33023607D01*
X43052110Y-33006866D01*
X43024661Y-32984339D01*
X43002134Y-32956890D01*
X42985393Y-32925569D01*
X42975085Y-32891591D01*
X42971000Y-32850110D01*
X42971000Y-32173890D01*
X42975085Y-32132409D01*
X42985393Y-32098431D01*
X43002134Y-32067110D01*
X43024661Y-32039661D01*
X43052110Y-32017134D01*
X43083431Y-32000393D01*
X43117409Y-31990085D01*
X43158890Y-31986000D01*
X43760110Y-31986000D01*
X43801591Y-31990085D01*
G37*
G36*
X42226591Y-31990085D02*
G01*
X42260569Y-32000393D01*
X42291890Y-32017134D01*
X42319339Y-32039661D01*
X42341866Y-32067110D01*
X42358607Y-32098431D01*
X42368915Y-32132409D01*
X42373000Y-32173890D01*
X42373000Y-32850110D01*
X42368915Y-32891591D01*
X42358607Y-32925569D01*
X42341866Y-32956890D01*
X42319339Y-32984339D01*
X42291890Y-33006866D01*
X42260569Y-33023607D01*
X42226591Y-33033915D01*
X42185110Y-33038000D01*
X41583890Y-33038000D01*
X41542409Y-33033915D01*
X41508431Y-33023607D01*
X41477110Y-33006866D01*
X41449661Y-32984339D01*
X41427134Y-32956890D01*
X41410393Y-32925569D01*
X41400085Y-32891591D01*
X41396000Y-32850110D01*
X41396000Y-32173890D01*
X41400085Y-32132409D01*
X41410393Y-32098431D01*
X41427134Y-32067110D01*
X41449661Y-32039661D01*
X41477110Y-32017134D01*
X41508431Y-32000393D01*
X41542409Y-31990085D01*
X41583890Y-31986000D01*
X42185110Y-31986000D01*
X42226591Y-31990085D01*
G37*
G36*
X39229591Y-31990085D02*
G01*
X39263569Y-32000393D01*
X39294890Y-32017134D01*
X39322339Y-32039661D01*
X39344866Y-32067110D01*
X39361607Y-32098431D01*
X39371915Y-32132409D01*
X39376000Y-32173890D01*
X39376000Y-32850110D01*
X39371915Y-32891591D01*
X39361607Y-32925569D01*
X39344866Y-32956890D01*
X39322339Y-32984339D01*
X39294890Y-33006866D01*
X39263569Y-33023607D01*
X39229591Y-33033915D01*
X39188110Y-33038000D01*
X38586890Y-33038000D01*
X38545409Y-33033915D01*
X38511431Y-33023607D01*
X38480110Y-33006866D01*
X38452661Y-32984339D01*
X38430134Y-32956890D01*
X38413393Y-32925569D01*
X38403085Y-32891591D01*
X38399000Y-32850110D01*
X38399000Y-32173890D01*
X38403085Y-32132409D01*
X38413393Y-32098431D01*
X38430134Y-32067110D01*
X38452661Y-32039661D01*
X38480110Y-32017134D01*
X38511431Y-32000393D01*
X38545409Y-31990085D01*
X38586890Y-31986000D01*
X39188110Y-31986000D01*
X39229591Y-31990085D01*
G37*
G36*
X48145091Y-31990085D02*
G01*
X48179069Y-32000393D01*
X48210390Y-32017134D01*
X48237839Y-32039661D01*
X48260366Y-32067110D01*
X48277107Y-32098431D01*
X48287415Y-32132409D01*
X48291500Y-32173890D01*
X48291500Y-32850110D01*
X48287415Y-32891591D01*
X48277107Y-32925569D01*
X48260366Y-32956890D01*
X48237839Y-32984339D01*
X48210390Y-33006866D01*
X48179069Y-33023607D01*
X48145091Y-33033915D01*
X48103610Y-33038000D01*
X47502390Y-33038000D01*
X47460909Y-33033915D01*
X47426931Y-33023607D01*
X47395610Y-33006866D01*
X47368161Y-32984339D01*
X47345634Y-32956890D01*
X47328893Y-32925569D01*
X47318585Y-32891591D01*
X47314500Y-32850110D01*
X47314500Y-32173890D01*
X47318585Y-32132409D01*
X47328893Y-32098431D01*
X47345634Y-32067110D01*
X47368161Y-32039661D01*
X47395610Y-32017134D01*
X47426931Y-32000393D01*
X47460909Y-31990085D01*
X47502390Y-31986000D01*
X48103610Y-31986000D01*
X48145091Y-31990085D01*
G37*
G36*
X26135053Y-30851250D02*
G01*
X26297812Y-30883624D01*
X26461784Y-30951544D01*
X26609354Y-31050147D01*
X26734853Y-31175646D01*
X26833456Y-31323216D01*
X26901376Y-31487188D01*
X26936000Y-31661259D01*
X26936000Y-31838741D01*
X26901376Y-32012812D01*
X26833456Y-32176784D01*
X26734853Y-32324354D01*
X26609354Y-32449853D01*
X26461784Y-32548456D01*
X26297812Y-32616376D01*
X26148512Y-32646073D01*
X26123742Y-32651000D01*
X25946258Y-32651000D01*
X25921488Y-32646073D01*
X25772188Y-32616376D01*
X25608216Y-32548456D01*
X25460646Y-32449853D01*
X25335147Y-32324354D01*
X25236544Y-32176784D01*
X25168624Y-32012812D01*
X25134000Y-31838741D01*
X25134000Y-31661259D01*
X25168624Y-31487188D01*
X25236544Y-31323216D01*
X25335147Y-31175646D01*
X25460646Y-31050147D01*
X25608216Y-30951544D01*
X25772188Y-30883624D01*
X25934947Y-30851250D01*
X25946258Y-30849000D01*
X26123742Y-30849000D01*
X26135053Y-30851250D01*
G37*
G36*
X32485053Y-30851250D02*
G01*
X32647812Y-30883624D01*
X32811784Y-30951544D01*
X32959354Y-31050147D01*
X33084853Y-31175646D01*
X33183456Y-31323216D01*
X33251376Y-31487188D01*
X33286000Y-31661259D01*
X33286000Y-31838741D01*
X33251376Y-32012812D01*
X33183456Y-32176784D01*
X33084853Y-32324354D01*
X32959354Y-32449853D01*
X32811784Y-32548456D01*
X32647812Y-32616376D01*
X32498512Y-32646073D01*
X32473742Y-32651000D01*
X32296258Y-32651000D01*
X32271488Y-32646073D01*
X32122188Y-32616376D01*
X31958216Y-32548456D01*
X31810646Y-32449853D01*
X31685147Y-32324354D01*
X31586544Y-32176784D01*
X31518624Y-32012812D01*
X31484000Y-31838741D01*
X31484000Y-31661259D01*
X31518624Y-31487188D01*
X31586544Y-31323216D01*
X31685147Y-31175646D01*
X31810646Y-31050147D01*
X31958216Y-30951544D01*
X32122188Y-30883624D01*
X32284947Y-30851250D01*
X32296258Y-30849000D01*
X32473742Y-30849000D01*
X32485053Y-30851250D01*
G37*
G36*
X29945053Y-30851250D02*
G01*
X30107812Y-30883624D01*
X30271784Y-30951544D01*
X30419354Y-31050147D01*
X30544853Y-31175646D01*
X30643456Y-31323216D01*
X30711376Y-31487188D01*
X30746000Y-31661259D01*
X30746000Y-31838741D01*
X30711376Y-32012812D01*
X30643456Y-32176784D01*
X30544853Y-32324354D01*
X30419354Y-32449853D01*
X30271784Y-32548456D01*
X30107812Y-32616376D01*
X29958512Y-32646073D01*
X29933742Y-32651000D01*
X29756258Y-32651000D01*
X29731488Y-32646073D01*
X29582188Y-32616376D01*
X29418216Y-32548456D01*
X29270646Y-32449853D01*
X29145147Y-32324354D01*
X29046544Y-32176784D01*
X28978624Y-32012812D01*
X28944000Y-31838741D01*
X28944000Y-31661259D01*
X28978624Y-31487188D01*
X29046544Y-31323216D01*
X29145147Y-31175646D01*
X29270646Y-31050147D01*
X29418216Y-30951544D01*
X29582188Y-30883624D01*
X29744947Y-30851250D01*
X29756258Y-30849000D01*
X29933742Y-30849000D01*
X29945053Y-30851250D01*
G37*
G36*
X78853512Y-30218927D02*
G01*
X79002812Y-30248624D01*
X79166784Y-30316544D01*
X79314354Y-30415147D01*
X79439853Y-30540646D01*
X79538456Y-30688216D01*
X79606376Y-30852188D01*
X79641000Y-31026259D01*
X79641000Y-31203741D01*
X79606376Y-31377812D01*
X79538456Y-31541784D01*
X79439853Y-31689354D01*
X79314354Y-31814853D01*
X79166784Y-31913456D01*
X79002812Y-31981376D01*
X78853512Y-32011073D01*
X78828742Y-32016000D01*
X78651258Y-32016000D01*
X78626488Y-32011073D01*
X78477188Y-31981376D01*
X78313216Y-31913456D01*
X78165646Y-31814853D01*
X78040147Y-31689354D01*
X77941544Y-31541784D01*
X77873624Y-31377812D01*
X77839000Y-31203741D01*
X77839000Y-31026259D01*
X77873624Y-30852188D01*
X77941544Y-30688216D01*
X78040147Y-30540646D01*
X78165646Y-30415147D01*
X78313216Y-30316544D01*
X78477188Y-30248624D01*
X78626488Y-30218927D01*
X78651258Y-30214000D01*
X78828742Y-30214000D01*
X78853512Y-30218927D01*
G37*
G36*
X72503512Y-30218927D02*
G01*
X72652812Y-30248624D01*
X72816784Y-30316544D01*
X72964354Y-30415147D01*
X73089853Y-30540646D01*
X73188456Y-30688216D01*
X73256376Y-30852188D01*
X73291000Y-31026259D01*
X73291000Y-31203741D01*
X73256376Y-31377812D01*
X73188456Y-31541784D01*
X73089853Y-31689354D01*
X72964354Y-31814853D01*
X72816784Y-31913456D01*
X72652812Y-31981376D01*
X72503512Y-32011073D01*
X72478742Y-32016000D01*
X72301258Y-32016000D01*
X72276488Y-32011073D01*
X72127188Y-31981376D01*
X71963216Y-31913456D01*
X71815646Y-31814853D01*
X71690147Y-31689354D01*
X71591544Y-31541784D01*
X71523624Y-31377812D01*
X71489000Y-31203741D01*
X71489000Y-31026259D01*
X71523624Y-30852188D01*
X71591544Y-30688216D01*
X71690147Y-30540646D01*
X71815646Y-30415147D01*
X71963216Y-30316544D01*
X72127188Y-30248624D01*
X72276488Y-30218927D01*
X72301258Y-30214000D01*
X72478742Y-30214000D01*
X72503512Y-30218927D01*
G37*
G36*
X69963512Y-30218927D02*
G01*
X70112812Y-30248624D01*
X70276784Y-30316544D01*
X70424354Y-30415147D01*
X70549853Y-30540646D01*
X70648456Y-30688216D01*
X70716376Y-30852188D01*
X70751000Y-31026259D01*
X70751000Y-31203741D01*
X70716376Y-31377812D01*
X70648456Y-31541784D01*
X70549853Y-31689354D01*
X70424354Y-31814853D01*
X70276784Y-31913456D01*
X70112812Y-31981376D01*
X69963512Y-32011073D01*
X69938742Y-32016000D01*
X69761258Y-32016000D01*
X69736488Y-32011073D01*
X69587188Y-31981376D01*
X69423216Y-31913456D01*
X69275646Y-31814853D01*
X69150147Y-31689354D01*
X69051544Y-31541784D01*
X68983624Y-31377812D01*
X68949000Y-31203741D01*
X68949000Y-31026259D01*
X68983624Y-30852188D01*
X69051544Y-30688216D01*
X69150147Y-30540646D01*
X69275646Y-30415147D01*
X69423216Y-30316544D01*
X69587188Y-30248624D01*
X69736488Y-30218927D01*
X69761258Y-30214000D01*
X69938742Y-30214000D01*
X69963512Y-30218927D01*
G37*
G36*
X66151000Y-31169000D02*
G01*
X64999000Y-31169000D01*
X64999000Y-30417000D01*
X66151000Y-30417000D01*
X66151000Y-31169000D01*
G37*
G36*
X62001000Y-31169000D02*
G01*
X60849000Y-31169000D01*
X60849000Y-30417000D01*
X62001000Y-30417000D01*
X62001000Y-31169000D01*
G37*
G36*
X59031000Y-31151000D02*
G01*
X57729000Y-31151000D01*
X57729000Y-30449000D01*
X59031000Y-30449000D01*
X59031000Y-31151000D01*
G37*
G36*
X76452591Y-30122585D02*
G01*
X76486569Y-30132893D01*
X76517890Y-30149634D01*
X76545339Y-30172161D01*
X76567866Y-30199610D01*
X76584607Y-30230931D01*
X76594915Y-30264909D01*
X76599000Y-30306390D01*
X76599000Y-30907610D01*
X76594915Y-30949091D01*
X76584607Y-30983069D01*
X76567866Y-31014390D01*
X76545339Y-31041839D01*
X76517890Y-31064366D01*
X76486569Y-31081107D01*
X76452591Y-31091415D01*
X76411110Y-31095500D01*
X75734890Y-31095500D01*
X75693409Y-31091415D01*
X75659431Y-31081107D01*
X75628110Y-31064366D01*
X75600661Y-31041839D01*
X75578134Y-31014390D01*
X75561393Y-30983069D01*
X75551085Y-30949091D01*
X75547000Y-30907610D01*
X75547000Y-30306390D01*
X75551085Y-30264909D01*
X75561393Y-30230931D01*
X75578134Y-30199610D01*
X75600661Y-30172161D01*
X75628110Y-30149634D01*
X75659431Y-30132893D01*
X75693409Y-30122585D01*
X75734890Y-30118500D01*
X76411110Y-30118500D01*
X76452591Y-30122585D01*
G37*
G36*
X53004928Y-30131764D02*
G01*
X53026009Y-30138160D01*
X53045445Y-30148548D01*
X53062476Y-30162524D01*
X53076452Y-30179555D01*
X53086840Y-30198991D01*
X53093236Y-30220072D01*
X53096000Y-30248140D01*
X53096000Y-30711860D01*
X53093236Y-30739928D01*
X53086840Y-30761009D01*
X53076452Y-30780445D01*
X53062476Y-30797476D01*
X53045445Y-30811452D01*
X53026009Y-30821840D01*
X53004928Y-30828236D01*
X52976860Y-30831000D01*
X51163140Y-30831000D01*
X51135072Y-30828236D01*
X51113991Y-30821840D01*
X51094555Y-30811452D01*
X51077524Y-30797476D01*
X51063548Y-30780445D01*
X51053160Y-30761009D01*
X51046764Y-30739928D01*
X51044000Y-30711860D01*
X51044000Y-30248140D01*
X51046764Y-30220072D01*
X51053160Y-30198991D01*
X51063548Y-30179555D01*
X51077524Y-30162524D01*
X51094555Y-30148548D01*
X51113991Y-30138160D01*
X51135072Y-30131764D01*
X51163140Y-30129000D01*
X52976860Y-30129000D01*
X53004928Y-30131764D01*
G37*
G36*
X48054928Y-30131764D02*
G01*
X48076009Y-30138160D01*
X48095445Y-30148548D01*
X48112476Y-30162524D01*
X48126452Y-30179555D01*
X48136840Y-30198991D01*
X48143236Y-30220072D01*
X48146000Y-30248140D01*
X48146000Y-30711860D01*
X48143236Y-30739928D01*
X48136840Y-30761009D01*
X48126452Y-30780445D01*
X48112476Y-30797476D01*
X48095445Y-30811452D01*
X48076009Y-30821840D01*
X48054928Y-30828236D01*
X48026860Y-30831000D01*
X46213140Y-30831000D01*
X46185072Y-30828236D01*
X46163991Y-30821840D01*
X46144555Y-30811452D01*
X46127524Y-30797476D01*
X46113548Y-30780445D01*
X46103160Y-30761009D01*
X46096764Y-30739928D01*
X46094000Y-30711860D01*
X46094000Y-30248140D01*
X46096764Y-30220072D01*
X46103160Y-30198991D01*
X46113548Y-30179555D01*
X46127524Y-30162524D01*
X46144555Y-30148548D01*
X46163991Y-30138160D01*
X46185072Y-30131764D01*
X46213140Y-30129000D01*
X48026860Y-30129000D01*
X48054928Y-30131764D01*
G37*
G36*
X43801591Y-29323085D02*
G01*
X43835569Y-29333393D01*
X43866890Y-29350134D01*
X43894339Y-29372661D01*
X43916866Y-29400110D01*
X43933607Y-29431431D01*
X43943915Y-29465409D01*
X43948000Y-29506890D01*
X43948000Y-30183110D01*
X43943915Y-30224591D01*
X43933607Y-30258569D01*
X43916866Y-30289890D01*
X43894339Y-30317339D01*
X43866890Y-30339866D01*
X43835569Y-30356607D01*
X43801591Y-30366915D01*
X43760110Y-30371000D01*
X43158890Y-30371000D01*
X43117409Y-30366915D01*
X43083431Y-30356607D01*
X43052110Y-30339866D01*
X43024661Y-30317339D01*
X43002134Y-30289890D01*
X42985393Y-30258569D01*
X42975085Y-30224591D01*
X42971000Y-30183110D01*
X42971000Y-29506890D01*
X42975085Y-29465409D01*
X42985393Y-29431431D01*
X43002134Y-29400110D01*
X43024661Y-29372661D01*
X43052110Y-29350134D01*
X43083431Y-29333393D01*
X43117409Y-29323085D01*
X43158890Y-29319000D01*
X43760110Y-29319000D01*
X43801591Y-29323085D01*
G37*
G36*
X42226591Y-29323085D02*
G01*
X42260569Y-29333393D01*
X42291890Y-29350134D01*
X42319339Y-29372661D01*
X42341866Y-29400110D01*
X42358607Y-29431431D01*
X42368915Y-29465409D01*
X42373000Y-29506890D01*
X42373000Y-30183110D01*
X42368915Y-30224591D01*
X42358607Y-30258569D01*
X42341866Y-30289890D01*
X42319339Y-30317339D01*
X42291890Y-30339866D01*
X42260569Y-30356607D01*
X42226591Y-30366915D01*
X42185110Y-30371000D01*
X41583890Y-30371000D01*
X41542409Y-30366915D01*
X41508431Y-30356607D01*
X41477110Y-30339866D01*
X41449661Y-30317339D01*
X41427134Y-30289890D01*
X41410393Y-30258569D01*
X41400085Y-30224591D01*
X41396000Y-30183110D01*
X41396000Y-29506890D01*
X41400085Y-29465409D01*
X41410393Y-29431431D01*
X41427134Y-29400110D01*
X41449661Y-29372661D01*
X41477110Y-29350134D01*
X41508431Y-29333393D01*
X41542409Y-29323085D01*
X41583890Y-29319000D01*
X42185110Y-29319000D01*
X42226591Y-29323085D01*
G37*
G36*
X39284000Y-30196000D02*
G01*
X37932000Y-30196000D01*
X37932000Y-29494000D01*
X39284000Y-29494000D01*
X39284000Y-30196000D01*
G37*
G36*
X36784000Y-30196000D02*
G01*
X35432000Y-30196000D01*
X35432000Y-27594000D01*
X36784000Y-27594000D01*
X36784000Y-30196000D01*
G37*
G36*
X32489769Y-28312188D02*
G01*
X32647812Y-28343624D01*
X32811784Y-28411544D01*
X32959354Y-28510147D01*
X33084853Y-28635646D01*
X33183456Y-28783216D01*
X33251376Y-28947188D01*
X33268743Y-29034500D01*
X33286000Y-29121258D01*
X33286000Y-29298742D01*
X33281970Y-29319000D01*
X33251376Y-29472812D01*
X33183456Y-29636784D01*
X33084853Y-29784354D01*
X32959354Y-29909853D01*
X32811784Y-30008456D01*
X32647812Y-30076376D01*
X32498512Y-30106073D01*
X32473742Y-30111000D01*
X32296258Y-30111000D01*
X32271488Y-30106073D01*
X32122188Y-30076376D01*
X31958216Y-30008456D01*
X31810646Y-29909853D01*
X31685147Y-29784354D01*
X31586544Y-29636784D01*
X31518624Y-29472812D01*
X31488030Y-29319000D01*
X31484000Y-29298742D01*
X31484000Y-29121258D01*
X31501257Y-29034500D01*
X31518624Y-28947188D01*
X31586544Y-28783216D01*
X31685147Y-28635646D01*
X31810646Y-28510147D01*
X31958216Y-28411544D01*
X32122188Y-28343624D01*
X32280231Y-28312188D01*
X32296258Y-28309000D01*
X32473742Y-28309000D01*
X32489769Y-28312188D01*
G37*
G36*
X29949769Y-28312188D02*
G01*
X30107812Y-28343624D01*
X30271784Y-28411544D01*
X30419354Y-28510147D01*
X30544853Y-28635646D01*
X30643456Y-28783216D01*
X30711376Y-28947188D01*
X30728743Y-29034500D01*
X30746000Y-29121258D01*
X30746000Y-29298742D01*
X30741970Y-29319000D01*
X30711376Y-29472812D01*
X30643456Y-29636784D01*
X30544853Y-29784354D01*
X30419354Y-29909853D01*
X30271784Y-30008456D01*
X30107812Y-30076376D01*
X29958512Y-30106073D01*
X29933742Y-30111000D01*
X29756258Y-30111000D01*
X29731488Y-30106073D01*
X29582188Y-30076376D01*
X29418216Y-30008456D01*
X29270646Y-29909853D01*
X29145147Y-29784354D01*
X29046544Y-29636784D01*
X28978624Y-29472812D01*
X28948030Y-29319000D01*
X28944000Y-29298742D01*
X28944000Y-29121258D01*
X28961257Y-29034500D01*
X28978624Y-28947188D01*
X29046544Y-28783216D01*
X29145147Y-28635646D01*
X29270646Y-28510147D01*
X29418216Y-28411544D01*
X29582188Y-28343624D01*
X29740231Y-28312188D01*
X29756258Y-28309000D01*
X29933742Y-28309000D01*
X29949769Y-28312188D01*
G37*
G36*
X26139769Y-28312188D02*
G01*
X26297812Y-28343624D01*
X26461784Y-28411544D01*
X26609354Y-28510147D01*
X26734853Y-28635646D01*
X26833456Y-28783216D01*
X26901376Y-28947188D01*
X26918743Y-29034500D01*
X26936000Y-29121258D01*
X26936000Y-29298742D01*
X26931970Y-29319000D01*
X26901376Y-29472812D01*
X26833456Y-29636784D01*
X26734853Y-29784354D01*
X26609354Y-29909853D01*
X26461784Y-30008456D01*
X26297812Y-30076376D01*
X26148512Y-30106073D01*
X26123742Y-30111000D01*
X25946258Y-30111000D01*
X25921488Y-30106073D01*
X25772188Y-30076376D01*
X25608216Y-30008456D01*
X25460646Y-29909853D01*
X25335147Y-29784354D01*
X25236544Y-29636784D01*
X25168624Y-29472812D01*
X25138030Y-29319000D01*
X25134000Y-29298742D01*
X25134000Y-29121258D01*
X25151257Y-29034500D01*
X25168624Y-28947188D01*
X25236544Y-28783216D01*
X25335147Y-28635646D01*
X25460646Y-28510147D01*
X25608216Y-28411544D01*
X25772188Y-28343624D01*
X25930231Y-28312188D01*
X25946258Y-28309000D01*
X26123742Y-28309000D01*
X26139769Y-28312188D01*
G37*
G36*
X53004928Y-28861764D02*
G01*
X53026009Y-28868160D01*
X53045445Y-28878548D01*
X53062476Y-28892524D01*
X53076452Y-28909555D01*
X53086840Y-28928991D01*
X53093236Y-28950072D01*
X53096000Y-28978140D01*
X53096000Y-29441860D01*
X53093236Y-29469928D01*
X53086840Y-29491009D01*
X53076452Y-29510445D01*
X53062476Y-29527476D01*
X53045445Y-29541452D01*
X53026009Y-29551840D01*
X53004928Y-29558236D01*
X52976860Y-29561000D01*
X51163140Y-29561000D01*
X51135072Y-29558236D01*
X51113991Y-29551840D01*
X51094555Y-29541452D01*
X51077524Y-29527476D01*
X51063548Y-29510445D01*
X51053160Y-29491009D01*
X51046764Y-29469928D01*
X51044000Y-29441860D01*
X51044000Y-28978140D01*
X51046764Y-28950072D01*
X51053160Y-28928991D01*
X51063548Y-28909555D01*
X51077524Y-28892524D01*
X51094555Y-28878548D01*
X51113991Y-28868160D01*
X51135072Y-28861764D01*
X51163140Y-28859000D01*
X52976860Y-28859000D01*
X53004928Y-28861764D01*
G37*
G36*
X48054928Y-28861764D02*
G01*
X48076009Y-28868160D01*
X48095445Y-28878548D01*
X48112476Y-28892524D01*
X48126452Y-28909555D01*
X48136840Y-28928991D01*
X48143236Y-28950072D01*
X48146000Y-28978140D01*
X48146000Y-29441860D01*
X48143236Y-29469928D01*
X48136840Y-29491009D01*
X48126452Y-29510445D01*
X48112476Y-29527476D01*
X48095445Y-29541452D01*
X48076009Y-29551840D01*
X48054928Y-29558236D01*
X48026860Y-29561000D01*
X46213140Y-29561000D01*
X46185072Y-29558236D01*
X46163991Y-29551840D01*
X46144555Y-29541452D01*
X46127524Y-29527476D01*
X46113548Y-29510445D01*
X46103160Y-29491009D01*
X46096764Y-29469928D01*
X46094000Y-29441860D01*
X46094000Y-28978140D01*
X46096764Y-28950072D01*
X46103160Y-28928991D01*
X46113548Y-28909555D01*
X46127524Y-28892524D01*
X46144555Y-28878548D01*
X46163991Y-28868160D01*
X46185072Y-28861764D01*
X46213140Y-28859000D01*
X48026860Y-28859000D01*
X48054928Y-28861764D01*
G37*
G36*
X76452591Y-28547585D02*
G01*
X76486569Y-28557893D01*
X76517890Y-28574634D01*
X76545339Y-28597161D01*
X76567866Y-28624610D01*
X76584607Y-28655931D01*
X76594915Y-28689909D01*
X76599000Y-28731390D01*
X76599000Y-29332610D01*
X76594915Y-29374091D01*
X76584607Y-29408069D01*
X76567866Y-29439390D01*
X76545339Y-29466839D01*
X76517890Y-29489366D01*
X76486569Y-29506107D01*
X76452591Y-29516415D01*
X76411110Y-29520500D01*
X75734890Y-29520500D01*
X75693409Y-29516415D01*
X75659431Y-29506107D01*
X75628110Y-29489366D01*
X75600661Y-29466839D01*
X75578134Y-29439390D01*
X75561393Y-29408069D01*
X75551085Y-29374091D01*
X75547000Y-29332610D01*
X75547000Y-28731390D01*
X75551085Y-28689909D01*
X75561393Y-28655931D01*
X75578134Y-28624610D01*
X75600661Y-28597161D01*
X75628110Y-28574634D01*
X75659431Y-28557893D01*
X75693409Y-28547585D01*
X75734890Y-28543500D01*
X76411110Y-28543500D01*
X76452591Y-28547585D01*
G37*
G36*
X69963512Y-27678927D02*
G01*
X70112812Y-27708624D01*
X70276784Y-27776544D01*
X70424354Y-27875147D01*
X70549853Y-28000646D01*
X70648456Y-28148216D01*
X70716376Y-28312188D01*
X70751000Y-28486259D01*
X70751000Y-28663741D01*
X70716376Y-28837812D01*
X70648456Y-29001784D01*
X70549853Y-29149354D01*
X70424354Y-29274853D01*
X70276784Y-29373456D01*
X70112812Y-29441376D01*
X69970012Y-29469780D01*
X69938742Y-29476000D01*
X69761258Y-29476000D01*
X69729988Y-29469780D01*
X69587188Y-29441376D01*
X69423216Y-29373456D01*
X69275646Y-29274853D01*
X69150147Y-29149354D01*
X69051544Y-29001784D01*
X68983624Y-28837812D01*
X68949000Y-28663741D01*
X68949000Y-28486259D01*
X68983624Y-28312188D01*
X69051544Y-28148216D01*
X69150147Y-28000646D01*
X69275646Y-27875147D01*
X69423216Y-27776544D01*
X69587188Y-27708624D01*
X69736488Y-27678927D01*
X69761258Y-27674000D01*
X69938742Y-27674000D01*
X69963512Y-27678927D01*
G37*
G36*
X72503512Y-27678927D02*
G01*
X72652812Y-27708624D01*
X72816784Y-27776544D01*
X72964354Y-27875147D01*
X73089853Y-28000646D01*
X73188456Y-28148216D01*
X73256376Y-28312188D01*
X73291000Y-28486259D01*
X73291000Y-28663741D01*
X73256376Y-28837812D01*
X73188456Y-29001784D01*
X73089853Y-29149354D01*
X72964354Y-29274853D01*
X72816784Y-29373456D01*
X72652812Y-29441376D01*
X72510012Y-29469780D01*
X72478742Y-29476000D01*
X72301258Y-29476000D01*
X72269988Y-29469780D01*
X72127188Y-29441376D01*
X71963216Y-29373456D01*
X71815646Y-29274853D01*
X71690147Y-29149354D01*
X71591544Y-29001784D01*
X71523624Y-28837812D01*
X71489000Y-28663741D01*
X71489000Y-28486259D01*
X71523624Y-28312188D01*
X71591544Y-28148216D01*
X71690147Y-28000646D01*
X71815646Y-27875147D01*
X71963216Y-27776544D01*
X72127188Y-27708624D01*
X72276488Y-27678927D01*
X72301258Y-27674000D01*
X72478742Y-27674000D01*
X72503512Y-27678927D01*
G37*
G36*
X78853512Y-27678927D02*
G01*
X79002812Y-27708624D01*
X79166784Y-27776544D01*
X79314354Y-27875147D01*
X79439853Y-28000646D01*
X79538456Y-28148216D01*
X79606376Y-28312188D01*
X79641000Y-28486259D01*
X79641000Y-28663741D01*
X79606376Y-28837812D01*
X79538456Y-29001784D01*
X79439853Y-29149354D01*
X79314354Y-29274853D01*
X79166784Y-29373456D01*
X79002812Y-29441376D01*
X78860012Y-29469780D01*
X78828742Y-29476000D01*
X78651258Y-29476000D01*
X78619988Y-29469780D01*
X78477188Y-29441376D01*
X78313216Y-29373456D01*
X78165646Y-29274853D01*
X78040147Y-29149354D01*
X77941544Y-29001784D01*
X77873624Y-28837812D01*
X77839000Y-28663741D01*
X77839000Y-28486259D01*
X77873624Y-28312188D01*
X77941544Y-28148216D01*
X78040147Y-28000646D01*
X78165646Y-27875147D01*
X78313216Y-27776544D01*
X78477188Y-27708624D01*
X78626488Y-27678927D01*
X78651258Y-27674000D01*
X78828742Y-27674000D01*
X78853512Y-27678927D01*
G37*
G36*
X56044091Y-28307085D02*
G01*
X56078069Y-28317393D01*
X56109390Y-28334134D01*
X56136839Y-28356661D01*
X56159366Y-28384110D01*
X56176107Y-28415431D01*
X56186415Y-28449409D01*
X56190500Y-28490890D01*
X56190500Y-29167110D01*
X56186415Y-29208591D01*
X56176107Y-29242569D01*
X56159366Y-29273890D01*
X56136839Y-29301339D01*
X56109390Y-29323866D01*
X56078069Y-29340607D01*
X56044091Y-29350915D01*
X56002610Y-29355000D01*
X55401390Y-29355000D01*
X55359909Y-29350915D01*
X55325931Y-29340607D01*
X55294610Y-29323866D01*
X55267161Y-29301339D01*
X55244634Y-29273890D01*
X55227893Y-29242569D01*
X55217585Y-29208591D01*
X55213500Y-29167110D01*
X55213500Y-28490890D01*
X55217585Y-28449409D01*
X55227893Y-28415431D01*
X55244634Y-28384110D01*
X55267161Y-28356661D01*
X55294610Y-28334134D01*
X55325931Y-28317393D01*
X55359909Y-28307085D01*
X55401390Y-28303000D01*
X56002610Y-28303000D01*
X56044091Y-28307085D01*
G37*
G36*
X57619091Y-28307085D02*
G01*
X57653069Y-28317393D01*
X57684390Y-28334134D01*
X57711839Y-28356661D01*
X57734366Y-28384110D01*
X57751107Y-28415431D01*
X57761415Y-28449409D01*
X57765500Y-28490890D01*
X57765500Y-29167110D01*
X57761415Y-29208591D01*
X57751107Y-29242569D01*
X57734366Y-29273890D01*
X57711839Y-29301339D01*
X57684390Y-29323866D01*
X57653069Y-29340607D01*
X57619091Y-29350915D01*
X57577610Y-29355000D01*
X56976390Y-29355000D01*
X56934909Y-29350915D01*
X56900931Y-29340607D01*
X56869610Y-29323866D01*
X56842161Y-29301339D01*
X56819634Y-29273890D01*
X56802893Y-29242569D01*
X56792585Y-29208591D01*
X56788500Y-29167110D01*
X56788500Y-28490890D01*
X56792585Y-28449409D01*
X56802893Y-28415431D01*
X56819634Y-28384110D01*
X56842161Y-28356661D01*
X56869610Y-28334134D01*
X56900931Y-28317393D01*
X56934909Y-28307085D01*
X56976390Y-28303000D01*
X57577610Y-28303000D01*
X57619091Y-28307085D01*
G37*
G36*
X66151000Y-29019000D02*
G01*
X64999000Y-29019000D01*
X64999000Y-28267000D01*
X66151000Y-28267000D01*
X66151000Y-29019000D01*
G37*
G36*
X62001000Y-29019000D02*
G01*
X60849000Y-29019000D01*
X60849000Y-28267000D01*
X62001000Y-28267000D01*
X62001000Y-29019000D01*
G37*
G36*
X39284000Y-28296000D02*
G01*
X37932000Y-28296000D01*
X37932000Y-27594000D01*
X39284000Y-27594000D01*
X39284000Y-28296000D01*
G37*
G36*
X48054928Y-27591764D02*
G01*
X48076009Y-27598160D01*
X48095445Y-27608548D01*
X48112476Y-27622524D01*
X48126452Y-27639555D01*
X48136840Y-27658991D01*
X48143236Y-27680072D01*
X48146000Y-27708140D01*
X48146000Y-28171860D01*
X48143236Y-28199928D01*
X48136840Y-28221009D01*
X48126452Y-28240445D01*
X48112476Y-28257476D01*
X48095445Y-28271452D01*
X48076009Y-28281840D01*
X48054928Y-28288236D01*
X48026860Y-28291000D01*
X46213140Y-28291000D01*
X46185072Y-28288236D01*
X46163991Y-28281840D01*
X46144555Y-28271452D01*
X46127524Y-28257476D01*
X46113548Y-28240445D01*
X46103160Y-28221009D01*
X46096764Y-28199928D01*
X46094000Y-28171860D01*
X46094000Y-27708140D01*
X46096764Y-27680072D01*
X46103160Y-27658991D01*
X46113548Y-27639555D01*
X46127524Y-27622524D01*
X46144555Y-27608548D01*
X46163991Y-27598160D01*
X46185072Y-27591764D01*
X46213140Y-27589000D01*
X48026860Y-27589000D01*
X48054928Y-27591764D01*
G37*
G36*
X53004928Y-27591764D02*
G01*
X53026009Y-27598160D01*
X53045445Y-27608548D01*
X53062476Y-27622524D01*
X53076452Y-27639555D01*
X53086840Y-27658991D01*
X53093236Y-27680072D01*
X53096000Y-27708140D01*
X53096000Y-28171860D01*
X53093236Y-28199928D01*
X53086840Y-28221009D01*
X53076452Y-28240445D01*
X53062476Y-28257476D01*
X53045445Y-28271452D01*
X53026009Y-28281840D01*
X53004928Y-28288236D01*
X52976860Y-28291000D01*
X51163140Y-28291000D01*
X51135072Y-28288236D01*
X51113991Y-28281840D01*
X51094555Y-28271452D01*
X51077524Y-28257476D01*
X51063548Y-28240445D01*
X51053160Y-28221009D01*
X51046764Y-28199928D01*
X51044000Y-28171860D01*
X51044000Y-27708140D01*
X51046764Y-27680072D01*
X51053160Y-27658991D01*
X51063548Y-27639555D01*
X51077524Y-27622524D01*
X51094555Y-27608548D01*
X51113991Y-27598160D01*
X51135072Y-27591764D01*
X51163140Y-27589000D01*
X52976860Y-27589000D01*
X53004928Y-27591764D01*
G37*
G36*
X43801591Y-26783085D02*
G01*
X43835569Y-26793393D01*
X43866890Y-26810134D01*
X43894339Y-26832661D01*
X43916866Y-26860110D01*
X43933607Y-26891431D01*
X43943915Y-26925409D01*
X43948000Y-26966890D01*
X43948000Y-27643110D01*
X43943915Y-27684591D01*
X43933607Y-27718569D01*
X43916866Y-27749890D01*
X43894339Y-27777339D01*
X43866890Y-27799866D01*
X43835569Y-27816607D01*
X43801591Y-27826915D01*
X43760110Y-27831000D01*
X43158890Y-27831000D01*
X43117409Y-27826915D01*
X43083431Y-27816607D01*
X43052110Y-27799866D01*
X43024661Y-27777339D01*
X43002134Y-27749890D01*
X42985393Y-27718569D01*
X42975085Y-27684591D01*
X42971000Y-27643110D01*
X42971000Y-26966890D01*
X42975085Y-26925409D01*
X42985393Y-26891431D01*
X43002134Y-26860110D01*
X43024661Y-26832661D01*
X43052110Y-26810134D01*
X43083431Y-26793393D01*
X43117409Y-26783085D01*
X43158890Y-26779000D01*
X43760110Y-26779000D01*
X43801591Y-26783085D01*
G37*
G36*
X42226591Y-26783085D02*
G01*
X42260569Y-26793393D01*
X42291890Y-26810134D01*
X42319339Y-26832661D01*
X42341866Y-26860110D01*
X42358607Y-26891431D01*
X42368915Y-26925409D01*
X42373000Y-26966890D01*
X42373000Y-27643110D01*
X42368915Y-27684591D01*
X42358607Y-27718569D01*
X42341866Y-27749890D01*
X42319339Y-27777339D01*
X42291890Y-27799866D01*
X42260569Y-27816607D01*
X42226591Y-27826915D01*
X42185110Y-27831000D01*
X41583890Y-27831000D01*
X41542409Y-27826915D01*
X41508431Y-27816607D01*
X41477110Y-27799866D01*
X41449661Y-27777339D01*
X41427134Y-27749890D01*
X41410393Y-27718569D01*
X41400085Y-27684591D01*
X41396000Y-27643110D01*
X41396000Y-26966890D01*
X41400085Y-26925409D01*
X41410393Y-26891431D01*
X41427134Y-26860110D01*
X41449661Y-26832661D01*
X41477110Y-26810134D01*
X41508431Y-26793393D01*
X41542409Y-26783085D01*
X41583890Y-26779000D01*
X42185110Y-26779000D01*
X42226591Y-26783085D01*
G37*
G36*
X56044091Y-26275085D02*
G01*
X56078069Y-26285393D01*
X56109390Y-26302134D01*
X56136839Y-26324661D01*
X56159366Y-26352110D01*
X56176107Y-26383431D01*
X56186415Y-26417409D01*
X56190500Y-26458890D01*
X56190500Y-27135110D01*
X56186415Y-27176591D01*
X56176107Y-27210569D01*
X56159366Y-27241890D01*
X56136839Y-27269339D01*
X56109390Y-27291866D01*
X56078069Y-27308607D01*
X56044091Y-27318915D01*
X56002610Y-27323000D01*
X55401390Y-27323000D01*
X55359909Y-27318915D01*
X55325931Y-27308607D01*
X55294610Y-27291866D01*
X55267161Y-27269339D01*
X55244634Y-27241890D01*
X55227893Y-27210569D01*
X55217585Y-27176591D01*
X55213500Y-27135110D01*
X55213500Y-26458890D01*
X55217585Y-26417409D01*
X55227893Y-26383431D01*
X55244634Y-26352110D01*
X55267161Y-26324661D01*
X55294610Y-26302134D01*
X55325931Y-26285393D01*
X55359909Y-26275085D01*
X55401390Y-26271000D01*
X56002610Y-26271000D01*
X56044091Y-26275085D01*
G37*
G36*
X57619091Y-26275085D02*
G01*
X57653069Y-26285393D01*
X57684390Y-26302134D01*
X57711839Y-26324661D01*
X57734366Y-26352110D01*
X57751107Y-26383431D01*
X57761415Y-26417409D01*
X57765500Y-26458890D01*
X57765500Y-27135110D01*
X57761415Y-27176591D01*
X57751107Y-27210569D01*
X57734366Y-27241890D01*
X57711839Y-27269339D01*
X57684390Y-27291866D01*
X57653069Y-27308607D01*
X57619091Y-27318915D01*
X57577610Y-27323000D01*
X56976390Y-27323000D01*
X56934909Y-27318915D01*
X56900931Y-27308607D01*
X56869610Y-27291866D01*
X56842161Y-27269339D01*
X56819634Y-27241890D01*
X56802893Y-27210569D01*
X56792585Y-27176591D01*
X56788500Y-27135110D01*
X56788500Y-26458890D01*
X56792585Y-26417409D01*
X56802893Y-26383431D01*
X56819634Y-26352110D01*
X56842161Y-26324661D01*
X56869610Y-26302134D01*
X56900931Y-26285393D01*
X56934909Y-26275085D01*
X56976390Y-26271000D01*
X57577610Y-26271000D01*
X57619091Y-26275085D01*
G37*
G36*
X53004928Y-26321764D02*
G01*
X53026009Y-26328160D01*
X53045445Y-26338548D01*
X53062476Y-26352524D01*
X53076452Y-26369555D01*
X53086840Y-26388991D01*
X53093236Y-26410072D01*
X53096000Y-26438140D01*
X53096000Y-26901860D01*
X53093236Y-26929928D01*
X53086840Y-26951009D01*
X53076452Y-26970445D01*
X53062476Y-26987476D01*
X53045445Y-27001452D01*
X53026009Y-27011840D01*
X53004928Y-27018236D01*
X52976860Y-27021000D01*
X51163140Y-27021000D01*
X51135072Y-27018236D01*
X51113991Y-27011840D01*
X51094555Y-27001452D01*
X51077524Y-26987476D01*
X51063548Y-26970445D01*
X51053160Y-26951009D01*
X51046764Y-26929928D01*
X51044000Y-26901860D01*
X51044000Y-26438140D01*
X51046764Y-26410072D01*
X51053160Y-26388991D01*
X51063548Y-26369555D01*
X51077524Y-26352524D01*
X51094555Y-26338548D01*
X51113991Y-26328160D01*
X51135072Y-26321764D01*
X51163140Y-26319000D01*
X52976860Y-26319000D01*
X53004928Y-26321764D01*
G37*
G36*
X48054928Y-26321764D02*
G01*
X48076009Y-26328160D01*
X48095445Y-26338548D01*
X48112476Y-26352524D01*
X48126452Y-26369555D01*
X48136840Y-26388991D01*
X48143236Y-26410072D01*
X48146000Y-26438140D01*
X48146000Y-26901860D01*
X48143236Y-26929928D01*
X48136840Y-26951009D01*
X48126452Y-26970445D01*
X48112476Y-26987476D01*
X48095445Y-27001452D01*
X48076009Y-27011840D01*
X48054928Y-27018236D01*
X48026860Y-27021000D01*
X46213140Y-27021000D01*
X46185072Y-27018236D01*
X46163991Y-27011840D01*
X46144555Y-27001452D01*
X46127524Y-26987476D01*
X46113548Y-26970445D01*
X46103160Y-26951009D01*
X46096764Y-26929928D01*
X46094000Y-26901860D01*
X46094000Y-26438140D01*
X46096764Y-26410072D01*
X46103160Y-26388991D01*
X46113548Y-26369555D01*
X46127524Y-26352524D01*
X46144555Y-26338548D01*
X46163991Y-26328160D01*
X46185072Y-26321764D01*
X46213140Y-26319000D01*
X48026860Y-26319000D01*
X48054928Y-26321764D01*
G37*
G36*
X39058604Y-23999347D02*
G01*
X39095144Y-24010432D01*
X39128821Y-24028433D01*
X39158341Y-24052659D01*
X39182567Y-24082179D01*
X39200568Y-24115856D01*
X39211653Y-24152396D01*
X39216000Y-24196538D01*
X39216000Y-26095462D01*
X39211653Y-26139604D01*
X39200568Y-26176144D01*
X39182567Y-26209821D01*
X39158341Y-26239341D01*
X39128821Y-26263567D01*
X39095144Y-26281568D01*
X39058604Y-26292653D01*
X39014462Y-26297000D01*
X38065538Y-26297000D01*
X38021396Y-26292653D01*
X37984856Y-26281568D01*
X37951179Y-26263567D01*
X37921659Y-26239341D01*
X37897433Y-26209821D01*
X37879432Y-26176144D01*
X37868347Y-26139604D01*
X37864000Y-26095462D01*
X37864000Y-24196538D01*
X37868347Y-24152396D01*
X37879432Y-24115856D01*
X37897433Y-24082179D01*
X37921659Y-24052659D01*
X37951179Y-24028433D01*
X37984856Y-24010432D01*
X38021396Y-23999347D01*
X38065538Y-23995000D01*
X39014462Y-23995000D01*
X39058604Y-23999347D01*
G37*
G36*
X36908604Y-23999347D02*
G01*
X36945144Y-24010432D01*
X36978821Y-24028433D01*
X37008341Y-24052659D01*
X37032567Y-24082179D01*
X37050568Y-24115856D01*
X37061653Y-24152396D01*
X37066000Y-24196538D01*
X37066000Y-26095462D01*
X37061653Y-26139604D01*
X37050568Y-26176144D01*
X37032567Y-26209821D01*
X37008341Y-26239341D01*
X36978821Y-26263567D01*
X36945144Y-26281568D01*
X36908604Y-26292653D01*
X36864462Y-26297000D01*
X35915538Y-26297000D01*
X35871396Y-26292653D01*
X35834856Y-26281568D01*
X35801179Y-26263567D01*
X35771659Y-26239341D01*
X35747433Y-26209821D01*
X35729432Y-26176144D01*
X35718347Y-26139604D01*
X35714000Y-26095462D01*
X35714000Y-24196538D01*
X35718347Y-24152396D01*
X35729432Y-24115856D01*
X35747433Y-24082179D01*
X35771659Y-24052659D01*
X35801179Y-24028433D01*
X35834856Y-24010432D01*
X35871396Y-23999347D01*
X35915538Y-23995000D01*
X36864462Y-23995000D01*
X36908604Y-23999347D01*
G37*
G36*
X28167290Y-23790619D02*
G01*
X28231689Y-23803429D01*
X28413678Y-23878811D01*
X28577463Y-23988249D01*
X28716751Y-24127537D01*
X28826189Y-24291322D01*
X28901571Y-24473311D01*
X28940000Y-24666509D01*
X28940000Y-24863491D01*
X28901571Y-25056689D01*
X28826189Y-25238678D01*
X28716751Y-25402463D01*
X28577463Y-25541751D01*
X28413678Y-25651189D01*
X28231689Y-25726571D01*
X28167290Y-25739381D01*
X28038493Y-25765000D01*
X27841507Y-25765000D01*
X27712710Y-25739381D01*
X27648311Y-25726571D01*
X27466322Y-25651189D01*
X27302537Y-25541751D01*
X27163249Y-25402463D01*
X27053811Y-25238678D01*
X26978429Y-25056689D01*
X26940000Y-24863491D01*
X26940000Y-24666509D01*
X26978429Y-24473311D01*
X27053811Y-24291322D01*
X27163249Y-24127537D01*
X27302537Y-23988249D01*
X27466322Y-23878811D01*
X27648311Y-23803429D01*
X27712710Y-23790619D01*
X27841507Y-23765000D01*
X28038493Y-23765000D01*
X28167290Y-23790619D01*
G37*
G36*
X74865591Y-24306585D02*
G01*
X74899569Y-24316893D01*
X74930890Y-24333634D01*
X74958339Y-24356161D01*
X74980866Y-24383610D01*
X74997607Y-24414931D01*
X75007915Y-24448909D01*
X75012000Y-24490390D01*
X75012000Y-25166610D01*
X75007915Y-25208091D01*
X74997607Y-25242069D01*
X74980866Y-25273390D01*
X74958339Y-25300839D01*
X74930890Y-25323366D01*
X74899569Y-25340107D01*
X74865591Y-25350415D01*
X74824110Y-25354500D01*
X74222890Y-25354500D01*
X74181409Y-25350415D01*
X74147431Y-25340107D01*
X74116110Y-25323366D01*
X74088661Y-25300839D01*
X74066134Y-25273390D01*
X74049393Y-25242069D01*
X74039085Y-25208091D01*
X74035000Y-25166610D01*
X74035000Y-24490390D01*
X74039085Y-24448909D01*
X74049393Y-24414931D01*
X74066134Y-24383610D01*
X74088661Y-24356161D01*
X74116110Y-24333634D01*
X74147431Y-24316893D01*
X74181409Y-24306585D01*
X74222890Y-24302500D01*
X74824110Y-24302500D01*
X74865591Y-24306585D01*
G37*
G36*
X76440591Y-24306585D02*
G01*
X76474569Y-24316893D01*
X76505890Y-24333634D01*
X76533339Y-24356161D01*
X76555866Y-24383610D01*
X76572607Y-24414931D01*
X76582915Y-24448909D01*
X76587000Y-24490390D01*
X76587000Y-25166610D01*
X76582915Y-25208091D01*
X76572607Y-25242069D01*
X76555866Y-25273390D01*
X76533339Y-25300839D01*
X76505890Y-25323366D01*
X76474569Y-25340107D01*
X76440591Y-25350415D01*
X76399110Y-25354500D01*
X75797890Y-25354500D01*
X75756409Y-25350415D01*
X75722431Y-25340107D01*
X75691110Y-25323366D01*
X75663661Y-25300839D01*
X75641134Y-25273390D01*
X75624393Y-25242069D01*
X75614085Y-25208091D01*
X75610000Y-25166610D01*
X75610000Y-24490390D01*
X75614085Y-24448909D01*
X75624393Y-24414931D01*
X75641134Y-24383610D01*
X75663661Y-24356161D01*
X75691110Y-24333634D01*
X75722431Y-24316893D01*
X75756409Y-24306585D01*
X75797890Y-24302500D01*
X76399110Y-24302500D01*
X76440591Y-24306585D01*
G37*
G36*
X70928591Y-24306585D02*
G01*
X70962569Y-24316893D01*
X70993890Y-24333634D01*
X71021339Y-24356161D01*
X71043866Y-24383610D01*
X71060607Y-24414931D01*
X71070915Y-24448909D01*
X71075000Y-24490390D01*
X71075000Y-25166610D01*
X71070915Y-25208091D01*
X71060607Y-25242069D01*
X71043866Y-25273390D01*
X71021339Y-25300839D01*
X70993890Y-25323366D01*
X70962569Y-25340107D01*
X70928591Y-25350415D01*
X70887110Y-25354500D01*
X70285890Y-25354500D01*
X70244409Y-25350415D01*
X70210431Y-25340107D01*
X70179110Y-25323366D01*
X70151661Y-25300839D01*
X70129134Y-25273390D01*
X70112393Y-25242069D01*
X70102085Y-25208091D01*
X70098000Y-25166610D01*
X70098000Y-24490390D01*
X70102085Y-24448909D01*
X70112393Y-24414931D01*
X70129134Y-24383610D01*
X70151661Y-24356161D01*
X70179110Y-24333634D01*
X70210431Y-24316893D01*
X70244409Y-24306585D01*
X70285890Y-24302500D01*
X70887110Y-24302500D01*
X70928591Y-24306585D01*
G37*
G36*
X72503591Y-24306585D02*
G01*
X72537569Y-24316893D01*
X72568890Y-24333634D01*
X72596339Y-24356161D01*
X72618866Y-24383610D01*
X72635607Y-24414931D01*
X72645915Y-24448909D01*
X72650000Y-24490390D01*
X72650000Y-25166610D01*
X72645915Y-25208091D01*
X72635607Y-25242069D01*
X72618866Y-25273390D01*
X72596339Y-25300839D01*
X72568890Y-25323366D01*
X72537569Y-25340107D01*
X72503591Y-25350415D01*
X72462110Y-25354500D01*
X71860890Y-25354500D01*
X71819409Y-25350415D01*
X71785431Y-25340107D01*
X71754110Y-25323366D01*
X71726661Y-25300839D01*
X71704134Y-25273390D01*
X71687393Y-25242069D01*
X71677085Y-25208091D01*
X71673000Y-25166610D01*
X71673000Y-24490390D01*
X71677085Y-24448909D01*
X71687393Y-24414931D01*
X71704134Y-24383610D01*
X71726661Y-24356161D01*
X71754110Y-24333634D01*
X71785431Y-24316893D01*
X71819409Y-24306585D01*
X71860890Y-24302500D01*
X72462110Y-24302500D01*
X72503591Y-24306585D01*
G37*
G36*
X57619091Y-24243085D02*
G01*
X57653069Y-24253393D01*
X57684390Y-24270134D01*
X57711839Y-24292661D01*
X57734366Y-24320110D01*
X57751107Y-24351431D01*
X57761415Y-24385409D01*
X57765500Y-24426890D01*
X57765500Y-25103110D01*
X57761415Y-25144591D01*
X57751107Y-25178569D01*
X57734366Y-25209890D01*
X57711839Y-25237339D01*
X57684390Y-25259866D01*
X57653069Y-25276607D01*
X57619091Y-25286915D01*
X57577610Y-25291000D01*
X56976390Y-25291000D01*
X56934909Y-25286915D01*
X56900931Y-25276607D01*
X56869610Y-25259866D01*
X56842161Y-25237339D01*
X56819634Y-25209890D01*
X56802893Y-25178569D01*
X56792585Y-25144591D01*
X56788500Y-25103110D01*
X56788500Y-24426890D01*
X56792585Y-24385409D01*
X56802893Y-24351431D01*
X56819634Y-24320110D01*
X56842161Y-24292661D01*
X56869610Y-24270134D01*
X56900931Y-24253393D01*
X56934909Y-24243085D01*
X56976390Y-24239000D01*
X57577610Y-24239000D01*
X57619091Y-24243085D01*
G37*
G36*
X56044091Y-24243085D02*
G01*
X56078069Y-24253393D01*
X56109390Y-24270134D01*
X56136839Y-24292661D01*
X56159366Y-24320110D01*
X56176107Y-24351431D01*
X56186415Y-24385409D01*
X56190500Y-24426890D01*
X56190500Y-25103110D01*
X56186415Y-25144591D01*
X56176107Y-25178569D01*
X56159366Y-25209890D01*
X56136839Y-25237339D01*
X56109390Y-25259866D01*
X56078069Y-25276607D01*
X56044091Y-25286915D01*
X56002610Y-25291000D01*
X55401390Y-25291000D01*
X55359909Y-25286915D01*
X55325931Y-25276607D01*
X55294610Y-25259866D01*
X55267161Y-25237339D01*
X55244634Y-25209890D01*
X55227893Y-25178569D01*
X55217585Y-25144591D01*
X55213500Y-25103110D01*
X55213500Y-24426890D01*
X55217585Y-24385409D01*
X55227893Y-24351431D01*
X55244634Y-24320110D01*
X55267161Y-24292661D01*
X55294610Y-24270134D01*
X55325931Y-24253393D01*
X55359909Y-24243085D01*
X55401390Y-24239000D01*
X56002610Y-24239000D01*
X56044091Y-24243085D01*
G37*
G36*
X64629591Y-24243085D02*
G01*
X64663569Y-24253393D01*
X64694890Y-24270134D01*
X64722339Y-24292661D01*
X64744866Y-24320110D01*
X64761607Y-24351431D01*
X64771915Y-24385409D01*
X64776000Y-24426890D01*
X64776000Y-25103110D01*
X64771915Y-25144591D01*
X64761607Y-25178569D01*
X64744866Y-25209890D01*
X64722339Y-25237339D01*
X64694890Y-25259866D01*
X64663569Y-25276607D01*
X64629591Y-25286915D01*
X64588110Y-25291000D01*
X63986890Y-25291000D01*
X63945409Y-25286915D01*
X63911431Y-25276607D01*
X63880110Y-25259866D01*
X63852661Y-25237339D01*
X63830134Y-25209890D01*
X63813393Y-25178569D01*
X63803085Y-25144591D01*
X63799000Y-25103110D01*
X63799000Y-24426890D01*
X63803085Y-24385409D01*
X63813393Y-24351431D01*
X63830134Y-24320110D01*
X63852661Y-24292661D01*
X63880110Y-24270134D01*
X63911431Y-24253393D01*
X63945409Y-24243085D01*
X63986890Y-24239000D01*
X64588110Y-24239000D01*
X64629591Y-24243085D01*
G37*
G36*
X63054591Y-24243085D02*
G01*
X63088569Y-24253393D01*
X63119890Y-24270134D01*
X63147339Y-24292661D01*
X63169866Y-24320110D01*
X63186607Y-24351431D01*
X63196915Y-24385409D01*
X63201000Y-24426890D01*
X63201000Y-25103110D01*
X63196915Y-25144591D01*
X63186607Y-25178569D01*
X63169866Y-25209890D01*
X63147339Y-25237339D01*
X63119890Y-25259866D01*
X63088569Y-25276607D01*
X63054591Y-25286915D01*
X63013110Y-25291000D01*
X62411890Y-25291000D01*
X62370409Y-25286915D01*
X62336431Y-25276607D01*
X62305110Y-25259866D01*
X62277661Y-25237339D01*
X62255134Y-25209890D01*
X62238393Y-25178569D01*
X62228085Y-25144591D01*
X62224000Y-25103110D01*
X62224000Y-24426890D01*
X62228085Y-24385409D01*
X62238393Y-24351431D01*
X62255134Y-24320110D01*
X62277661Y-24292661D01*
X62305110Y-24270134D01*
X62336431Y-24253393D01*
X62370409Y-24243085D01*
X62411890Y-24239000D01*
X63013110Y-24239000D01*
X63054591Y-24243085D01*
G37*
G36*
X66991591Y-24243085D02*
G01*
X67025569Y-24253393D01*
X67056890Y-24270134D01*
X67084339Y-24292661D01*
X67106866Y-24320110D01*
X67123607Y-24351431D01*
X67133915Y-24385409D01*
X67138000Y-24426890D01*
X67138000Y-25103110D01*
X67133915Y-25144591D01*
X67123607Y-25178569D01*
X67106866Y-25209890D01*
X67084339Y-25237339D01*
X67056890Y-25259866D01*
X67025569Y-25276607D01*
X66991591Y-25286915D01*
X66950110Y-25291000D01*
X66348890Y-25291000D01*
X66307409Y-25286915D01*
X66273431Y-25276607D01*
X66242110Y-25259866D01*
X66214661Y-25237339D01*
X66192134Y-25209890D01*
X66175393Y-25178569D01*
X66165085Y-25144591D01*
X66161000Y-25103110D01*
X66161000Y-24426890D01*
X66165085Y-24385409D01*
X66175393Y-24351431D01*
X66192134Y-24320110D01*
X66214661Y-24292661D01*
X66242110Y-24270134D01*
X66273431Y-24253393D01*
X66307409Y-24243085D01*
X66348890Y-24239000D01*
X66950110Y-24239000D01*
X66991591Y-24243085D01*
G37*
G36*
X50659591Y-24243085D02*
G01*
X50693569Y-24253393D01*
X50724890Y-24270134D01*
X50752339Y-24292661D01*
X50774866Y-24320110D01*
X50791607Y-24351431D01*
X50801915Y-24385409D01*
X50806000Y-24426890D01*
X50806000Y-25103110D01*
X50801915Y-25144591D01*
X50791607Y-25178569D01*
X50774866Y-25209890D01*
X50752339Y-25237339D01*
X50724890Y-25259866D01*
X50693569Y-25276607D01*
X50659591Y-25286915D01*
X50618110Y-25291000D01*
X50016890Y-25291000D01*
X49975409Y-25286915D01*
X49941431Y-25276607D01*
X49910110Y-25259866D01*
X49882661Y-25237339D01*
X49860134Y-25209890D01*
X49843393Y-25178569D01*
X49833085Y-25144591D01*
X49829000Y-25103110D01*
X49829000Y-24426890D01*
X49833085Y-24385409D01*
X49843393Y-24351431D01*
X49860134Y-24320110D01*
X49882661Y-24292661D01*
X49910110Y-24270134D01*
X49941431Y-24253393D01*
X49975409Y-24243085D01*
X50016890Y-24239000D01*
X50618110Y-24239000D01*
X50659591Y-24243085D01*
G37*
G36*
X31939591Y-24243085D02*
G01*
X31973569Y-24253393D01*
X32004890Y-24270134D01*
X32032339Y-24292661D01*
X32054866Y-24320110D01*
X32071607Y-24351431D01*
X32081915Y-24385409D01*
X32086000Y-24426890D01*
X32086000Y-25103110D01*
X32081915Y-25144591D01*
X32071607Y-25178569D01*
X32054866Y-25209890D01*
X32032339Y-25237339D01*
X32004890Y-25259866D01*
X31973569Y-25276607D01*
X31939591Y-25286915D01*
X31898110Y-25291000D01*
X31296890Y-25291000D01*
X31255409Y-25286915D01*
X31221431Y-25276607D01*
X31190110Y-25259866D01*
X31162661Y-25237339D01*
X31140134Y-25209890D01*
X31123393Y-25178569D01*
X31113085Y-25144591D01*
X31109000Y-25103110D01*
X31109000Y-24426890D01*
X31113085Y-24385409D01*
X31123393Y-24351431D01*
X31140134Y-24320110D01*
X31162661Y-24292661D01*
X31190110Y-24270134D01*
X31221431Y-24253393D01*
X31255409Y-24243085D01*
X31296890Y-24239000D01*
X31898110Y-24239000D01*
X31939591Y-24243085D01*
G37*
G36*
X33514591Y-24243085D02*
G01*
X33548569Y-24253393D01*
X33579890Y-24270134D01*
X33607339Y-24292661D01*
X33629866Y-24320110D01*
X33646607Y-24351431D01*
X33656915Y-24385409D01*
X33661000Y-24426890D01*
X33661000Y-25103110D01*
X33656915Y-25144591D01*
X33646607Y-25178569D01*
X33629866Y-25209890D01*
X33607339Y-25237339D01*
X33579890Y-25259866D01*
X33548569Y-25276607D01*
X33514591Y-25286915D01*
X33473110Y-25291000D01*
X32871890Y-25291000D01*
X32830409Y-25286915D01*
X32796431Y-25276607D01*
X32765110Y-25259866D01*
X32737661Y-25237339D01*
X32715134Y-25209890D01*
X32698393Y-25178569D01*
X32688085Y-25144591D01*
X32684000Y-25103110D01*
X32684000Y-24426890D01*
X32688085Y-24385409D01*
X32698393Y-24351431D01*
X32715134Y-24320110D01*
X32737661Y-24292661D01*
X32765110Y-24270134D01*
X32796431Y-24253393D01*
X32830409Y-24243085D01*
X32871890Y-24239000D01*
X33473110Y-24239000D01*
X33514591Y-24243085D01*
G37*
G36*
X49084591Y-24243085D02*
G01*
X49118569Y-24253393D01*
X49149890Y-24270134D01*
X49177339Y-24292661D01*
X49199866Y-24320110D01*
X49216607Y-24351431D01*
X49226915Y-24385409D01*
X49231000Y-24426890D01*
X49231000Y-25103110D01*
X49226915Y-25144591D01*
X49216607Y-25178569D01*
X49199866Y-25209890D01*
X49177339Y-25237339D01*
X49149890Y-25259866D01*
X49118569Y-25276607D01*
X49084591Y-25286915D01*
X49043110Y-25291000D01*
X48441890Y-25291000D01*
X48400409Y-25286915D01*
X48366431Y-25276607D01*
X48335110Y-25259866D01*
X48307661Y-25237339D01*
X48285134Y-25209890D01*
X48268393Y-25178569D01*
X48258085Y-25144591D01*
X48254000Y-25103110D01*
X48254000Y-24426890D01*
X48258085Y-24385409D01*
X48268393Y-24351431D01*
X48285134Y-24320110D01*
X48307661Y-24292661D01*
X48335110Y-24270134D01*
X48366431Y-24253393D01*
X48400409Y-24243085D01*
X48441890Y-24239000D01*
X49043110Y-24239000D01*
X49084591Y-24243085D01*
G37*
G36*
X68566591Y-24243085D02*
G01*
X68600569Y-24253393D01*
X68631890Y-24270134D01*
X68659339Y-24292661D01*
X68681866Y-24320110D01*
X68698607Y-24351431D01*
X68708915Y-24385409D01*
X68713000Y-24426890D01*
X68713000Y-25103110D01*
X68708915Y-25144591D01*
X68698607Y-25178569D01*
X68681866Y-25209890D01*
X68659339Y-25237339D01*
X68631890Y-25259866D01*
X68600569Y-25276607D01*
X68566591Y-25286915D01*
X68525110Y-25291000D01*
X67923890Y-25291000D01*
X67882409Y-25286915D01*
X67848431Y-25276607D01*
X67817110Y-25259866D01*
X67789661Y-25237339D01*
X67767134Y-25209890D01*
X67750393Y-25178569D01*
X67740085Y-25144591D01*
X67736000Y-25103110D01*
X67736000Y-24426890D01*
X67740085Y-24385409D01*
X67750393Y-24351431D01*
X67767134Y-24320110D01*
X67789661Y-24292661D01*
X67817110Y-24270134D01*
X67848431Y-24253393D01*
X67882409Y-24243085D01*
X67923890Y-24239000D01*
X68525110Y-24239000D01*
X68566591Y-24243085D01*
G37*
G36*
X41873000Y-25066000D02*
G01*
X41271000Y-25066000D01*
X41271000Y-24464000D01*
X41873000Y-24464000D01*
X41873000Y-25066000D01*
G37*
G36*
X44073000Y-25066000D02*
G01*
X43471000Y-25066000D01*
X43471000Y-24464000D01*
X44073000Y-24464000D01*
X44073000Y-25066000D01*
G37*
M02*
