G04 #@! TF.GenerationSoftware,KiCad,Pcbnew,(5.1.5)-3*
G04 #@! TF.CreationDate,2020-10-19T00:58:10-04:00*
G04 #@! TF.ProjectId,Updifier,55706469-6669-4657-922e-6b696361645f,rev?*
G04 #@! TF.SameCoordinates,Original*
G04 #@! TF.FileFunction,Legend,Bot*
G04 #@! TF.FilePolarity,Positive*
%FSLAX46Y46*%
G04 Gerber Fmt 4.6, Leading zero omitted, Abs format (unit mm)*
G04 Created by KiCad (PCBNEW (5.1.5)-3) date 2020-10-19 00:58:10*
%MOMM*%
%LPD*%
G04 APERTURE LIST*
%ADD10C,0.101600*%
%ADD11C,0.127000*%
%ADD12C,0.152400*%
G04 APERTURE END LIST*
D10*
X74001690Y-31606671D02*
X73493690Y-31454271D01*
X74001690Y-31301871D01*
X74001690Y-31214785D02*
X74001690Y-30953528D01*
X73493690Y-31084157D02*
X74001690Y-31084157D01*
X73977500Y-30561642D02*
X74001690Y-30605185D01*
X74001690Y-30670500D01*
X73977500Y-30735814D01*
X73929119Y-30779357D01*
X73880738Y-30801128D01*
X73783976Y-30822900D01*
X73711404Y-30822900D01*
X73614642Y-30801128D01*
X73566261Y-30779357D01*
X73517880Y-30735814D01*
X73493690Y-30670500D01*
X73493690Y-30626957D01*
X73517880Y-30561642D01*
X73542071Y-30539871D01*
X73711404Y-30539871D01*
X73711404Y-30626957D01*
D11*
X42854827Y-40487600D02*
X42926793Y-41063333D01*
X42969127Y-41131066D01*
X43007227Y-41164933D01*
X43079193Y-41198800D01*
X43180793Y-41198800D01*
X43244293Y-41164933D01*
X42909860Y-40927866D02*
X42981827Y-40961733D01*
X43117293Y-40961733D01*
X43180793Y-40927866D01*
X43210427Y-40894000D01*
X43235827Y-40826266D01*
X43210427Y-40623066D01*
X43168093Y-40555333D01*
X43129993Y-40521466D01*
X43058027Y-40487600D01*
X42922560Y-40487600D01*
X42859060Y-40521466D01*
X42575427Y-40961733D02*
X42516160Y-40487600D01*
X42486527Y-40250533D02*
X42524627Y-40284400D01*
X42494993Y-40318266D01*
X42456893Y-40284400D01*
X42486527Y-40250533D01*
X42494993Y-40318266D01*
X42279093Y-40487600D02*
X42008160Y-40487600D01*
X42147860Y-40250533D02*
X42224060Y-40860133D01*
X42198660Y-40927866D01*
X42135160Y-40961733D01*
X42067427Y-40961733D01*
X41830360Y-40961733D02*
X41741460Y-40250533D01*
X41525560Y-40961733D02*
X41478993Y-40589200D01*
X41504393Y-40521466D01*
X41567893Y-40487600D01*
X41669493Y-40487600D01*
X41741460Y-40521466D01*
X41779560Y-40555333D01*
X40822827Y-40487600D02*
X40882093Y-40961733D01*
X41127627Y-40487600D02*
X41174193Y-40860133D01*
X41148793Y-40927866D01*
X41085293Y-40961733D01*
X40983693Y-40961733D01*
X40911727Y-40927866D01*
X40873627Y-40894000D01*
X40543427Y-40961733D02*
X40454527Y-40250533D01*
X40488393Y-40521466D02*
X40416427Y-40487600D01*
X40280960Y-40487600D01*
X40217460Y-40521466D01*
X40187827Y-40555333D01*
X40162427Y-40623066D01*
X40187827Y-40826266D01*
X40230160Y-40894000D01*
X40268260Y-40927866D01*
X40340227Y-40961733D01*
X40475693Y-40961733D01*
X40539193Y-40927866D01*
X39891493Y-40894000D02*
X39861860Y-40927866D01*
X39899960Y-40961733D01*
X39929593Y-40927866D01*
X39891493Y-40894000D01*
X39899960Y-40961733D01*
X39252260Y-40927866D02*
X39324227Y-40961733D01*
X39459693Y-40961733D01*
X39523193Y-40927866D01*
X39552827Y-40894000D01*
X39578227Y-40826266D01*
X39552827Y-40623066D01*
X39510493Y-40555333D01*
X39472393Y-40521466D01*
X39400427Y-40487600D01*
X39264960Y-40487600D01*
X39201460Y-40521466D01*
X38850093Y-40961733D02*
X38913593Y-40927866D01*
X38943227Y-40894000D01*
X38968627Y-40826266D01*
X38943227Y-40623066D01*
X38900893Y-40555333D01*
X38862793Y-40521466D01*
X38790827Y-40487600D01*
X38689227Y-40487600D01*
X38625727Y-40521466D01*
X38596093Y-40555333D01*
X38570693Y-40623066D01*
X38596093Y-40826266D01*
X38638427Y-40894000D01*
X38676527Y-40927866D01*
X38748493Y-40961733D01*
X38850093Y-40961733D01*
X38308227Y-40961733D02*
X38248960Y-40487600D01*
X38257427Y-40555333D02*
X38219327Y-40521466D01*
X38147360Y-40487600D01*
X38045760Y-40487600D01*
X37982260Y-40521466D01*
X37956860Y-40589200D01*
X38003427Y-40961733D01*
X37956860Y-40589200D02*
X37914527Y-40521466D01*
X37842560Y-40487600D01*
X37740960Y-40487600D01*
X37677460Y-40521466D01*
X37652060Y-40589200D01*
X37698627Y-40961733D01*
X36758827Y-40216666D02*
X37482727Y-41131066D01*
X36614893Y-40961733D02*
X36525993Y-40250533D01*
X36356660Y-40250533D01*
X36259293Y-40284400D01*
X36200027Y-40352133D01*
X36174627Y-40419866D01*
X36157693Y-40555333D01*
X36170393Y-40656933D01*
X36221193Y-40792400D01*
X36263527Y-40860133D01*
X36339727Y-40927866D01*
X36445560Y-40961733D01*
X36614893Y-40961733D01*
X35802093Y-40961733D02*
X35865593Y-40927866D01*
X35890993Y-40860133D01*
X35814793Y-40250533D01*
X35429560Y-40961733D02*
X35493060Y-40927866D01*
X35518460Y-40860133D01*
X35442260Y-40250533D01*
X35057027Y-40961733D02*
X35120527Y-40927866D01*
X35150160Y-40894000D01*
X35175560Y-40826266D01*
X35150160Y-40623066D01*
X35107827Y-40555333D01*
X35069727Y-40521466D01*
X34997760Y-40487600D01*
X34896160Y-40487600D01*
X34832660Y-40521466D01*
X34803027Y-40555333D01*
X34777627Y-40623066D01*
X34803027Y-40826266D01*
X34845360Y-40894000D01*
X34883460Y-40927866D01*
X34955427Y-40961733D01*
X35057027Y-40961733D01*
X34523627Y-40487600D02*
X34413560Y-40961733D01*
X34184960Y-40487600D02*
X34413560Y-40961733D01*
X34502460Y-41131066D01*
X34540560Y-41164933D01*
X34612527Y-41198800D01*
X33668493Y-40961733D02*
X33579593Y-40250533D01*
X33664260Y-40927866D02*
X33736227Y-40961733D01*
X33871693Y-40961733D01*
X33935193Y-40927866D01*
X33964827Y-40894000D01*
X33990227Y-40826266D01*
X33964827Y-40623066D01*
X33922493Y-40555333D01*
X33884393Y-40521466D01*
X33812427Y-40487600D01*
X33676960Y-40487600D01*
X33613460Y-40521466D01*
X33054660Y-40927866D02*
X33126627Y-40961733D01*
X33262093Y-40961733D01*
X33325593Y-40927866D01*
X33350993Y-40860133D01*
X33317127Y-40589200D01*
X33274793Y-40521466D01*
X33202827Y-40487600D01*
X33067360Y-40487600D01*
X33003860Y-40521466D01*
X32978460Y-40589200D01*
X32986927Y-40656933D01*
X33334060Y-40724666D01*
X32728693Y-40487600D02*
X32618627Y-40961733D01*
X32390027Y-40487600D01*
X31577227Y-40216666D02*
X32301127Y-41131066D01*
X31344393Y-40250533D02*
X31416360Y-40826266D01*
X31390960Y-40894000D01*
X31361327Y-40927866D01*
X31297827Y-40961733D01*
X31162360Y-40961733D01*
X31090393Y-40927866D01*
X31052293Y-40894000D01*
X31009960Y-40826266D01*
X30937993Y-40250533D01*
X30628960Y-40487600D02*
X30717860Y-41198800D01*
X30633193Y-40521466D02*
X30561227Y-40487600D01*
X30425760Y-40487600D01*
X30362260Y-40521466D01*
X30332627Y-40555333D01*
X30307227Y-40623066D01*
X30332627Y-40826266D01*
X30374960Y-40894000D01*
X30413060Y-40927866D01*
X30485027Y-40961733D01*
X30620493Y-40961733D01*
X30683993Y-40927866D01*
X29739960Y-40961733D02*
X29651060Y-40250533D01*
X29735727Y-40927866D02*
X29807693Y-40961733D01*
X29943160Y-40961733D01*
X30006660Y-40927866D01*
X30036293Y-40894000D01*
X30061693Y-40826266D01*
X30036293Y-40623066D01*
X29993960Y-40555333D01*
X29955860Y-40521466D01*
X29883893Y-40487600D01*
X29748427Y-40487600D01*
X29684927Y-40521466D01*
X29401293Y-40961733D02*
X29342027Y-40487600D01*
X29312393Y-40250533D02*
X29350493Y-40284400D01*
X29320860Y-40318266D01*
X29282760Y-40284400D01*
X29312393Y-40250533D01*
X29320860Y-40318266D01*
X29062627Y-40961733D02*
X28973727Y-40250533D01*
X28656227Y-40961733D02*
X28910227Y-40555333D01*
X28567327Y-40250533D02*
X29024527Y-40656933D01*
X28076260Y-40927866D02*
X28148227Y-40961733D01*
X28283693Y-40961733D01*
X28347193Y-40927866D01*
X28372593Y-40860133D01*
X28338727Y-40589200D01*
X28296393Y-40521466D01*
X28224427Y-40487600D01*
X28088960Y-40487600D01*
X28025460Y-40521466D01*
X28000060Y-40589200D01*
X28008527Y-40656933D01*
X28355660Y-40724666D01*
X27750293Y-40487600D02*
X27640227Y-40961733D01*
X27411627Y-40487600D02*
X27640227Y-40961733D01*
X27729127Y-41131066D01*
X27767227Y-41164933D01*
X27839193Y-41198800D01*
D10*
X33159095Y-35535809D02*
X33159095Y-35947047D01*
X33134904Y-35995428D01*
X33110714Y-36019619D01*
X33062333Y-36043809D01*
X32965571Y-36043809D01*
X32917190Y-36019619D01*
X32893000Y-35995428D01*
X32868809Y-35947047D01*
X32868809Y-35535809D01*
X32626904Y-36043809D02*
X32626904Y-35535809D01*
X32433380Y-35535809D01*
X32385000Y-35560000D01*
X32360809Y-35584190D01*
X32336619Y-35632571D01*
X32336619Y-35705142D01*
X32360809Y-35753523D01*
X32385000Y-35777714D01*
X32433380Y-35801904D01*
X32626904Y-35801904D01*
X32118904Y-36043809D02*
X32118904Y-35535809D01*
X31997952Y-35535809D01*
X31925380Y-35560000D01*
X31877000Y-35608380D01*
X31852809Y-35656761D01*
X31828619Y-35753523D01*
X31828619Y-35826095D01*
X31852809Y-35922857D01*
X31877000Y-35971238D01*
X31925380Y-36019619D01*
X31997952Y-36043809D01*
X32118904Y-36043809D01*
X31610904Y-36043809D02*
X31610904Y-35535809D01*
X26809095Y-35535809D02*
X26809095Y-35947047D01*
X26784904Y-35995428D01*
X26760714Y-36019619D01*
X26712333Y-36043809D01*
X26615571Y-36043809D01*
X26567190Y-36019619D01*
X26543000Y-35995428D01*
X26518809Y-35947047D01*
X26518809Y-35535809D01*
X26276904Y-36043809D02*
X26276904Y-35535809D01*
X26083380Y-35535809D01*
X26035000Y-35560000D01*
X26010809Y-35584190D01*
X25986619Y-35632571D01*
X25986619Y-35705142D01*
X26010809Y-35753523D01*
X26035000Y-35777714D01*
X26083380Y-35801904D01*
X26276904Y-35801904D01*
X25768904Y-36043809D02*
X25768904Y-35535809D01*
X25647952Y-35535809D01*
X25575380Y-35560000D01*
X25527000Y-35608380D01*
X25502809Y-35656761D01*
X25478619Y-35753523D01*
X25478619Y-35826095D01*
X25502809Y-35922857D01*
X25527000Y-35971238D01*
X25575380Y-36019619D01*
X25647952Y-36043809D01*
X25768904Y-36043809D01*
X25260904Y-36043809D02*
X25260904Y-35535809D01*
X33679190Y-32530142D02*
X34187190Y-32530142D01*
X34187190Y-32336619D01*
X34163000Y-32288238D01*
X34138809Y-32264047D01*
X34090428Y-32239857D01*
X34017857Y-32239857D01*
X33969476Y-32264047D01*
X33945285Y-32288238D01*
X33921095Y-32336619D01*
X33921095Y-32530142D01*
X33679190Y-31731857D02*
X33921095Y-31901190D01*
X33679190Y-32022142D02*
X34187190Y-32022142D01*
X34187190Y-31828619D01*
X34163000Y-31780238D01*
X34138809Y-31756047D01*
X34090428Y-31731857D01*
X34017857Y-31731857D01*
X33969476Y-31756047D01*
X33945285Y-31780238D01*
X33921095Y-31828619D01*
X33921095Y-32022142D01*
X34187190Y-31417380D02*
X34187190Y-31320619D01*
X34163000Y-31272238D01*
X34114619Y-31223857D01*
X34017857Y-31199666D01*
X33848523Y-31199666D01*
X33751761Y-31223857D01*
X33703380Y-31272238D01*
X33679190Y-31320619D01*
X33679190Y-31417380D01*
X33703380Y-31465761D01*
X33751761Y-31514142D01*
X33848523Y-31538333D01*
X34017857Y-31538333D01*
X34114619Y-31514142D01*
X34163000Y-31465761D01*
X34187190Y-31417380D01*
X34163000Y-30715857D02*
X34187190Y-30764238D01*
X34187190Y-30836809D01*
X34163000Y-30909380D01*
X34114619Y-30957761D01*
X34066238Y-30981952D01*
X33969476Y-31006142D01*
X33896904Y-31006142D01*
X33800142Y-30981952D01*
X33751761Y-30957761D01*
X33703380Y-30909380D01*
X33679190Y-30836809D01*
X33679190Y-30788428D01*
X33703380Y-30715857D01*
X33727571Y-30691666D01*
X33896904Y-30691666D01*
X33896904Y-30788428D01*
X73557190Y-34660114D02*
X74065190Y-34660114D01*
X73823285Y-34660114D02*
X73823285Y-34398857D01*
X73557190Y-34398857D02*
X74065190Y-34398857D01*
X74065190Y-34246457D02*
X73557190Y-34094057D01*
X74065190Y-33941657D01*
X74065190Y-33789257D02*
X73653952Y-33789257D01*
X73605571Y-33767485D01*
X73581380Y-33745714D01*
X73557190Y-33702171D01*
X73557190Y-33615085D01*
X73581380Y-33571542D01*
X73605571Y-33549771D01*
X73653952Y-33528000D01*
X74065190Y-33528000D01*
X73557190Y-33310285D02*
X74065190Y-33310285D01*
X74065190Y-33136114D01*
X74041000Y-33092571D01*
X74016809Y-33070800D01*
X73968428Y-33049028D01*
X73895857Y-33049028D01*
X73847476Y-33070800D01*
X73823285Y-33092571D01*
X73799095Y-33136114D01*
X73799095Y-33310285D01*
X73557190Y-32853085D02*
X74065190Y-32853085D01*
X74065190Y-32744228D01*
X74041000Y-32678914D01*
X73992619Y-32635371D01*
X73944238Y-32613600D01*
X73847476Y-32591828D01*
X73774904Y-32591828D01*
X73678142Y-32613600D01*
X73629761Y-32635371D01*
X73581380Y-32678914D01*
X73557190Y-32744228D01*
X73557190Y-32853085D01*
X73557190Y-32395885D02*
X74065190Y-32395885D01*
X68707000Y-28835047D02*
X68731190Y-28883428D01*
X68731190Y-28956000D01*
X68707000Y-29028571D01*
X68658619Y-29076952D01*
X68610238Y-29101142D01*
X68513476Y-29125333D01*
X68440904Y-29125333D01*
X68344142Y-29101142D01*
X68295761Y-29076952D01*
X68247380Y-29028571D01*
X68223190Y-28956000D01*
X68223190Y-28907619D01*
X68247380Y-28835047D01*
X68271571Y-28810857D01*
X68440904Y-28810857D01*
X68440904Y-28907619D01*
X68223190Y-28593142D02*
X68731190Y-28593142D01*
X68223190Y-28302857D01*
X68731190Y-28302857D01*
X68223190Y-28060952D02*
X68731190Y-28060952D01*
X68731190Y-27940000D01*
X68707000Y-27867428D01*
X68658619Y-27819047D01*
X68610238Y-27794857D01*
X68513476Y-27770666D01*
X68440904Y-27770666D01*
X68344142Y-27794857D01*
X68295761Y-27819047D01*
X68247380Y-27867428D01*
X68223190Y-27940000D01*
X68223190Y-28060952D01*
X68731190Y-34903833D02*
X68223190Y-34734500D01*
X68731190Y-34565166D01*
X68731190Y-34468404D02*
X68731190Y-34178119D01*
X68223190Y-34323261D02*
X68731190Y-34323261D01*
X68707000Y-33742690D02*
X68731190Y-33791071D01*
X68731190Y-33863642D01*
X68707000Y-33936214D01*
X68658619Y-33984595D01*
X68610238Y-34008785D01*
X68513476Y-34032976D01*
X68440904Y-34032976D01*
X68344142Y-34008785D01*
X68295761Y-33984595D01*
X68247380Y-33936214D01*
X68223190Y-33863642D01*
X68223190Y-33815261D01*
X68247380Y-33742690D01*
X68271571Y-33718500D01*
X68440904Y-33718500D01*
X68440904Y-33815261D01*
X68416714Y-33500785D02*
X68416714Y-33113738D01*
X68223190Y-32871833D02*
X68731190Y-32871833D01*
X68731190Y-32678309D01*
X68707000Y-32629928D01*
X68682809Y-32605738D01*
X68634428Y-32581547D01*
X68561857Y-32581547D01*
X68513476Y-32605738D01*
X68489285Y-32629928D01*
X68465095Y-32678309D01*
X68465095Y-32871833D01*
X68271571Y-32073547D02*
X68247380Y-32097738D01*
X68223190Y-32170309D01*
X68223190Y-32218690D01*
X68247380Y-32291261D01*
X68295761Y-32339642D01*
X68344142Y-32363833D01*
X68440904Y-32388023D01*
X68513476Y-32388023D01*
X68610238Y-32363833D01*
X68658619Y-32339642D01*
X68707000Y-32291261D01*
X68731190Y-32218690D01*
X68731190Y-32170309D01*
X68707000Y-32097738D01*
X68682809Y-32073547D01*
X76986190Y-34660114D02*
X77494190Y-34660114D01*
X77252285Y-34660114D02*
X77252285Y-34398857D01*
X76986190Y-34398857D02*
X77494190Y-34398857D01*
X77494190Y-34246457D02*
X76986190Y-34094057D01*
X77494190Y-33941657D01*
X77494190Y-33789257D02*
X77082952Y-33789257D01*
X77034571Y-33767485D01*
X77010380Y-33745714D01*
X76986190Y-33702171D01*
X76986190Y-33615085D01*
X77010380Y-33571542D01*
X77034571Y-33549771D01*
X77082952Y-33528000D01*
X77494190Y-33528000D01*
X76986190Y-33310285D02*
X77494190Y-33310285D01*
X77494190Y-33136114D01*
X77470000Y-33092571D01*
X77445809Y-33070800D01*
X77397428Y-33049028D01*
X77324857Y-33049028D01*
X77276476Y-33070800D01*
X77252285Y-33092571D01*
X77228095Y-33136114D01*
X77228095Y-33310285D01*
X76986190Y-32853085D02*
X77494190Y-32853085D01*
X77494190Y-32744228D01*
X77470000Y-32678914D01*
X77421619Y-32635371D01*
X77373238Y-32613600D01*
X77276476Y-32591828D01*
X77203904Y-32591828D01*
X77107142Y-32613600D01*
X77058761Y-32635371D01*
X77010380Y-32678914D01*
X76986190Y-32744228D01*
X76986190Y-32853085D01*
X76986190Y-32395885D02*
X77494190Y-32395885D01*
X77470000Y-31438547D02*
X77494190Y-31486928D01*
X77494190Y-31559500D01*
X77470000Y-31632071D01*
X77421619Y-31680452D01*
X77373238Y-31704642D01*
X77276476Y-31728833D01*
X77203904Y-31728833D01*
X77107142Y-31704642D01*
X77058761Y-31680452D01*
X77010380Y-31632071D01*
X76986190Y-31559500D01*
X76986190Y-31511119D01*
X77010380Y-31438547D01*
X77034571Y-31414357D01*
X77203904Y-31414357D01*
X77203904Y-31511119D01*
X76986190Y-31196642D02*
X77494190Y-31196642D01*
X76986190Y-30906357D01*
X77494190Y-30906357D01*
X76986190Y-30664452D02*
X77494190Y-30664452D01*
X77494190Y-30543500D01*
X77470000Y-30470928D01*
X77421619Y-30422547D01*
X77373238Y-30398357D01*
X77276476Y-30374166D01*
X77203904Y-30374166D01*
X77107142Y-30398357D01*
X77058761Y-30422547D01*
X77010380Y-30470928D01*
X76986190Y-30543500D01*
X76986190Y-30664452D01*
X77494190Y-29823833D02*
X76986190Y-29654500D01*
X77494190Y-29485166D01*
X77494190Y-29388404D02*
X77494190Y-29098119D01*
X76986190Y-29243261D02*
X77494190Y-29243261D01*
X77470000Y-28662690D02*
X77494190Y-28711071D01*
X77494190Y-28783642D01*
X77470000Y-28856214D01*
X77421619Y-28904595D01*
X77373238Y-28928785D01*
X77276476Y-28952976D01*
X77203904Y-28952976D01*
X77107142Y-28928785D01*
X77058761Y-28904595D01*
X77010380Y-28856214D01*
X76986190Y-28783642D01*
X76986190Y-28735261D01*
X77010380Y-28662690D01*
X77034571Y-28638500D01*
X77203904Y-28638500D01*
X77203904Y-28735261D01*
X77179714Y-28420785D02*
X77179714Y-28033738D01*
X76986190Y-27791833D02*
X77494190Y-27791833D01*
X77494190Y-27598309D01*
X77470000Y-27549928D01*
X77445809Y-27525738D01*
X77397428Y-27501547D01*
X77324857Y-27501547D01*
X77276476Y-27525738D01*
X77252285Y-27549928D01*
X77228095Y-27598309D01*
X77228095Y-27791833D01*
X77034571Y-26993547D02*
X77010380Y-27017738D01*
X76986190Y-27090309D01*
X76986190Y-27138690D01*
X77010380Y-27211261D01*
X77058761Y-27259642D01*
X77107142Y-27283833D01*
X77203904Y-27308023D01*
X77276476Y-27308023D01*
X77373238Y-27283833D01*
X77421619Y-27259642D01*
X77470000Y-27211261D01*
X77494190Y-27138690D01*
X77494190Y-27090309D01*
X77470000Y-27017738D01*
X77445809Y-26993547D01*
X24789190Y-29826857D02*
X24281190Y-29657523D01*
X24789190Y-29488190D01*
X24789190Y-29391428D02*
X24789190Y-29101142D01*
X24281190Y-29246285D02*
X24789190Y-29246285D01*
X24765000Y-28665714D02*
X24789190Y-28714095D01*
X24789190Y-28786666D01*
X24765000Y-28859238D01*
X24716619Y-28907619D01*
X24668238Y-28931809D01*
X24571476Y-28956000D01*
X24498904Y-28956000D01*
X24402142Y-28931809D01*
X24353761Y-28907619D01*
X24305380Y-28859238D01*
X24281190Y-28786666D01*
X24281190Y-28738285D01*
X24305380Y-28665714D01*
X24329571Y-28641523D01*
X24498904Y-28641523D01*
X24498904Y-28738285D01*
X24765000Y-32137047D02*
X24789190Y-32185428D01*
X24789190Y-32258000D01*
X24765000Y-32330571D01*
X24716619Y-32378952D01*
X24668238Y-32403142D01*
X24571476Y-32427333D01*
X24498904Y-32427333D01*
X24402142Y-32403142D01*
X24353761Y-32378952D01*
X24305380Y-32330571D01*
X24281190Y-32258000D01*
X24281190Y-32209619D01*
X24305380Y-32137047D01*
X24329571Y-32112857D01*
X24498904Y-32112857D01*
X24498904Y-32209619D01*
X24281190Y-31895142D02*
X24789190Y-31895142D01*
X24281190Y-31604857D01*
X24789190Y-31604857D01*
X24281190Y-31362952D02*
X24789190Y-31362952D01*
X24789190Y-31242000D01*
X24765000Y-31169428D01*
X24716619Y-31121047D01*
X24668238Y-31096857D01*
X24571476Y-31072666D01*
X24498904Y-31072666D01*
X24402142Y-31096857D01*
X24353761Y-31121047D01*
X24305380Y-31169428D01*
X24281190Y-31242000D01*
X24281190Y-31362952D01*
X24281190Y-34834285D02*
X24789190Y-34834285D01*
X24789190Y-34713333D01*
X24765000Y-34640761D01*
X24716619Y-34592380D01*
X24668238Y-34568190D01*
X24571476Y-34544000D01*
X24498904Y-34544000D01*
X24402142Y-34568190D01*
X24353761Y-34592380D01*
X24305380Y-34640761D01*
X24281190Y-34713333D01*
X24281190Y-34834285D01*
X24426333Y-34350476D02*
X24426333Y-34108571D01*
X24281190Y-34398857D02*
X24789190Y-34229523D01*
X24281190Y-34060190D01*
X24789190Y-33963428D02*
X24789190Y-33673142D01*
X24281190Y-33818285D02*
X24789190Y-33818285D01*
X28575000Y-29597047D02*
X28599190Y-29645428D01*
X28599190Y-29718000D01*
X28575000Y-29790571D01*
X28526619Y-29838952D01*
X28478238Y-29863142D01*
X28381476Y-29887333D01*
X28308904Y-29887333D01*
X28212142Y-29863142D01*
X28163761Y-29838952D01*
X28115380Y-29790571D01*
X28091190Y-29718000D01*
X28091190Y-29669619D01*
X28115380Y-29597047D01*
X28139571Y-29572857D01*
X28308904Y-29572857D01*
X28308904Y-29669619D01*
X28091190Y-29355142D02*
X28599190Y-29355142D01*
X28091190Y-29064857D01*
X28599190Y-29064857D01*
X28091190Y-28822952D02*
X28599190Y-28822952D01*
X28599190Y-28702000D01*
X28575000Y-28629428D01*
X28526619Y-28581047D01*
X28478238Y-28556857D01*
X28381476Y-28532666D01*
X28308904Y-28532666D01*
X28212142Y-28556857D01*
X28163761Y-28581047D01*
X28115380Y-28629428D01*
X28091190Y-28702000D01*
X28091190Y-28822952D01*
X28599190Y-34906857D02*
X28091190Y-34737523D01*
X28599190Y-34568190D01*
X28599190Y-34471428D02*
X28599190Y-34181142D01*
X28091190Y-34326285D02*
X28599190Y-34326285D01*
X28575000Y-33745714D02*
X28599190Y-33794095D01*
X28599190Y-33866666D01*
X28575000Y-33939238D01*
X28526619Y-33987619D01*
X28478238Y-34011809D01*
X28381476Y-34036000D01*
X28308904Y-34036000D01*
X28212142Y-34011809D01*
X28163761Y-33987619D01*
X28115380Y-33939238D01*
X28091190Y-33866666D01*
X28091190Y-33818285D01*
X28115380Y-33745714D01*
X28139571Y-33721523D01*
X28308904Y-33721523D01*
X28308904Y-33818285D01*
X33679190Y-34834285D02*
X34187190Y-34834285D01*
X34187190Y-34713333D01*
X34163000Y-34640761D01*
X34114619Y-34592380D01*
X34066238Y-34568190D01*
X33969476Y-34544000D01*
X33896904Y-34544000D01*
X33800142Y-34568190D01*
X33751761Y-34592380D01*
X33703380Y-34640761D01*
X33679190Y-34713333D01*
X33679190Y-34834285D01*
X33824333Y-34350476D02*
X33824333Y-34108571D01*
X33679190Y-34398857D02*
X34187190Y-34229523D01*
X33679190Y-34060190D01*
X34187190Y-33963428D02*
X34187190Y-33673142D01*
X33679190Y-33818285D02*
X34187190Y-33818285D01*
D12*
X42321238Y-22261285D02*
X42321238Y-22938619D01*
X42563142Y-21874238D02*
X42805047Y-22599952D01*
X42176095Y-22599952D01*
X41789047Y-22406428D02*
X41450380Y-22406428D01*
X41305238Y-22938619D02*
X41789047Y-22938619D01*
X41789047Y-21922619D01*
X41305238Y-21922619D01*
X40386000Y-21922619D02*
X40869809Y-21922619D01*
X40918190Y-22406428D01*
X40869809Y-22358047D01*
X40773047Y-22309666D01*
X40531142Y-22309666D01*
X40434380Y-22358047D01*
X40386000Y-22406428D01*
X40337619Y-22503190D01*
X40337619Y-22745095D01*
X40386000Y-22841857D01*
X40434380Y-22890238D01*
X40531142Y-22938619D01*
X40773047Y-22938619D01*
X40869809Y-22890238D01*
X40918190Y-22841857D01*
X39466761Y-21922619D02*
X39660285Y-21922619D01*
X39757047Y-21971000D01*
X39805428Y-22019380D01*
X39902190Y-22164523D01*
X39950571Y-22358047D01*
X39950571Y-22745095D01*
X39902190Y-22841857D01*
X39853809Y-22890238D01*
X39757047Y-22938619D01*
X39563523Y-22938619D01*
X39466761Y-22890238D01*
X39418380Y-22841857D01*
X39370000Y-22745095D01*
X39370000Y-22503190D01*
X39418380Y-22406428D01*
X39466761Y-22358047D01*
X39563523Y-22309666D01*
X39757047Y-22309666D01*
X39853809Y-22358047D01*
X39902190Y-22406428D01*
X39950571Y-22503190D01*
X38499142Y-22261285D02*
X38499142Y-22938619D01*
X38741047Y-21874238D02*
X38982952Y-22599952D01*
X38354000Y-22599952D01*
X37966952Y-22938619D02*
X37966952Y-21922619D01*
X37725047Y-21922619D01*
X37579904Y-21971000D01*
X37483142Y-22067761D01*
X37434761Y-22164523D01*
X37386380Y-22358047D01*
X37386380Y-22503190D01*
X37434761Y-22696714D01*
X37483142Y-22793476D01*
X37579904Y-22890238D01*
X37725047Y-22938619D01*
X37966952Y-22938619D01*
X36467142Y-21922619D02*
X36950952Y-21922619D01*
X36999333Y-22406428D01*
X36950952Y-22358047D01*
X36854190Y-22309666D01*
X36612285Y-22309666D01*
X36515523Y-22358047D01*
X36467142Y-22406428D01*
X36418761Y-22503190D01*
X36418761Y-22745095D01*
X36467142Y-22841857D01*
X36515523Y-22890238D01*
X36612285Y-22938619D01*
X36854190Y-22938619D01*
X36950952Y-22890238D01*
X36999333Y-22841857D01*
X35789809Y-21922619D02*
X35693047Y-21922619D01*
X35596285Y-21971000D01*
X35547904Y-22019380D01*
X35499523Y-22116142D01*
X35451142Y-22309666D01*
X35451142Y-22551571D01*
X35499523Y-22745095D01*
X35547904Y-22841857D01*
X35596285Y-22890238D01*
X35693047Y-22938619D01*
X35789809Y-22938619D01*
X35886571Y-22890238D01*
X35934952Y-22841857D01*
X35983333Y-22745095D01*
X36031714Y-22551571D01*
X36031714Y-22309666D01*
X35983333Y-22116142D01*
X35934952Y-22019380D01*
X35886571Y-21971000D01*
X35789809Y-21922619D01*
X35112476Y-21922619D02*
X34435142Y-21922619D01*
X34870571Y-22938619D01*
X34096476Y-22019380D02*
X34048095Y-21971000D01*
X33951333Y-21922619D01*
X33709428Y-21922619D01*
X33612666Y-21971000D01*
X33564285Y-22019380D01*
X33515904Y-22116142D01*
X33515904Y-22212904D01*
X33564285Y-22358047D01*
X34144857Y-22938619D01*
X33515904Y-22938619D01*
X32645047Y-21922619D02*
X32838571Y-21922619D01*
X32935333Y-21971000D01*
X32983714Y-22019380D01*
X33080476Y-22164523D01*
X33128857Y-22358047D01*
X33128857Y-22745095D01*
X33080476Y-22841857D01*
X33032095Y-22890238D01*
X32935333Y-22938619D01*
X32741809Y-22938619D01*
X32645047Y-22890238D01*
X32596666Y-22841857D01*
X32548285Y-22745095D01*
X32548285Y-22503190D01*
X32596666Y-22406428D01*
X32645047Y-22358047D01*
X32741809Y-22309666D01*
X32935333Y-22309666D01*
X33032095Y-22358047D01*
X33080476Y-22406428D01*
X33128857Y-22503190D01*
X31774190Y-22406428D02*
X32112857Y-22406428D01*
X32112857Y-22938619D02*
X32112857Y-21922619D01*
X31629047Y-21922619D01*
X30806571Y-21922619D02*
X31000095Y-21922619D01*
X31096857Y-21971000D01*
X31145238Y-22019380D01*
X31242000Y-22164523D01*
X31290380Y-22358047D01*
X31290380Y-22745095D01*
X31242000Y-22841857D01*
X31193619Y-22890238D01*
X31096857Y-22938619D01*
X30903333Y-22938619D01*
X30806571Y-22890238D01*
X30758190Y-22841857D01*
X30709809Y-22745095D01*
X30709809Y-22503190D01*
X30758190Y-22406428D01*
X30806571Y-22358047D01*
X30903333Y-22309666D01*
X31096857Y-22309666D01*
X31193619Y-22358047D01*
X31242000Y-22406428D01*
X31290380Y-22503190D01*
X30371142Y-21922619D02*
X29693809Y-21922619D01*
X30129238Y-22938619D01*
X29355142Y-22019380D02*
X29306761Y-21971000D01*
X29210000Y-21922619D01*
X28968095Y-21922619D01*
X28871333Y-21971000D01*
X28822952Y-22019380D01*
X28774571Y-22116142D01*
X28774571Y-22212904D01*
X28822952Y-22358047D01*
X29403523Y-22938619D01*
X28774571Y-22938619D01*
X28145619Y-21922619D02*
X28048857Y-21922619D01*
X27952095Y-21971000D01*
X27903714Y-22019380D01*
X27855333Y-22116142D01*
X27806952Y-22309666D01*
X27806952Y-22551571D01*
X27855333Y-22745095D01*
X27903714Y-22841857D01*
X27952095Y-22890238D01*
X28048857Y-22938619D01*
X28145619Y-22938619D01*
X28242380Y-22890238D01*
X28290761Y-22841857D01*
X28339142Y-22745095D01*
X28387523Y-22551571D01*
X28387523Y-22309666D01*
X28339142Y-22116142D01*
X28290761Y-22019380D01*
X28242380Y-21971000D01*
X28145619Y-21922619D01*
M02*
