G04 #@! TF.GenerationSoftware,KiCad,Pcbnew,(5.1.5)-3*
G04 #@! TF.CreationDate,2020-10-19T00:58:10-04:00*
G04 #@! TF.ProjectId,Updifier,55706469-6669-4657-922e-6b696361645f,rev?*
G04 #@! TF.SameCoordinates,Original*
G04 #@! TF.FileFunction,Paste,Top*
G04 #@! TF.FilePolarity,Positive*
%FSLAX46Y46*%
G04 Gerber Fmt 4.6, Leading zero omitted, Abs format (unit mm)*
G04 Created by KiCad (PCBNEW (5.1.5)-3) date 2020-10-19 00:58:10*
%MOMM*%
%LPD*%
G04 APERTURE LIST*
%ADD10C,0.100000*%
%ADD11R,1.200000X0.600000*%
%ADD12R,1.050000X0.650000*%
%ADD13R,0.500000X0.500000*%
%ADD14R,1.250000X0.600000*%
G04 APERTURE END LIST*
D10*
G36*
X72401691Y-24354553D02*
G01*
X72422926Y-24357703D01*
X72443750Y-24362919D01*
X72463962Y-24370151D01*
X72483368Y-24379330D01*
X72501781Y-24390366D01*
X72519024Y-24403154D01*
X72534930Y-24417570D01*
X72549346Y-24433476D01*
X72562134Y-24450719D01*
X72573170Y-24469132D01*
X72582349Y-24488538D01*
X72589581Y-24508750D01*
X72594797Y-24529574D01*
X72597947Y-24550809D01*
X72599000Y-24572250D01*
X72599000Y-25084750D01*
X72597947Y-25106191D01*
X72594797Y-25127426D01*
X72589581Y-25148250D01*
X72582349Y-25168462D01*
X72573170Y-25187868D01*
X72562134Y-25206281D01*
X72549346Y-25223524D01*
X72534930Y-25239430D01*
X72519024Y-25253846D01*
X72501781Y-25266634D01*
X72483368Y-25277670D01*
X72463962Y-25286849D01*
X72443750Y-25294081D01*
X72422926Y-25299297D01*
X72401691Y-25302447D01*
X72380250Y-25303500D01*
X71942750Y-25303500D01*
X71921309Y-25302447D01*
X71900074Y-25299297D01*
X71879250Y-25294081D01*
X71859038Y-25286849D01*
X71839632Y-25277670D01*
X71821219Y-25266634D01*
X71803976Y-25253846D01*
X71788070Y-25239430D01*
X71773654Y-25223524D01*
X71760866Y-25206281D01*
X71749830Y-25187868D01*
X71740651Y-25168462D01*
X71733419Y-25148250D01*
X71728203Y-25127426D01*
X71725053Y-25106191D01*
X71724000Y-25084750D01*
X71724000Y-24572250D01*
X71725053Y-24550809D01*
X71728203Y-24529574D01*
X71733419Y-24508750D01*
X71740651Y-24488538D01*
X71749830Y-24469132D01*
X71760866Y-24450719D01*
X71773654Y-24433476D01*
X71788070Y-24417570D01*
X71803976Y-24403154D01*
X71821219Y-24390366D01*
X71839632Y-24379330D01*
X71859038Y-24370151D01*
X71879250Y-24362919D01*
X71900074Y-24357703D01*
X71921309Y-24354553D01*
X71942750Y-24353500D01*
X72380250Y-24353500D01*
X72401691Y-24354553D01*
G37*
G36*
X70826691Y-24354553D02*
G01*
X70847926Y-24357703D01*
X70868750Y-24362919D01*
X70888962Y-24370151D01*
X70908368Y-24379330D01*
X70926781Y-24390366D01*
X70944024Y-24403154D01*
X70959930Y-24417570D01*
X70974346Y-24433476D01*
X70987134Y-24450719D01*
X70998170Y-24469132D01*
X71007349Y-24488538D01*
X71014581Y-24508750D01*
X71019797Y-24529574D01*
X71022947Y-24550809D01*
X71024000Y-24572250D01*
X71024000Y-25084750D01*
X71022947Y-25106191D01*
X71019797Y-25127426D01*
X71014581Y-25148250D01*
X71007349Y-25168462D01*
X70998170Y-25187868D01*
X70987134Y-25206281D01*
X70974346Y-25223524D01*
X70959930Y-25239430D01*
X70944024Y-25253846D01*
X70926781Y-25266634D01*
X70908368Y-25277670D01*
X70888962Y-25286849D01*
X70868750Y-25294081D01*
X70847926Y-25299297D01*
X70826691Y-25302447D01*
X70805250Y-25303500D01*
X70367750Y-25303500D01*
X70346309Y-25302447D01*
X70325074Y-25299297D01*
X70304250Y-25294081D01*
X70284038Y-25286849D01*
X70264632Y-25277670D01*
X70246219Y-25266634D01*
X70228976Y-25253846D01*
X70213070Y-25239430D01*
X70198654Y-25223524D01*
X70185866Y-25206281D01*
X70174830Y-25187868D01*
X70165651Y-25168462D01*
X70158419Y-25148250D01*
X70153203Y-25127426D01*
X70150053Y-25106191D01*
X70149000Y-25084750D01*
X70149000Y-24572250D01*
X70150053Y-24550809D01*
X70153203Y-24529574D01*
X70158419Y-24508750D01*
X70165651Y-24488538D01*
X70174830Y-24469132D01*
X70185866Y-24450719D01*
X70198654Y-24433476D01*
X70213070Y-24417570D01*
X70228976Y-24403154D01*
X70246219Y-24390366D01*
X70264632Y-24379330D01*
X70284038Y-24370151D01*
X70304250Y-24362919D01*
X70325074Y-24357703D01*
X70346309Y-24354553D01*
X70367750Y-24353500D01*
X70805250Y-24353500D01*
X70826691Y-24354553D01*
G37*
G36*
X33412691Y-24291053D02*
G01*
X33433926Y-24294203D01*
X33454750Y-24299419D01*
X33474962Y-24306651D01*
X33494368Y-24315830D01*
X33512781Y-24326866D01*
X33530024Y-24339654D01*
X33545930Y-24354070D01*
X33560346Y-24369976D01*
X33573134Y-24387219D01*
X33584170Y-24405632D01*
X33593349Y-24425038D01*
X33600581Y-24445250D01*
X33605797Y-24466074D01*
X33608947Y-24487309D01*
X33610000Y-24508750D01*
X33610000Y-25021250D01*
X33608947Y-25042691D01*
X33605797Y-25063926D01*
X33600581Y-25084750D01*
X33593349Y-25104962D01*
X33584170Y-25124368D01*
X33573134Y-25142781D01*
X33560346Y-25160024D01*
X33545930Y-25175930D01*
X33530024Y-25190346D01*
X33512781Y-25203134D01*
X33494368Y-25214170D01*
X33474962Y-25223349D01*
X33454750Y-25230581D01*
X33433926Y-25235797D01*
X33412691Y-25238947D01*
X33391250Y-25240000D01*
X32953750Y-25240000D01*
X32932309Y-25238947D01*
X32911074Y-25235797D01*
X32890250Y-25230581D01*
X32870038Y-25223349D01*
X32850632Y-25214170D01*
X32832219Y-25203134D01*
X32814976Y-25190346D01*
X32799070Y-25175930D01*
X32784654Y-25160024D01*
X32771866Y-25142781D01*
X32760830Y-25124368D01*
X32751651Y-25104962D01*
X32744419Y-25084750D01*
X32739203Y-25063926D01*
X32736053Y-25042691D01*
X32735000Y-25021250D01*
X32735000Y-24508750D01*
X32736053Y-24487309D01*
X32739203Y-24466074D01*
X32744419Y-24445250D01*
X32751651Y-24425038D01*
X32760830Y-24405632D01*
X32771866Y-24387219D01*
X32784654Y-24369976D01*
X32799070Y-24354070D01*
X32814976Y-24339654D01*
X32832219Y-24326866D01*
X32850632Y-24315830D01*
X32870038Y-24306651D01*
X32890250Y-24299419D01*
X32911074Y-24294203D01*
X32932309Y-24291053D01*
X32953750Y-24290000D01*
X33391250Y-24290000D01*
X33412691Y-24291053D01*
G37*
G36*
X31837691Y-24291053D02*
G01*
X31858926Y-24294203D01*
X31879750Y-24299419D01*
X31899962Y-24306651D01*
X31919368Y-24315830D01*
X31937781Y-24326866D01*
X31955024Y-24339654D01*
X31970930Y-24354070D01*
X31985346Y-24369976D01*
X31998134Y-24387219D01*
X32009170Y-24405632D01*
X32018349Y-24425038D01*
X32025581Y-24445250D01*
X32030797Y-24466074D01*
X32033947Y-24487309D01*
X32035000Y-24508750D01*
X32035000Y-25021250D01*
X32033947Y-25042691D01*
X32030797Y-25063926D01*
X32025581Y-25084750D01*
X32018349Y-25104962D01*
X32009170Y-25124368D01*
X31998134Y-25142781D01*
X31985346Y-25160024D01*
X31970930Y-25175930D01*
X31955024Y-25190346D01*
X31937781Y-25203134D01*
X31919368Y-25214170D01*
X31899962Y-25223349D01*
X31879750Y-25230581D01*
X31858926Y-25235797D01*
X31837691Y-25238947D01*
X31816250Y-25240000D01*
X31378750Y-25240000D01*
X31357309Y-25238947D01*
X31336074Y-25235797D01*
X31315250Y-25230581D01*
X31295038Y-25223349D01*
X31275632Y-25214170D01*
X31257219Y-25203134D01*
X31239976Y-25190346D01*
X31224070Y-25175930D01*
X31209654Y-25160024D01*
X31196866Y-25142781D01*
X31185830Y-25124368D01*
X31176651Y-25104962D01*
X31169419Y-25084750D01*
X31164203Y-25063926D01*
X31161053Y-25042691D01*
X31160000Y-25021250D01*
X31160000Y-24508750D01*
X31161053Y-24487309D01*
X31164203Y-24466074D01*
X31169419Y-24445250D01*
X31176651Y-24425038D01*
X31185830Y-24405632D01*
X31196866Y-24387219D01*
X31209654Y-24369976D01*
X31224070Y-24354070D01*
X31239976Y-24339654D01*
X31257219Y-24326866D01*
X31275632Y-24315830D01*
X31295038Y-24306651D01*
X31315250Y-24299419D01*
X31336074Y-24294203D01*
X31357309Y-24291053D01*
X31378750Y-24290000D01*
X31816250Y-24290000D01*
X31837691Y-24291053D01*
G37*
G36*
X48043191Y-32038053D02*
G01*
X48064426Y-32041203D01*
X48085250Y-32046419D01*
X48105462Y-32053651D01*
X48124868Y-32062830D01*
X48143281Y-32073866D01*
X48160524Y-32086654D01*
X48176430Y-32101070D01*
X48190846Y-32116976D01*
X48203634Y-32134219D01*
X48214670Y-32152632D01*
X48223849Y-32172038D01*
X48231081Y-32192250D01*
X48236297Y-32213074D01*
X48239447Y-32234309D01*
X48240500Y-32255750D01*
X48240500Y-32768250D01*
X48239447Y-32789691D01*
X48236297Y-32810926D01*
X48231081Y-32831750D01*
X48223849Y-32851962D01*
X48214670Y-32871368D01*
X48203634Y-32889781D01*
X48190846Y-32907024D01*
X48176430Y-32922930D01*
X48160524Y-32937346D01*
X48143281Y-32950134D01*
X48124868Y-32961170D01*
X48105462Y-32970349D01*
X48085250Y-32977581D01*
X48064426Y-32982797D01*
X48043191Y-32985947D01*
X48021750Y-32987000D01*
X47584250Y-32987000D01*
X47562809Y-32985947D01*
X47541574Y-32982797D01*
X47520750Y-32977581D01*
X47500538Y-32970349D01*
X47481132Y-32961170D01*
X47462719Y-32950134D01*
X47445476Y-32937346D01*
X47429570Y-32922930D01*
X47415154Y-32907024D01*
X47402366Y-32889781D01*
X47391330Y-32871368D01*
X47382151Y-32851962D01*
X47374919Y-32831750D01*
X47369703Y-32810926D01*
X47366553Y-32789691D01*
X47365500Y-32768250D01*
X47365500Y-32255750D01*
X47366553Y-32234309D01*
X47369703Y-32213074D01*
X47374919Y-32192250D01*
X47382151Y-32172038D01*
X47391330Y-32152632D01*
X47402366Y-32134219D01*
X47415154Y-32116976D01*
X47429570Y-32101070D01*
X47445476Y-32086654D01*
X47462719Y-32073866D01*
X47481132Y-32062830D01*
X47500538Y-32053651D01*
X47520750Y-32046419D01*
X47541574Y-32041203D01*
X47562809Y-32038053D01*
X47584250Y-32037000D01*
X48021750Y-32037000D01*
X48043191Y-32038053D01*
G37*
G36*
X46468191Y-32038053D02*
G01*
X46489426Y-32041203D01*
X46510250Y-32046419D01*
X46530462Y-32053651D01*
X46549868Y-32062830D01*
X46568281Y-32073866D01*
X46585524Y-32086654D01*
X46601430Y-32101070D01*
X46615846Y-32116976D01*
X46628634Y-32134219D01*
X46639670Y-32152632D01*
X46648849Y-32172038D01*
X46656081Y-32192250D01*
X46661297Y-32213074D01*
X46664447Y-32234309D01*
X46665500Y-32255750D01*
X46665500Y-32768250D01*
X46664447Y-32789691D01*
X46661297Y-32810926D01*
X46656081Y-32831750D01*
X46648849Y-32851962D01*
X46639670Y-32871368D01*
X46628634Y-32889781D01*
X46615846Y-32907024D01*
X46601430Y-32922930D01*
X46585524Y-32937346D01*
X46568281Y-32950134D01*
X46549868Y-32961170D01*
X46530462Y-32970349D01*
X46510250Y-32977581D01*
X46489426Y-32982797D01*
X46468191Y-32985947D01*
X46446750Y-32987000D01*
X46009250Y-32987000D01*
X45987809Y-32985947D01*
X45966574Y-32982797D01*
X45945750Y-32977581D01*
X45925538Y-32970349D01*
X45906132Y-32961170D01*
X45887719Y-32950134D01*
X45870476Y-32937346D01*
X45854570Y-32922930D01*
X45840154Y-32907024D01*
X45827366Y-32889781D01*
X45816330Y-32871368D01*
X45807151Y-32851962D01*
X45799919Y-32831750D01*
X45794703Y-32810926D01*
X45791553Y-32789691D01*
X45790500Y-32768250D01*
X45790500Y-32255750D01*
X45791553Y-32234309D01*
X45794703Y-32213074D01*
X45799919Y-32192250D01*
X45807151Y-32172038D01*
X45816330Y-32152632D01*
X45827366Y-32134219D01*
X45840154Y-32116976D01*
X45854570Y-32101070D01*
X45870476Y-32086654D01*
X45887719Y-32073866D01*
X45906132Y-32062830D01*
X45925538Y-32053651D01*
X45945750Y-32046419D01*
X45966574Y-32041203D01*
X45987809Y-32038053D01*
X46009250Y-32037000D01*
X46446750Y-32037000D01*
X46468191Y-32038053D01*
G37*
G36*
X37552691Y-32038053D02*
G01*
X37573926Y-32041203D01*
X37594750Y-32046419D01*
X37614962Y-32053651D01*
X37634368Y-32062830D01*
X37652781Y-32073866D01*
X37670024Y-32086654D01*
X37685930Y-32101070D01*
X37700346Y-32116976D01*
X37713134Y-32134219D01*
X37724170Y-32152632D01*
X37733349Y-32172038D01*
X37740581Y-32192250D01*
X37745797Y-32213074D01*
X37748947Y-32234309D01*
X37750000Y-32255750D01*
X37750000Y-32768250D01*
X37748947Y-32789691D01*
X37745797Y-32810926D01*
X37740581Y-32831750D01*
X37733349Y-32851962D01*
X37724170Y-32871368D01*
X37713134Y-32889781D01*
X37700346Y-32907024D01*
X37685930Y-32922930D01*
X37670024Y-32937346D01*
X37652781Y-32950134D01*
X37634368Y-32961170D01*
X37614962Y-32970349D01*
X37594750Y-32977581D01*
X37573926Y-32982797D01*
X37552691Y-32985947D01*
X37531250Y-32987000D01*
X37093750Y-32987000D01*
X37072309Y-32985947D01*
X37051074Y-32982797D01*
X37030250Y-32977581D01*
X37010038Y-32970349D01*
X36990632Y-32961170D01*
X36972219Y-32950134D01*
X36954976Y-32937346D01*
X36939070Y-32922930D01*
X36924654Y-32907024D01*
X36911866Y-32889781D01*
X36900830Y-32871368D01*
X36891651Y-32851962D01*
X36884419Y-32831750D01*
X36879203Y-32810926D01*
X36876053Y-32789691D01*
X36875000Y-32768250D01*
X36875000Y-32255750D01*
X36876053Y-32234309D01*
X36879203Y-32213074D01*
X36884419Y-32192250D01*
X36891651Y-32172038D01*
X36900830Y-32152632D01*
X36911866Y-32134219D01*
X36924654Y-32116976D01*
X36939070Y-32101070D01*
X36954976Y-32086654D01*
X36972219Y-32073866D01*
X36990632Y-32062830D01*
X37010038Y-32053651D01*
X37030250Y-32046419D01*
X37051074Y-32041203D01*
X37072309Y-32038053D01*
X37093750Y-32037000D01*
X37531250Y-32037000D01*
X37552691Y-32038053D01*
G37*
G36*
X39127691Y-32038053D02*
G01*
X39148926Y-32041203D01*
X39169750Y-32046419D01*
X39189962Y-32053651D01*
X39209368Y-32062830D01*
X39227781Y-32073866D01*
X39245024Y-32086654D01*
X39260930Y-32101070D01*
X39275346Y-32116976D01*
X39288134Y-32134219D01*
X39299170Y-32152632D01*
X39308349Y-32172038D01*
X39315581Y-32192250D01*
X39320797Y-32213074D01*
X39323947Y-32234309D01*
X39325000Y-32255750D01*
X39325000Y-32768250D01*
X39323947Y-32789691D01*
X39320797Y-32810926D01*
X39315581Y-32831750D01*
X39308349Y-32851962D01*
X39299170Y-32871368D01*
X39288134Y-32889781D01*
X39275346Y-32907024D01*
X39260930Y-32922930D01*
X39245024Y-32937346D01*
X39227781Y-32950134D01*
X39209368Y-32961170D01*
X39189962Y-32970349D01*
X39169750Y-32977581D01*
X39148926Y-32982797D01*
X39127691Y-32985947D01*
X39106250Y-32987000D01*
X38668750Y-32987000D01*
X38647309Y-32985947D01*
X38626074Y-32982797D01*
X38605250Y-32977581D01*
X38585038Y-32970349D01*
X38565632Y-32961170D01*
X38547219Y-32950134D01*
X38529976Y-32937346D01*
X38514070Y-32922930D01*
X38499654Y-32907024D01*
X38486866Y-32889781D01*
X38475830Y-32871368D01*
X38466651Y-32851962D01*
X38459419Y-32831750D01*
X38454203Y-32810926D01*
X38451053Y-32789691D01*
X38450000Y-32768250D01*
X38450000Y-32255750D01*
X38451053Y-32234309D01*
X38454203Y-32213074D01*
X38459419Y-32192250D01*
X38466651Y-32172038D01*
X38475830Y-32152632D01*
X38486866Y-32134219D01*
X38499654Y-32116976D01*
X38514070Y-32101070D01*
X38529976Y-32086654D01*
X38547219Y-32073866D01*
X38565632Y-32062830D01*
X38585038Y-32053651D01*
X38605250Y-32046419D01*
X38626074Y-32041203D01*
X38647309Y-32038053D01*
X38668750Y-32037000D01*
X39106250Y-32037000D01*
X39127691Y-32038053D01*
G37*
G36*
X57517191Y-24291053D02*
G01*
X57538426Y-24294203D01*
X57559250Y-24299419D01*
X57579462Y-24306651D01*
X57598868Y-24315830D01*
X57617281Y-24326866D01*
X57634524Y-24339654D01*
X57650430Y-24354070D01*
X57664846Y-24369976D01*
X57677634Y-24387219D01*
X57688670Y-24405632D01*
X57697849Y-24425038D01*
X57705081Y-24445250D01*
X57710297Y-24466074D01*
X57713447Y-24487309D01*
X57714500Y-24508750D01*
X57714500Y-25021250D01*
X57713447Y-25042691D01*
X57710297Y-25063926D01*
X57705081Y-25084750D01*
X57697849Y-25104962D01*
X57688670Y-25124368D01*
X57677634Y-25142781D01*
X57664846Y-25160024D01*
X57650430Y-25175930D01*
X57634524Y-25190346D01*
X57617281Y-25203134D01*
X57598868Y-25214170D01*
X57579462Y-25223349D01*
X57559250Y-25230581D01*
X57538426Y-25235797D01*
X57517191Y-25238947D01*
X57495750Y-25240000D01*
X57058250Y-25240000D01*
X57036809Y-25238947D01*
X57015574Y-25235797D01*
X56994750Y-25230581D01*
X56974538Y-25223349D01*
X56955132Y-25214170D01*
X56936719Y-25203134D01*
X56919476Y-25190346D01*
X56903570Y-25175930D01*
X56889154Y-25160024D01*
X56876366Y-25142781D01*
X56865330Y-25124368D01*
X56856151Y-25104962D01*
X56848919Y-25084750D01*
X56843703Y-25063926D01*
X56840553Y-25042691D01*
X56839500Y-25021250D01*
X56839500Y-24508750D01*
X56840553Y-24487309D01*
X56843703Y-24466074D01*
X56848919Y-24445250D01*
X56856151Y-24425038D01*
X56865330Y-24405632D01*
X56876366Y-24387219D01*
X56889154Y-24369976D01*
X56903570Y-24354070D01*
X56919476Y-24339654D01*
X56936719Y-24326866D01*
X56955132Y-24315830D01*
X56974538Y-24306651D01*
X56994750Y-24299419D01*
X57015574Y-24294203D01*
X57036809Y-24291053D01*
X57058250Y-24290000D01*
X57495750Y-24290000D01*
X57517191Y-24291053D01*
G37*
G36*
X55942191Y-24291053D02*
G01*
X55963426Y-24294203D01*
X55984250Y-24299419D01*
X56004462Y-24306651D01*
X56023868Y-24315830D01*
X56042281Y-24326866D01*
X56059524Y-24339654D01*
X56075430Y-24354070D01*
X56089846Y-24369976D01*
X56102634Y-24387219D01*
X56113670Y-24405632D01*
X56122849Y-24425038D01*
X56130081Y-24445250D01*
X56135297Y-24466074D01*
X56138447Y-24487309D01*
X56139500Y-24508750D01*
X56139500Y-25021250D01*
X56138447Y-25042691D01*
X56135297Y-25063926D01*
X56130081Y-25084750D01*
X56122849Y-25104962D01*
X56113670Y-25124368D01*
X56102634Y-25142781D01*
X56089846Y-25160024D01*
X56075430Y-25175930D01*
X56059524Y-25190346D01*
X56042281Y-25203134D01*
X56023868Y-25214170D01*
X56004462Y-25223349D01*
X55984250Y-25230581D01*
X55963426Y-25235797D01*
X55942191Y-25238947D01*
X55920750Y-25240000D01*
X55483250Y-25240000D01*
X55461809Y-25238947D01*
X55440574Y-25235797D01*
X55419750Y-25230581D01*
X55399538Y-25223349D01*
X55380132Y-25214170D01*
X55361719Y-25203134D01*
X55344476Y-25190346D01*
X55328570Y-25175930D01*
X55314154Y-25160024D01*
X55301366Y-25142781D01*
X55290330Y-25124368D01*
X55281151Y-25104962D01*
X55273919Y-25084750D01*
X55268703Y-25063926D01*
X55265553Y-25042691D01*
X55264500Y-25021250D01*
X55264500Y-24508750D01*
X55265553Y-24487309D01*
X55268703Y-24466074D01*
X55273919Y-24445250D01*
X55281151Y-24425038D01*
X55290330Y-24405632D01*
X55301366Y-24387219D01*
X55314154Y-24369976D01*
X55328570Y-24354070D01*
X55344476Y-24339654D01*
X55361719Y-24326866D01*
X55380132Y-24315830D01*
X55399538Y-24306651D01*
X55419750Y-24299419D01*
X55440574Y-24294203D01*
X55461809Y-24291053D01*
X55483250Y-24290000D01*
X55920750Y-24290000D01*
X55942191Y-24291053D01*
G37*
G36*
X42124691Y-32038053D02*
G01*
X42145926Y-32041203D01*
X42166750Y-32046419D01*
X42186962Y-32053651D01*
X42206368Y-32062830D01*
X42224781Y-32073866D01*
X42242024Y-32086654D01*
X42257930Y-32101070D01*
X42272346Y-32116976D01*
X42285134Y-32134219D01*
X42296170Y-32152632D01*
X42305349Y-32172038D01*
X42312581Y-32192250D01*
X42317797Y-32213074D01*
X42320947Y-32234309D01*
X42322000Y-32255750D01*
X42322000Y-32768250D01*
X42320947Y-32789691D01*
X42317797Y-32810926D01*
X42312581Y-32831750D01*
X42305349Y-32851962D01*
X42296170Y-32871368D01*
X42285134Y-32889781D01*
X42272346Y-32907024D01*
X42257930Y-32922930D01*
X42242024Y-32937346D01*
X42224781Y-32950134D01*
X42206368Y-32961170D01*
X42186962Y-32970349D01*
X42166750Y-32977581D01*
X42145926Y-32982797D01*
X42124691Y-32985947D01*
X42103250Y-32987000D01*
X41665750Y-32987000D01*
X41644309Y-32985947D01*
X41623074Y-32982797D01*
X41602250Y-32977581D01*
X41582038Y-32970349D01*
X41562632Y-32961170D01*
X41544219Y-32950134D01*
X41526976Y-32937346D01*
X41511070Y-32922930D01*
X41496654Y-32907024D01*
X41483866Y-32889781D01*
X41472830Y-32871368D01*
X41463651Y-32851962D01*
X41456419Y-32831750D01*
X41451203Y-32810926D01*
X41448053Y-32789691D01*
X41447000Y-32768250D01*
X41447000Y-32255750D01*
X41448053Y-32234309D01*
X41451203Y-32213074D01*
X41456419Y-32192250D01*
X41463651Y-32172038D01*
X41472830Y-32152632D01*
X41483866Y-32134219D01*
X41496654Y-32116976D01*
X41511070Y-32101070D01*
X41526976Y-32086654D01*
X41544219Y-32073866D01*
X41562632Y-32062830D01*
X41582038Y-32053651D01*
X41602250Y-32046419D01*
X41623074Y-32041203D01*
X41644309Y-32038053D01*
X41665750Y-32037000D01*
X42103250Y-32037000D01*
X42124691Y-32038053D01*
G37*
G36*
X43699691Y-32038053D02*
G01*
X43720926Y-32041203D01*
X43741750Y-32046419D01*
X43761962Y-32053651D01*
X43781368Y-32062830D01*
X43799781Y-32073866D01*
X43817024Y-32086654D01*
X43832930Y-32101070D01*
X43847346Y-32116976D01*
X43860134Y-32134219D01*
X43871170Y-32152632D01*
X43880349Y-32172038D01*
X43887581Y-32192250D01*
X43892797Y-32213074D01*
X43895947Y-32234309D01*
X43897000Y-32255750D01*
X43897000Y-32768250D01*
X43895947Y-32789691D01*
X43892797Y-32810926D01*
X43887581Y-32831750D01*
X43880349Y-32851962D01*
X43871170Y-32871368D01*
X43860134Y-32889781D01*
X43847346Y-32907024D01*
X43832930Y-32922930D01*
X43817024Y-32937346D01*
X43799781Y-32950134D01*
X43781368Y-32961170D01*
X43761962Y-32970349D01*
X43741750Y-32977581D01*
X43720926Y-32982797D01*
X43699691Y-32985947D01*
X43678250Y-32987000D01*
X43240750Y-32987000D01*
X43219309Y-32985947D01*
X43198074Y-32982797D01*
X43177250Y-32977581D01*
X43157038Y-32970349D01*
X43137632Y-32961170D01*
X43119219Y-32950134D01*
X43101976Y-32937346D01*
X43086070Y-32922930D01*
X43071654Y-32907024D01*
X43058866Y-32889781D01*
X43047830Y-32871368D01*
X43038651Y-32851962D01*
X43031419Y-32831750D01*
X43026203Y-32810926D01*
X43023053Y-32789691D01*
X43022000Y-32768250D01*
X43022000Y-32255750D01*
X43023053Y-32234309D01*
X43026203Y-32213074D01*
X43031419Y-32192250D01*
X43038651Y-32172038D01*
X43047830Y-32152632D01*
X43058866Y-32134219D01*
X43071654Y-32116976D01*
X43086070Y-32101070D01*
X43101976Y-32086654D01*
X43119219Y-32073866D01*
X43137632Y-32062830D01*
X43157038Y-32053651D01*
X43177250Y-32046419D01*
X43198074Y-32041203D01*
X43219309Y-32038053D01*
X43240750Y-32037000D01*
X43678250Y-32037000D01*
X43699691Y-32038053D01*
G37*
G36*
X55993191Y-34451053D02*
G01*
X56014426Y-34454203D01*
X56035250Y-34459419D01*
X56055462Y-34466651D01*
X56074868Y-34475830D01*
X56093281Y-34486866D01*
X56110524Y-34499654D01*
X56126430Y-34514070D01*
X56140846Y-34529976D01*
X56153634Y-34547219D01*
X56164670Y-34565632D01*
X56173849Y-34585038D01*
X56181081Y-34605250D01*
X56186297Y-34626074D01*
X56189447Y-34647309D01*
X56190500Y-34668750D01*
X56190500Y-35181250D01*
X56189447Y-35202691D01*
X56186297Y-35223926D01*
X56181081Y-35244750D01*
X56173849Y-35264962D01*
X56164670Y-35284368D01*
X56153634Y-35302781D01*
X56140846Y-35320024D01*
X56126430Y-35335930D01*
X56110524Y-35350346D01*
X56093281Y-35363134D01*
X56074868Y-35374170D01*
X56055462Y-35383349D01*
X56035250Y-35390581D01*
X56014426Y-35395797D01*
X55993191Y-35398947D01*
X55971750Y-35400000D01*
X55534250Y-35400000D01*
X55512809Y-35398947D01*
X55491574Y-35395797D01*
X55470750Y-35390581D01*
X55450538Y-35383349D01*
X55431132Y-35374170D01*
X55412719Y-35363134D01*
X55395476Y-35350346D01*
X55379570Y-35335930D01*
X55365154Y-35320024D01*
X55352366Y-35302781D01*
X55341330Y-35284368D01*
X55332151Y-35264962D01*
X55324919Y-35244750D01*
X55319703Y-35223926D01*
X55316553Y-35202691D01*
X55315500Y-35181250D01*
X55315500Y-34668750D01*
X55316553Y-34647309D01*
X55319703Y-34626074D01*
X55324919Y-34605250D01*
X55332151Y-34585038D01*
X55341330Y-34565632D01*
X55352366Y-34547219D01*
X55365154Y-34529976D01*
X55379570Y-34514070D01*
X55395476Y-34499654D01*
X55412719Y-34486866D01*
X55431132Y-34475830D01*
X55450538Y-34466651D01*
X55470750Y-34459419D01*
X55491574Y-34454203D01*
X55512809Y-34451053D01*
X55534250Y-34450000D01*
X55971750Y-34450000D01*
X55993191Y-34451053D01*
G37*
G36*
X57568191Y-34451053D02*
G01*
X57589426Y-34454203D01*
X57610250Y-34459419D01*
X57630462Y-34466651D01*
X57649868Y-34475830D01*
X57668281Y-34486866D01*
X57685524Y-34499654D01*
X57701430Y-34514070D01*
X57715846Y-34529976D01*
X57728634Y-34547219D01*
X57739670Y-34565632D01*
X57748849Y-34585038D01*
X57756081Y-34605250D01*
X57761297Y-34626074D01*
X57764447Y-34647309D01*
X57765500Y-34668750D01*
X57765500Y-35181250D01*
X57764447Y-35202691D01*
X57761297Y-35223926D01*
X57756081Y-35244750D01*
X57748849Y-35264962D01*
X57739670Y-35284368D01*
X57728634Y-35302781D01*
X57715846Y-35320024D01*
X57701430Y-35335930D01*
X57685524Y-35350346D01*
X57668281Y-35363134D01*
X57649868Y-35374170D01*
X57630462Y-35383349D01*
X57610250Y-35390581D01*
X57589426Y-35395797D01*
X57568191Y-35398947D01*
X57546750Y-35400000D01*
X57109250Y-35400000D01*
X57087809Y-35398947D01*
X57066574Y-35395797D01*
X57045750Y-35390581D01*
X57025538Y-35383349D01*
X57006132Y-35374170D01*
X56987719Y-35363134D01*
X56970476Y-35350346D01*
X56954570Y-35335930D01*
X56940154Y-35320024D01*
X56927366Y-35302781D01*
X56916330Y-35284368D01*
X56907151Y-35264962D01*
X56899919Y-35244750D01*
X56894703Y-35223926D01*
X56891553Y-35202691D01*
X56890500Y-35181250D01*
X56890500Y-34668750D01*
X56891553Y-34647309D01*
X56894703Y-34626074D01*
X56899919Y-34605250D01*
X56907151Y-34585038D01*
X56916330Y-34565632D01*
X56927366Y-34547219D01*
X56940154Y-34529976D01*
X56954570Y-34514070D01*
X56970476Y-34499654D01*
X56987719Y-34486866D01*
X57006132Y-34475830D01*
X57025538Y-34466651D01*
X57045750Y-34459419D01*
X57066574Y-34454203D01*
X57087809Y-34451053D01*
X57109250Y-34450000D01*
X57546750Y-34450000D01*
X57568191Y-34451053D01*
G37*
G36*
X43699691Y-34578053D02*
G01*
X43720926Y-34581203D01*
X43741750Y-34586419D01*
X43761962Y-34593651D01*
X43781368Y-34602830D01*
X43799781Y-34613866D01*
X43817024Y-34626654D01*
X43832930Y-34641070D01*
X43847346Y-34656976D01*
X43860134Y-34674219D01*
X43871170Y-34692632D01*
X43880349Y-34712038D01*
X43887581Y-34732250D01*
X43892797Y-34753074D01*
X43895947Y-34774309D01*
X43897000Y-34795750D01*
X43897000Y-35308250D01*
X43895947Y-35329691D01*
X43892797Y-35350926D01*
X43887581Y-35371750D01*
X43880349Y-35391962D01*
X43871170Y-35411368D01*
X43860134Y-35429781D01*
X43847346Y-35447024D01*
X43832930Y-35462930D01*
X43817024Y-35477346D01*
X43799781Y-35490134D01*
X43781368Y-35501170D01*
X43761962Y-35510349D01*
X43741750Y-35517581D01*
X43720926Y-35522797D01*
X43699691Y-35525947D01*
X43678250Y-35527000D01*
X43240750Y-35527000D01*
X43219309Y-35525947D01*
X43198074Y-35522797D01*
X43177250Y-35517581D01*
X43157038Y-35510349D01*
X43137632Y-35501170D01*
X43119219Y-35490134D01*
X43101976Y-35477346D01*
X43086070Y-35462930D01*
X43071654Y-35447024D01*
X43058866Y-35429781D01*
X43047830Y-35411368D01*
X43038651Y-35391962D01*
X43031419Y-35371750D01*
X43026203Y-35350926D01*
X43023053Y-35329691D01*
X43022000Y-35308250D01*
X43022000Y-34795750D01*
X43023053Y-34774309D01*
X43026203Y-34753074D01*
X43031419Y-34732250D01*
X43038651Y-34712038D01*
X43047830Y-34692632D01*
X43058866Y-34674219D01*
X43071654Y-34656976D01*
X43086070Y-34641070D01*
X43101976Y-34626654D01*
X43119219Y-34613866D01*
X43137632Y-34602830D01*
X43157038Y-34593651D01*
X43177250Y-34586419D01*
X43198074Y-34581203D01*
X43219309Y-34578053D01*
X43240750Y-34577000D01*
X43678250Y-34577000D01*
X43699691Y-34578053D01*
G37*
G36*
X42124691Y-34578053D02*
G01*
X42145926Y-34581203D01*
X42166750Y-34586419D01*
X42186962Y-34593651D01*
X42206368Y-34602830D01*
X42224781Y-34613866D01*
X42242024Y-34626654D01*
X42257930Y-34641070D01*
X42272346Y-34656976D01*
X42285134Y-34674219D01*
X42296170Y-34692632D01*
X42305349Y-34712038D01*
X42312581Y-34732250D01*
X42317797Y-34753074D01*
X42320947Y-34774309D01*
X42322000Y-34795750D01*
X42322000Y-35308250D01*
X42320947Y-35329691D01*
X42317797Y-35350926D01*
X42312581Y-35371750D01*
X42305349Y-35391962D01*
X42296170Y-35411368D01*
X42285134Y-35429781D01*
X42272346Y-35447024D01*
X42257930Y-35462930D01*
X42242024Y-35477346D01*
X42224781Y-35490134D01*
X42206368Y-35501170D01*
X42186962Y-35510349D01*
X42166750Y-35517581D01*
X42145926Y-35522797D01*
X42124691Y-35525947D01*
X42103250Y-35527000D01*
X41665750Y-35527000D01*
X41644309Y-35525947D01*
X41623074Y-35522797D01*
X41602250Y-35517581D01*
X41582038Y-35510349D01*
X41562632Y-35501170D01*
X41544219Y-35490134D01*
X41526976Y-35477346D01*
X41511070Y-35462930D01*
X41496654Y-35447024D01*
X41483866Y-35429781D01*
X41472830Y-35411368D01*
X41463651Y-35391962D01*
X41456419Y-35371750D01*
X41451203Y-35350926D01*
X41448053Y-35329691D01*
X41447000Y-35308250D01*
X41447000Y-34795750D01*
X41448053Y-34774309D01*
X41451203Y-34753074D01*
X41456419Y-34732250D01*
X41463651Y-34712038D01*
X41472830Y-34692632D01*
X41483866Y-34674219D01*
X41496654Y-34656976D01*
X41511070Y-34641070D01*
X41526976Y-34626654D01*
X41544219Y-34613866D01*
X41562632Y-34602830D01*
X41582038Y-34593651D01*
X41602250Y-34586419D01*
X41623074Y-34581203D01*
X41644309Y-34578053D01*
X41665750Y-34577000D01*
X42103250Y-34577000D01*
X42124691Y-34578053D01*
G37*
G36*
X50557691Y-24291053D02*
G01*
X50578926Y-24294203D01*
X50599750Y-24299419D01*
X50619962Y-24306651D01*
X50639368Y-24315830D01*
X50657781Y-24326866D01*
X50675024Y-24339654D01*
X50690930Y-24354070D01*
X50705346Y-24369976D01*
X50718134Y-24387219D01*
X50729170Y-24405632D01*
X50738349Y-24425038D01*
X50745581Y-24445250D01*
X50750797Y-24466074D01*
X50753947Y-24487309D01*
X50755000Y-24508750D01*
X50755000Y-25021250D01*
X50753947Y-25042691D01*
X50750797Y-25063926D01*
X50745581Y-25084750D01*
X50738349Y-25104962D01*
X50729170Y-25124368D01*
X50718134Y-25142781D01*
X50705346Y-25160024D01*
X50690930Y-25175930D01*
X50675024Y-25190346D01*
X50657781Y-25203134D01*
X50639368Y-25214170D01*
X50619962Y-25223349D01*
X50599750Y-25230581D01*
X50578926Y-25235797D01*
X50557691Y-25238947D01*
X50536250Y-25240000D01*
X50098750Y-25240000D01*
X50077309Y-25238947D01*
X50056074Y-25235797D01*
X50035250Y-25230581D01*
X50015038Y-25223349D01*
X49995632Y-25214170D01*
X49977219Y-25203134D01*
X49959976Y-25190346D01*
X49944070Y-25175930D01*
X49929654Y-25160024D01*
X49916866Y-25142781D01*
X49905830Y-25124368D01*
X49896651Y-25104962D01*
X49889419Y-25084750D01*
X49884203Y-25063926D01*
X49881053Y-25042691D01*
X49880000Y-25021250D01*
X49880000Y-24508750D01*
X49881053Y-24487309D01*
X49884203Y-24466074D01*
X49889419Y-24445250D01*
X49896651Y-24425038D01*
X49905830Y-24405632D01*
X49916866Y-24387219D01*
X49929654Y-24369976D01*
X49944070Y-24354070D01*
X49959976Y-24339654D01*
X49977219Y-24326866D01*
X49995632Y-24315830D01*
X50015038Y-24306651D01*
X50035250Y-24299419D01*
X50056074Y-24294203D01*
X50077309Y-24291053D01*
X50098750Y-24290000D01*
X50536250Y-24290000D01*
X50557691Y-24291053D01*
G37*
G36*
X48982691Y-24291053D02*
G01*
X49003926Y-24294203D01*
X49024750Y-24299419D01*
X49044962Y-24306651D01*
X49064368Y-24315830D01*
X49082781Y-24326866D01*
X49100024Y-24339654D01*
X49115930Y-24354070D01*
X49130346Y-24369976D01*
X49143134Y-24387219D01*
X49154170Y-24405632D01*
X49163349Y-24425038D01*
X49170581Y-24445250D01*
X49175797Y-24466074D01*
X49178947Y-24487309D01*
X49180000Y-24508750D01*
X49180000Y-25021250D01*
X49178947Y-25042691D01*
X49175797Y-25063926D01*
X49170581Y-25084750D01*
X49163349Y-25104962D01*
X49154170Y-25124368D01*
X49143134Y-25142781D01*
X49130346Y-25160024D01*
X49115930Y-25175930D01*
X49100024Y-25190346D01*
X49082781Y-25203134D01*
X49064368Y-25214170D01*
X49044962Y-25223349D01*
X49024750Y-25230581D01*
X49003926Y-25235797D01*
X48982691Y-25238947D01*
X48961250Y-25240000D01*
X48523750Y-25240000D01*
X48502309Y-25238947D01*
X48481074Y-25235797D01*
X48460250Y-25230581D01*
X48440038Y-25223349D01*
X48420632Y-25214170D01*
X48402219Y-25203134D01*
X48384976Y-25190346D01*
X48369070Y-25175930D01*
X48354654Y-25160024D01*
X48341866Y-25142781D01*
X48330830Y-25124368D01*
X48321651Y-25104962D01*
X48314419Y-25084750D01*
X48309203Y-25063926D01*
X48306053Y-25042691D01*
X48305000Y-25021250D01*
X48305000Y-24508750D01*
X48306053Y-24487309D01*
X48309203Y-24466074D01*
X48314419Y-24445250D01*
X48321651Y-24425038D01*
X48330830Y-24405632D01*
X48341866Y-24387219D01*
X48354654Y-24369976D01*
X48369070Y-24354070D01*
X48384976Y-24339654D01*
X48402219Y-24326866D01*
X48420632Y-24315830D01*
X48440038Y-24306651D01*
X48460250Y-24299419D01*
X48481074Y-24294203D01*
X48502309Y-24291053D01*
X48523750Y-24290000D01*
X48961250Y-24290000D01*
X48982691Y-24291053D01*
G37*
G36*
X42124691Y-29371053D02*
G01*
X42145926Y-29374203D01*
X42166750Y-29379419D01*
X42186962Y-29386651D01*
X42206368Y-29395830D01*
X42224781Y-29406866D01*
X42242024Y-29419654D01*
X42257930Y-29434070D01*
X42272346Y-29449976D01*
X42285134Y-29467219D01*
X42296170Y-29485632D01*
X42305349Y-29505038D01*
X42312581Y-29525250D01*
X42317797Y-29546074D01*
X42320947Y-29567309D01*
X42322000Y-29588750D01*
X42322000Y-30101250D01*
X42320947Y-30122691D01*
X42317797Y-30143926D01*
X42312581Y-30164750D01*
X42305349Y-30184962D01*
X42296170Y-30204368D01*
X42285134Y-30222781D01*
X42272346Y-30240024D01*
X42257930Y-30255930D01*
X42242024Y-30270346D01*
X42224781Y-30283134D01*
X42206368Y-30294170D01*
X42186962Y-30303349D01*
X42166750Y-30310581D01*
X42145926Y-30315797D01*
X42124691Y-30318947D01*
X42103250Y-30320000D01*
X41665750Y-30320000D01*
X41644309Y-30318947D01*
X41623074Y-30315797D01*
X41602250Y-30310581D01*
X41582038Y-30303349D01*
X41562632Y-30294170D01*
X41544219Y-30283134D01*
X41526976Y-30270346D01*
X41511070Y-30255930D01*
X41496654Y-30240024D01*
X41483866Y-30222781D01*
X41472830Y-30204368D01*
X41463651Y-30184962D01*
X41456419Y-30164750D01*
X41451203Y-30143926D01*
X41448053Y-30122691D01*
X41447000Y-30101250D01*
X41447000Y-29588750D01*
X41448053Y-29567309D01*
X41451203Y-29546074D01*
X41456419Y-29525250D01*
X41463651Y-29505038D01*
X41472830Y-29485632D01*
X41483866Y-29467219D01*
X41496654Y-29449976D01*
X41511070Y-29434070D01*
X41526976Y-29419654D01*
X41544219Y-29406866D01*
X41562632Y-29395830D01*
X41582038Y-29386651D01*
X41602250Y-29379419D01*
X41623074Y-29374203D01*
X41644309Y-29371053D01*
X41665750Y-29370000D01*
X42103250Y-29370000D01*
X42124691Y-29371053D01*
G37*
G36*
X43699691Y-29371053D02*
G01*
X43720926Y-29374203D01*
X43741750Y-29379419D01*
X43761962Y-29386651D01*
X43781368Y-29395830D01*
X43799781Y-29406866D01*
X43817024Y-29419654D01*
X43832930Y-29434070D01*
X43847346Y-29449976D01*
X43860134Y-29467219D01*
X43871170Y-29485632D01*
X43880349Y-29505038D01*
X43887581Y-29525250D01*
X43892797Y-29546074D01*
X43895947Y-29567309D01*
X43897000Y-29588750D01*
X43897000Y-30101250D01*
X43895947Y-30122691D01*
X43892797Y-30143926D01*
X43887581Y-30164750D01*
X43880349Y-30184962D01*
X43871170Y-30204368D01*
X43860134Y-30222781D01*
X43847346Y-30240024D01*
X43832930Y-30255930D01*
X43817024Y-30270346D01*
X43799781Y-30283134D01*
X43781368Y-30294170D01*
X43761962Y-30303349D01*
X43741750Y-30310581D01*
X43720926Y-30315797D01*
X43699691Y-30318947D01*
X43678250Y-30320000D01*
X43240750Y-30320000D01*
X43219309Y-30318947D01*
X43198074Y-30315797D01*
X43177250Y-30310581D01*
X43157038Y-30303349D01*
X43137632Y-30294170D01*
X43119219Y-30283134D01*
X43101976Y-30270346D01*
X43086070Y-30255930D01*
X43071654Y-30240024D01*
X43058866Y-30222781D01*
X43047830Y-30204368D01*
X43038651Y-30184962D01*
X43031419Y-30164750D01*
X43026203Y-30143926D01*
X43023053Y-30122691D01*
X43022000Y-30101250D01*
X43022000Y-29588750D01*
X43023053Y-29567309D01*
X43026203Y-29546074D01*
X43031419Y-29525250D01*
X43038651Y-29505038D01*
X43047830Y-29485632D01*
X43058866Y-29467219D01*
X43071654Y-29449976D01*
X43086070Y-29434070D01*
X43101976Y-29419654D01*
X43119219Y-29406866D01*
X43137632Y-29395830D01*
X43157038Y-29386651D01*
X43177250Y-29379419D01*
X43198074Y-29374203D01*
X43219309Y-29371053D01*
X43240750Y-29370000D01*
X43678250Y-29370000D01*
X43699691Y-29371053D01*
G37*
G36*
X43699691Y-26831053D02*
G01*
X43720926Y-26834203D01*
X43741750Y-26839419D01*
X43761962Y-26846651D01*
X43781368Y-26855830D01*
X43799781Y-26866866D01*
X43817024Y-26879654D01*
X43832930Y-26894070D01*
X43847346Y-26909976D01*
X43860134Y-26927219D01*
X43871170Y-26945632D01*
X43880349Y-26965038D01*
X43887581Y-26985250D01*
X43892797Y-27006074D01*
X43895947Y-27027309D01*
X43897000Y-27048750D01*
X43897000Y-27561250D01*
X43895947Y-27582691D01*
X43892797Y-27603926D01*
X43887581Y-27624750D01*
X43880349Y-27644962D01*
X43871170Y-27664368D01*
X43860134Y-27682781D01*
X43847346Y-27700024D01*
X43832930Y-27715930D01*
X43817024Y-27730346D01*
X43799781Y-27743134D01*
X43781368Y-27754170D01*
X43761962Y-27763349D01*
X43741750Y-27770581D01*
X43720926Y-27775797D01*
X43699691Y-27778947D01*
X43678250Y-27780000D01*
X43240750Y-27780000D01*
X43219309Y-27778947D01*
X43198074Y-27775797D01*
X43177250Y-27770581D01*
X43157038Y-27763349D01*
X43137632Y-27754170D01*
X43119219Y-27743134D01*
X43101976Y-27730346D01*
X43086070Y-27715930D01*
X43071654Y-27700024D01*
X43058866Y-27682781D01*
X43047830Y-27664368D01*
X43038651Y-27644962D01*
X43031419Y-27624750D01*
X43026203Y-27603926D01*
X43023053Y-27582691D01*
X43022000Y-27561250D01*
X43022000Y-27048750D01*
X43023053Y-27027309D01*
X43026203Y-27006074D01*
X43031419Y-26985250D01*
X43038651Y-26965038D01*
X43047830Y-26945632D01*
X43058866Y-26927219D01*
X43071654Y-26909976D01*
X43086070Y-26894070D01*
X43101976Y-26879654D01*
X43119219Y-26866866D01*
X43137632Y-26855830D01*
X43157038Y-26846651D01*
X43177250Y-26839419D01*
X43198074Y-26834203D01*
X43219309Y-26831053D01*
X43240750Y-26830000D01*
X43678250Y-26830000D01*
X43699691Y-26831053D01*
G37*
G36*
X42124691Y-26831053D02*
G01*
X42145926Y-26834203D01*
X42166750Y-26839419D01*
X42186962Y-26846651D01*
X42206368Y-26855830D01*
X42224781Y-26866866D01*
X42242024Y-26879654D01*
X42257930Y-26894070D01*
X42272346Y-26909976D01*
X42285134Y-26927219D01*
X42296170Y-26945632D01*
X42305349Y-26965038D01*
X42312581Y-26985250D01*
X42317797Y-27006074D01*
X42320947Y-27027309D01*
X42322000Y-27048750D01*
X42322000Y-27561250D01*
X42320947Y-27582691D01*
X42317797Y-27603926D01*
X42312581Y-27624750D01*
X42305349Y-27644962D01*
X42296170Y-27664368D01*
X42285134Y-27682781D01*
X42272346Y-27700024D01*
X42257930Y-27715930D01*
X42242024Y-27730346D01*
X42224781Y-27743134D01*
X42206368Y-27754170D01*
X42186962Y-27763349D01*
X42166750Y-27770581D01*
X42145926Y-27775797D01*
X42124691Y-27778947D01*
X42103250Y-27780000D01*
X41665750Y-27780000D01*
X41644309Y-27778947D01*
X41623074Y-27775797D01*
X41602250Y-27770581D01*
X41582038Y-27763349D01*
X41562632Y-27754170D01*
X41544219Y-27743134D01*
X41526976Y-27730346D01*
X41511070Y-27715930D01*
X41496654Y-27700024D01*
X41483866Y-27682781D01*
X41472830Y-27664368D01*
X41463651Y-27644962D01*
X41456419Y-27624750D01*
X41451203Y-27603926D01*
X41448053Y-27582691D01*
X41447000Y-27561250D01*
X41447000Y-27048750D01*
X41448053Y-27027309D01*
X41451203Y-27006074D01*
X41456419Y-26985250D01*
X41463651Y-26965038D01*
X41472830Y-26945632D01*
X41483866Y-26927219D01*
X41496654Y-26909976D01*
X41511070Y-26894070D01*
X41526976Y-26879654D01*
X41544219Y-26866866D01*
X41562632Y-26855830D01*
X41582038Y-26846651D01*
X41602250Y-26839419D01*
X41623074Y-26834203D01*
X41644309Y-26831053D01*
X41665750Y-26830000D01*
X42103250Y-26830000D01*
X42124691Y-26831053D01*
G37*
G36*
X52909703Y-30180722D02*
G01*
X52924264Y-30182882D01*
X52938543Y-30186459D01*
X52952403Y-30191418D01*
X52965710Y-30197712D01*
X52978336Y-30205280D01*
X52990159Y-30214048D01*
X53001066Y-30223934D01*
X53010952Y-30234841D01*
X53019720Y-30246664D01*
X53027288Y-30259290D01*
X53033582Y-30272597D01*
X53038541Y-30286457D01*
X53042118Y-30300736D01*
X53044278Y-30315297D01*
X53045000Y-30330000D01*
X53045000Y-30630000D01*
X53044278Y-30644703D01*
X53042118Y-30659264D01*
X53038541Y-30673543D01*
X53033582Y-30687403D01*
X53027288Y-30700710D01*
X53019720Y-30713336D01*
X53010952Y-30725159D01*
X53001066Y-30736066D01*
X52990159Y-30745952D01*
X52978336Y-30754720D01*
X52965710Y-30762288D01*
X52952403Y-30768582D01*
X52938543Y-30773541D01*
X52924264Y-30777118D01*
X52909703Y-30779278D01*
X52895000Y-30780000D01*
X51245000Y-30780000D01*
X51230297Y-30779278D01*
X51215736Y-30777118D01*
X51201457Y-30773541D01*
X51187597Y-30768582D01*
X51174290Y-30762288D01*
X51161664Y-30754720D01*
X51149841Y-30745952D01*
X51138934Y-30736066D01*
X51129048Y-30725159D01*
X51120280Y-30713336D01*
X51112712Y-30700710D01*
X51106418Y-30687403D01*
X51101459Y-30673543D01*
X51097882Y-30659264D01*
X51095722Y-30644703D01*
X51095000Y-30630000D01*
X51095000Y-30330000D01*
X51095722Y-30315297D01*
X51097882Y-30300736D01*
X51101459Y-30286457D01*
X51106418Y-30272597D01*
X51112712Y-30259290D01*
X51120280Y-30246664D01*
X51129048Y-30234841D01*
X51138934Y-30223934D01*
X51149841Y-30214048D01*
X51161664Y-30205280D01*
X51174290Y-30197712D01*
X51187597Y-30191418D01*
X51201457Y-30186459D01*
X51215736Y-30182882D01*
X51230297Y-30180722D01*
X51245000Y-30180000D01*
X52895000Y-30180000D01*
X52909703Y-30180722D01*
G37*
G36*
X52909703Y-28910722D02*
G01*
X52924264Y-28912882D01*
X52938543Y-28916459D01*
X52952403Y-28921418D01*
X52965710Y-28927712D01*
X52978336Y-28935280D01*
X52990159Y-28944048D01*
X53001066Y-28953934D01*
X53010952Y-28964841D01*
X53019720Y-28976664D01*
X53027288Y-28989290D01*
X53033582Y-29002597D01*
X53038541Y-29016457D01*
X53042118Y-29030736D01*
X53044278Y-29045297D01*
X53045000Y-29060000D01*
X53045000Y-29360000D01*
X53044278Y-29374703D01*
X53042118Y-29389264D01*
X53038541Y-29403543D01*
X53033582Y-29417403D01*
X53027288Y-29430710D01*
X53019720Y-29443336D01*
X53010952Y-29455159D01*
X53001066Y-29466066D01*
X52990159Y-29475952D01*
X52978336Y-29484720D01*
X52965710Y-29492288D01*
X52952403Y-29498582D01*
X52938543Y-29503541D01*
X52924264Y-29507118D01*
X52909703Y-29509278D01*
X52895000Y-29510000D01*
X51245000Y-29510000D01*
X51230297Y-29509278D01*
X51215736Y-29507118D01*
X51201457Y-29503541D01*
X51187597Y-29498582D01*
X51174290Y-29492288D01*
X51161664Y-29484720D01*
X51149841Y-29475952D01*
X51138934Y-29466066D01*
X51129048Y-29455159D01*
X51120280Y-29443336D01*
X51112712Y-29430710D01*
X51106418Y-29417403D01*
X51101459Y-29403543D01*
X51097882Y-29389264D01*
X51095722Y-29374703D01*
X51095000Y-29360000D01*
X51095000Y-29060000D01*
X51095722Y-29045297D01*
X51097882Y-29030736D01*
X51101459Y-29016457D01*
X51106418Y-29002597D01*
X51112712Y-28989290D01*
X51120280Y-28976664D01*
X51129048Y-28964841D01*
X51138934Y-28953934D01*
X51149841Y-28944048D01*
X51161664Y-28935280D01*
X51174290Y-28927712D01*
X51187597Y-28921418D01*
X51201457Y-28916459D01*
X51215736Y-28912882D01*
X51230297Y-28910722D01*
X51245000Y-28910000D01*
X52895000Y-28910000D01*
X52909703Y-28910722D01*
G37*
G36*
X52909703Y-27640722D02*
G01*
X52924264Y-27642882D01*
X52938543Y-27646459D01*
X52952403Y-27651418D01*
X52965710Y-27657712D01*
X52978336Y-27665280D01*
X52990159Y-27674048D01*
X53001066Y-27683934D01*
X53010952Y-27694841D01*
X53019720Y-27706664D01*
X53027288Y-27719290D01*
X53033582Y-27732597D01*
X53038541Y-27746457D01*
X53042118Y-27760736D01*
X53044278Y-27775297D01*
X53045000Y-27790000D01*
X53045000Y-28090000D01*
X53044278Y-28104703D01*
X53042118Y-28119264D01*
X53038541Y-28133543D01*
X53033582Y-28147403D01*
X53027288Y-28160710D01*
X53019720Y-28173336D01*
X53010952Y-28185159D01*
X53001066Y-28196066D01*
X52990159Y-28205952D01*
X52978336Y-28214720D01*
X52965710Y-28222288D01*
X52952403Y-28228582D01*
X52938543Y-28233541D01*
X52924264Y-28237118D01*
X52909703Y-28239278D01*
X52895000Y-28240000D01*
X51245000Y-28240000D01*
X51230297Y-28239278D01*
X51215736Y-28237118D01*
X51201457Y-28233541D01*
X51187597Y-28228582D01*
X51174290Y-28222288D01*
X51161664Y-28214720D01*
X51149841Y-28205952D01*
X51138934Y-28196066D01*
X51129048Y-28185159D01*
X51120280Y-28173336D01*
X51112712Y-28160710D01*
X51106418Y-28147403D01*
X51101459Y-28133543D01*
X51097882Y-28119264D01*
X51095722Y-28104703D01*
X51095000Y-28090000D01*
X51095000Y-27790000D01*
X51095722Y-27775297D01*
X51097882Y-27760736D01*
X51101459Y-27746457D01*
X51106418Y-27732597D01*
X51112712Y-27719290D01*
X51120280Y-27706664D01*
X51129048Y-27694841D01*
X51138934Y-27683934D01*
X51149841Y-27674048D01*
X51161664Y-27665280D01*
X51174290Y-27657712D01*
X51187597Y-27651418D01*
X51201457Y-27646459D01*
X51215736Y-27642882D01*
X51230297Y-27640722D01*
X51245000Y-27640000D01*
X52895000Y-27640000D01*
X52909703Y-27640722D01*
G37*
G36*
X52909703Y-26370722D02*
G01*
X52924264Y-26372882D01*
X52938543Y-26376459D01*
X52952403Y-26381418D01*
X52965710Y-26387712D01*
X52978336Y-26395280D01*
X52990159Y-26404048D01*
X53001066Y-26413934D01*
X53010952Y-26424841D01*
X53019720Y-26436664D01*
X53027288Y-26449290D01*
X53033582Y-26462597D01*
X53038541Y-26476457D01*
X53042118Y-26490736D01*
X53044278Y-26505297D01*
X53045000Y-26520000D01*
X53045000Y-26820000D01*
X53044278Y-26834703D01*
X53042118Y-26849264D01*
X53038541Y-26863543D01*
X53033582Y-26877403D01*
X53027288Y-26890710D01*
X53019720Y-26903336D01*
X53010952Y-26915159D01*
X53001066Y-26926066D01*
X52990159Y-26935952D01*
X52978336Y-26944720D01*
X52965710Y-26952288D01*
X52952403Y-26958582D01*
X52938543Y-26963541D01*
X52924264Y-26967118D01*
X52909703Y-26969278D01*
X52895000Y-26970000D01*
X51245000Y-26970000D01*
X51230297Y-26969278D01*
X51215736Y-26967118D01*
X51201457Y-26963541D01*
X51187597Y-26958582D01*
X51174290Y-26952288D01*
X51161664Y-26944720D01*
X51149841Y-26935952D01*
X51138934Y-26926066D01*
X51129048Y-26915159D01*
X51120280Y-26903336D01*
X51112712Y-26890710D01*
X51106418Y-26877403D01*
X51101459Y-26863543D01*
X51097882Y-26849264D01*
X51095722Y-26834703D01*
X51095000Y-26820000D01*
X51095000Y-26520000D01*
X51095722Y-26505297D01*
X51097882Y-26490736D01*
X51101459Y-26476457D01*
X51106418Y-26462597D01*
X51112712Y-26449290D01*
X51120280Y-26436664D01*
X51129048Y-26424841D01*
X51138934Y-26413934D01*
X51149841Y-26404048D01*
X51161664Y-26395280D01*
X51174290Y-26387712D01*
X51187597Y-26381418D01*
X51201457Y-26376459D01*
X51215736Y-26372882D01*
X51230297Y-26370722D01*
X51245000Y-26370000D01*
X52895000Y-26370000D01*
X52909703Y-26370722D01*
G37*
G36*
X47959703Y-26370722D02*
G01*
X47974264Y-26372882D01*
X47988543Y-26376459D01*
X48002403Y-26381418D01*
X48015710Y-26387712D01*
X48028336Y-26395280D01*
X48040159Y-26404048D01*
X48051066Y-26413934D01*
X48060952Y-26424841D01*
X48069720Y-26436664D01*
X48077288Y-26449290D01*
X48083582Y-26462597D01*
X48088541Y-26476457D01*
X48092118Y-26490736D01*
X48094278Y-26505297D01*
X48095000Y-26520000D01*
X48095000Y-26820000D01*
X48094278Y-26834703D01*
X48092118Y-26849264D01*
X48088541Y-26863543D01*
X48083582Y-26877403D01*
X48077288Y-26890710D01*
X48069720Y-26903336D01*
X48060952Y-26915159D01*
X48051066Y-26926066D01*
X48040159Y-26935952D01*
X48028336Y-26944720D01*
X48015710Y-26952288D01*
X48002403Y-26958582D01*
X47988543Y-26963541D01*
X47974264Y-26967118D01*
X47959703Y-26969278D01*
X47945000Y-26970000D01*
X46295000Y-26970000D01*
X46280297Y-26969278D01*
X46265736Y-26967118D01*
X46251457Y-26963541D01*
X46237597Y-26958582D01*
X46224290Y-26952288D01*
X46211664Y-26944720D01*
X46199841Y-26935952D01*
X46188934Y-26926066D01*
X46179048Y-26915159D01*
X46170280Y-26903336D01*
X46162712Y-26890710D01*
X46156418Y-26877403D01*
X46151459Y-26863543D01*
X46147882Y-26849264D01*
X46145722Y-26834703D01*
X46145000Y-26820000D01*
X46145000Y-26520000D01*
X46145722Y-26505297D01*
X46147882Y-26490736D01*
X46151459Y-26476457D01*
X46156418Y-26462597D01*
X46162712Y-26449290D01*
X46170280Y-26436664D01*
X46179048Y-26424841D01*
X46188934Y-26413934D01*
X46199841Y-26404048D01*
X46211664Y-26395280D01*
X46224290Y-26387712D01*
X46237597Y-26381418D01*
X46251457Y-26376459D01*
X46265736Y-26372882D01*
X46280297Y-26370722D01*
X46295000Y-26370000D01*
X47945000Y-26370000D01*
X47959703Y-26370722D01*
G37*
G36*
X47959703Y-27640722D02*
G01*
X47974264Y-27642882D01*
X47988543Y-27646459D01*
X48002403Y-27651418D01*
X48015710Y-27657712D01*
X48028336Y-27665280D01*
X48040159Y-27674048D01*
X48051066Y-27683934D01*
X48060952Y-27694841D01*
X48069720Y-27706664D01*
X48077288Y-27719290D01*
X48083582Y-27732597D01*
X48088541Y-27746457D01*
X48092118Y-27760736D01*
X48094278Y-27775297D01*
X48095000Y-27790000D01*
X48095000Y-28090000D01*
X48094278Y-28104703D01*
X48092118Y-28119264D01*
X48088541Y-28133543D01*
X48083582Y-28147403D01*
X48077288Y-28160710D01*
X48069720Y-28173336D01*
X48060952Y-28185159D01*
X48051066Y-28196066D01*
X48040159Y-28205952D01*
X48028336Y-28214720D01*
X48015710Y-28222288D01*
X48002403Y-28228582D01*
X47988543Y-28233541D01*
X47974264Y-28237118D01*
X47959703Y-28239278D01*
X47945000Y-28240000D01*
X46295000Y-28240000D01*
X46280297Y-28239278D01*
X46265736Y-28237118D01*
X46251457Y-28233541D01*
X46237597Y-28228582D01*
X46224290Y-28222288D01*
X46211664Y-28214720D01*
X46199841Y-28205952D01*
X46188934Y-28196066D01*
X46179048Y-28185159D01*
X46170280Y-28173336D01*
X46162712Y-28160710D01*
X46156418Y-28147403D01*
X46151459Y-28133543D01*
X46147882Y-28119264D01*
X46145722Y-28104703D01*
X46145000Y-28090000D01*
X46145000Y-27790000D01*
X46145722Y-27775297D01*
X46147882Y-27760736D01*
X46151459Y-27746457D01*
X46156418Y-27732597D01*
X46162712Y-27719290D01*
X46170280Y-27706664D01*
X46179048Y-27694841D01*
X46188934Y-27683934D01*
X46199841Y-27674048D01*
X46211664Y-27665280D01*
X46224290Y-27657712D01*
X46237597Y-27651418D01*
X46251457Y-27646459D01*
X46265736Y-27642882D01*
X46280297Y-27640722D01*
X46295000Y-27640000D01*
X47945000Y-27640000D01*
X47959703Y-27640722D01*
G37*
G36*
X47959703Y-28910722D02*
G01*
X47974264Y-28912882D01*
X47988543Y-28916459D01*
X48002403Y-28921418D01*
X48015710Y-28927712D01*
X48028336Y-28935280D01*
X48040159Y-28944048D01*
X48051066Y-28953934D01*
X48060952Y-28964841D01*
X48069720Y-28976664D01*
X48077288Y-28989290D01*
X48083582Y-29002597D01*
X48088541Y-29016457D01*
X48092118Y-29030736D01*
X48094278Y-29045297D01*
X48095000Y-29060000D01*
X48095000Y-29360000D01*
X48094278Y-29374703D01*
X48092118Y-29389264D01*
X48088541Y-29403543D01*
X48083582Y-29417403D01*
X48077288Y-29430710D01*
X48069720Y-29443336D01*
X48060952Y-29455159D01*
X48051066Y-29466066D01*
X48040159Y-29475952D01*
X48028336Y-29484720D01*
X48015710Y-29492288D01*
X48002403Y-29498582D01*
X47988543Y-29503541D01*
X47974264Y-29507118D01*
X47959703Y-29509278D01*
X47945000Y-29510000D01*
X46295000Y-29510000D01*
X46280297Y-29509278D01*
X46265736Y-29507118D01*
X46251457Y-29503541D01*
X46237597Y-29498582D01*
X46224290Y-29492288D01*
X46211664Y-29484720D01*
X46199841Y-29475952D01*
X46188934Y-29466066D01*
X46179048Y-29455159D01*
X46170280Y-29443336D01*
X46162712Y-29430710D01*
X46156418Y-29417403D01*
X46151459Y-29403543D01*
X46147882Y-29389264D01*
X46145722Y-29374703D01*
X46145000Y-29360000D01*
X46145000Y-29060000D01*
X46145722Y-29045297D01*
X46147882Y-29030736D01*
X46151459Y-29016457D01*
X46156418Y-29002597D01*
X46162712Y-28989290D01*
X46170280Y-28976664D01*
X46179048Y-28964841D01*
X46188934Y-28953934D01*
X46199841Y-28944048D01*
X46211664Y-28935280D01*
X46224290Y-28927712D01*
X46237597Y-28921418D01*
X46251457Y-28916459D01*
X46265736Y-28912882D01*
X46280297Y-28910722D01*
X46295000Y-28910000D01*
X47945000Y-28910000D01*
X47959703Y-28910722D01*
G37*
G36*
X47959703Y-30180722D02*
G01*
X47974264Y-30182882D01*
X47988543Y-30186459D01*
X48002403Y-30191418D01*
X48015710Y-30197712D01*
X48028336Y-30205280D01*
X48040159Y-30214048D01*
X48051066Y-30223934D01*
X48060952Y-30234841D01*
X48069720Y-30246664D01*
X48077288Y-30259290D01*
X48083582Y-30272597D01*
X48088541Y-30286457D01*
X48092118Y-30300736D01*
X48094278Y-30315297D01*
X48095000Y-30330000D01*
X48095000Y-30630000D01*
X48094278Y-30644703D01*
X48092118Y-30659264D01*
X48088541Y-30673543D01*
X48083582Y-30687403D01*
X48077288Y-30700710D01*
X48069720Y-30713336D01*
X48060952Y-30725159D01*
X48051066Y-30736066D01*
X48040159Y-30745952D01*
X48028336Y-30754720D01*
X48015710Y-30762288D01*
X48002403Y-30768582D01*
X47988543Y-30773541D01*
X47974264Y-30777118D01*
X47959703Y-30779278D01*
X47945000Y-30780000D01*
X46295000Y-30780000D01*
X46280297Y-30779278D01*
X46265736Y-30777118D01*
X46251457Y-30773541D01*
X46237597Y-30768582D01*
X46224290Y-30762288D01*
X46211664Y-30754720D01*
X46199841Y-30745952D01*
X46188934Y-30736066D01*
X46179048Y-30725159D01*
X46170280Y-30713336D01*
X46162712Y-30700710D01*
X46156418Y-30687403D01*
X46151459Y-30673543D01*
X46147882Y-30659264D01*
X46145722Y-30644703D01*
X46145000Y-30630000D01*
X46145000Y-30330000D01*
X46145722Y-30315297D01*
X46147882Y-30300736D01*
X46151459Y-30286457D01*
X46156418Y-30272597D01*
X46162712Y-30259290D01*
X46170280Y-30246664D01*
X46179048Y-30234841D01*
X46188934Y-30223934D01*
X46199841Y-30214048D01*
X46211664Y-30205280D01*
X46224290Y-30197712D01*
X46237597Y-30191418D01*
X46251457Y-30186459D01*
X46265736Y-30182882D01*
X46280297Y-30180722D01*
X46295000Y-30180000D01*
X47945000Y-30180000D01*
X47959703Y-30180722D01*
G37*
G36*
X43699691Y-37118053D02*
G01*
X43720926Y-37121203D01*
X43741750Y-37126419D01*
X43761962Y-37133651D01*
X43781368Y-37142830D01*
X43799781Y-37153866D01*
X43817024Y-37166654D01*
X43832930Y-37181070D01*
X43847346Y-37196976D01*
X43860134Y-37214219D01*
X43871170Y-37232632D01*
X43880349Y-37252038D01*
X43887581Y-37272250D01*
X43892797Y-37293074D01*
X43895947Y-37314309D01*
X43897000Y-37335750D01*
X43897000Y-37848250D01*
X43895947Y-37869691D01*
X43892797Y-37890926D01*
X43887581Y-37911750D01*
X43880349Y-37931962D01*
X43871170Y-37951368D01*
X43860134Y-37969781D01*
X43847346Y-37987024D01*
X43832930Y-38002930D01*
X43817024Y-38017346D01*
X43799781Y-38030134D01*
X43781368Y-38041170D01*
X43761962Y-38050349D01*
X43741750Y-38057581D01*
X43720926Y-38062797D01*
X43699691Y-38065947D01*
X43678250Y-38067000D01*
X43240750Y-38067000D01*
X43219309Y-38065947D01*
X43198074Y-38062797D01*
X43177250Y-38057581D01*
X43157038Y-38050349D01*
X43137632Y-38041170D01*
X43119219Y-38030134D01*
X43101976Y-38017346D01*
X43086070Y-38002930D01*
X43071654Y-37987024D01*
X43058866Y-37969781D01*
X43047830Y-37951368D01*
X43038651Y-37931962D01*
X43031419Y-37911750D01*
X43026203Y-37890926D01*
X43023053Y-37869691D01*
X43022000Y-37848250D01*
X43022000Y-37335750D01*
X43023053Y-37314309D01*
X43026203Y-37293074D01*
X43031419Y-37272250D01*
X43038651Y-37252038D01*
X43047830Y-37232632D01*
X43058866Y-37214219D01*
X43071654Y-37196976D01*
X43086070Y-37181070D01*
X43101976Y-37166654D01*
X43119219Y-37153866D01*
X43137632Y-37142830D01*
X43157038Y-37133651D01*
X43177250Y-37126419D01*
X43198074Y-37121203D01*
X43219309Y-37118053D01*
X43240750Y-37117000D01*
X43678250Y-37117000D01*
X43699691Y-37118053D01*
G37*
G36*
X42124691Y-37118053D02*
G01*
X42145926Y-37121203D01*
X42166750Y-37126419D01*
X42186962Y-37133651D01*
X42206368Y-37142830D01*
X42224781Y-37153866D01*
X42242024Y-37166654D01*
X42257930Y-37181070D01*
X42272346Y-37196976D01*
X42285134Y-37214219D01*
X42296170Y-37232632D01*
X42305349Y-37252038D01*
X42312581Y-37272250D01*
X42317797Y-37293074D01*
X42320947Y-37314309D01*
X42322000Y-37335750D01*
X42322000Y-37848250D01*
X42320947Y-37869691D01*
X42317797Y-37890926D01*
X42312581Y-37911750D01*
X42305349Y-37931962D01*
X42296170Y-37951368D01*
X42285134Y-37969781D01*
X42272346Y-37987024D01*
X42257930Y-38002930D01*
X42242024Y-38017346D01*
X42224781Y-38030134D01*
X42206368Y-38041170D01*
X42186962Y-38050349D01*
X42166750Y-38057581D01*
X42145926Y-38062797D01*
X42124691Y-38065947D01*
X42103250Y-38067000D01*
X41665750Y-38067000D01*
X41644309Y-38065947D01*
X41623074Y-38062797D01*
X41602250Y-38057581D01*
X41582038Y-38050349D01*
X41562632Y-38041170D01*
X41544219Y-38030134D01*
X41526976Y-38017346D01*
X41511070Y-38002930D01*
X41496654Y-37987024D01*
X41483866Y-37969781D01*
X41472830Y-37951368D01*
X41463651Y-37931962D01*
X41456419Y-37911750D01*
X41451203Y-37890926D01*
X41448053Y-37869691D01*
X41447000Y-37848250D01*
X41447000Y-37335750D01*
X41448053Y-37314309D01*
X41451203Y-37293074D01*
X41456419Y-37272250D01*
X41463651Y-37252038D01*
X41472830Y-37232632D01*
X41483866Y-37214219D01*
X41496654Y-37196976D01*
X41511070Y-37181070D01*
X41526976Y-37166654D01*
X41544219Y-37153866D01*
X41562632Y-37142830D01*
X41582038Y-37133651D01*
X41602250Y-37126419D01*
X41623074Y-37121203D01*
X41644309Y-37118053D01*
X41665750Y-37117000D01*
X42103250Y-37117000D01*
X42124691Y-37118053D01*
G37*
G36*
X55942191Y-28355053D02*
G01*
X55963426Y-28358203D01*
X55984250Y-28363419D01*
X56004462Y-28370651D01*
X56023868Y-28379830D01*
X56042281Y-28390866D01*
X56059524Y-28403654D01*
X56075430Y-28418070D01*
X56089846Y-28433976D01*
X56102634Y-28451219D01*
X56113670Y-28469632D01*
X56122849Y-28489038D01*
X56130081Y-28509250D01*
X56135297Y-28530074D01*
X56138447Y-28551309D01*
X56139500Y-28572750D01*
X56139500Y-29085250D01*
X56138447Y-29106691D01*
X56135297Y-29127926D01*
X56130081Y-29148750D01*
X56122849Y-29168962D01*
X56113670Y-29188368D01*
X56102634Y-29206781D01*
X56089846Y-29224024D01*
X56075430Y-29239930D01*
X56059524Y-29254346D01*
X56042281Y-29267134D01*
X56023868Y-29278170D01*
X56004462Y-29287349D01*
X55984250Y-29294581D01*
X55963426Y-29299797D01*
X55942191Y-29302947D01*
X55920750Y-29304000D01*
X55483250Y-29304000D01*
X55461809Y-29302947D01*
X55440574Y-29299797D01*
X55419750Y-29294581D01*
X55399538Y-29287349D01*
X55380132Y-29278170D01*
X55361719Y-29267134D01*
X55344476Y-29254346D01*
X55328570Y-29239930D01*
X55314154Y-29224024D01*
X55301366Y-29206781D01*
X55290330Y-29188368D01*
X55281151Y-29168962D01*
X55273919Y-29148750D01*
X55268703Y-29127926D01*
X55265553Y-29106691D01*
X55264500Y-29085250D01*
X55264500Y-28572750D01*
X55265553Y-28551309D01*
X55268703Y-28530074D01*
X55273919Y-28509250D01*
X55281151Y-28489038D01*
X55290330Y-28469632D01*
X55301366Y-28451219D01*
X55314154Y-28433976D01*
X55328570Y-28418070D01*
X55344476Y-28403654D01*
X55361719Y-28390866D01*
X55380132Y-28379830D01*
X55399538Y-28370651D01*
X55419750Y-28363419D01*
X55440574Y-28358203D01*
X55461809Y-28355053D01*
X55483250Y-28354000D01*
X55920750Y-28354000D01*
X55942191Y-28355053D01*
G37*
G36*
X57517191Y-28355053D02*
G01*
X57538426Y-28358203D01*
X57559250Y-28363419D01*
X57579462Y-28370651D01*
X57598868Y-28379830D01*
X57617281Y-28390866D01*
X57634524Y-28403654D01*
X57650430Y-28418070D01*
X57664846Y-28433976D01*
X57677634Y-28451219D01*
X57688670Y-28469632D01*
X57697849Y-28489038D01*
X57705081Y-28509250D01*
X57710297Y-28530074D01*
X57713447Y-28551309D01*
X57714500Y-28572750D01*
X57714500Y-29085250D01*
X57713447Y-29106691D01*
X57710297Y-29127926D01*
X57705081Y-29148750D01*
X57697849Y-29168962D01*
X57688670Y-29188368D01*
X57677634Y-29206781D01*
X57664846Y-29224024D01*
X57650430Y-29239930D01*
X57634524Y-29254346D01*
X57617281Y-29267134D01*
X57598868Y-29278170D01*
X57579462Y-29287349D01*
X57559250Y-29294581D01*
X57538426Y-29299797D01*
X57517191Y-29302947D01*
X57495750Y-29304000D01*
X57058250Y-29304000D01*
X57036809Y-29302947D01*
X57015574Y-29299797D01*
X56994750Y-29294581D01*
X56974538Y-29287349D01*
X56955132Y-29278170D01*
X56936719Y-29267134D01*
X56919476Y-29254346D01*
X56903570Y-29239930D01*
X56889154Y-29224024D01*
X56876366Y-29206781D01*
X56865330Y-29188368D01*
X56856151Y-29168962D01*
X56848919Y-29148750D01*
X56843703Y-29127926D01*
X56840553Y-29106691D01*
X56839500Y-29085250D01*
X56839500Y-28572750D01*
X56840553Y-28551309D01*
X56843703Y-28530074D01*
X56848919Y-28509250D01*
X56856151Y-28489038D01*
X56865330Y-28469632D01*
X56876366Y-28451219D01*
X56889154Y-28433976D01*
X56903570Y-28418070D01*
X56919476Y-28403654D01*
X56936719Y-28390866D01*
X56955132Y-28379830D01*
X56974538Y-28370651D01*
X56994750Y-28363419D01*
X57015574Y-28358203D01*
X57036809Y-28355053D01*
X57058250Y-28354000D01*
X57495750Y-28354000D01*
X57517191Y-28355053D01*
G37*
G36*
X68464691Y-24291053D02*
G01*
X68485926Y-24294203D01*
X68506750Y-24299419D01*
X68526962Y-24306651D01*
X68546368Y-24315830D01*
X68564781Y-24326866D01*
X68582024Y-24339654D01*
X68597930Y-24354070D01*
X68612346Y-24369976D01*
X68625134Y-24387219D01*
X68636170Y-24405632D01*
X68645349Y-24425038D01*
X68652581Y-24445250D01*
X68657797Y-24466074D01*
X68660947Y-24487309D01*
X68662000Y-24508750D01*
X68662000Y-25021250D01*
X68660947Y-25042691D01*
X68657797Y-25063926D01*
X68652581Y-25084750D01*
X68645349Y-25104962D01*
X68636170Y-25124368D01*
X68625134Y-25142781D01*
X68612346Y-25160024D01*
X68597930Y-25175930D01*
X68582024Y-25190346D01*
X68564781Y-25203134D01*
X68546368Y-25214170D01*
X68526962Y-25223349D01*
X68506750Y-25230581D01*
X68485926Y-25235797D01*
X68464691Y-25238947D01*
X68443250Y-25240000D01*
X68005750Y-25240000D01*
X67984309Y-25238947D01*
X67963074Y-25235797D01*
X67942250Y-25230581D01*
X67922038Y-25223349D01*
X67902632Y-25214170D01*
X67884219Y-25203134D01*
X67866976Y-25190346D01*
X67851070Y-25175930D01*
X67836654Y-25160024D01*
X67823866Y-25142781D01*
X67812830Y-25124368D01*
X67803651Y-25104962D01*
X67796419Y-25084750D01*
X67791203Y-25063926D01*
X67788053Y-25042691D01*
X67787000Y-25021250D01*
X67787000Y-24508750D01*
X67788053Y-24487309D01*
X67791203Y-24466074D01*
X67796419Y-24445250D01*
X67803651Y-24425038D01*
X67812830Y-24405632D01*
X67823866Y-24387219D01*
X67836654Y-24369976D01*
X67851070Y-24354070D01*
X67866976Y-24339654D01*
X67884219Y-24326866D01*
X67902632Y-24315830D01*
X67922038Y-24306651D01*
X67942250Y-24299419D01*
X67963074Y-24294203D01*
X67984309Y-24291053D01*
X68005750Y-24290000D01*
X68443250Y-24290000D01*
X68464691Y-24291053D01*
G37*
G36*
X66889691Y-24291053D02*
G01*
X66910926Y-24294203D01*
X66931750Y-24299419D01*
X66951962Y-24306651D01*
X66971368Y-24315830D01*
X66989781Y-24326866D01*
X67007024Y-24339654D01*
X67022930Y-24354070D01*
X67037346Y-24369976D01*
X67050134Y-24387219D01*
X67061170Y-24405632D01*
X67070349Y-24425038D01*
X67077581Y-24445250D01*
X67082797Y-24466074D01*
X67085947Y-24487309D01*
X67087000Y-24508750D01*
X67087000Y-25021250D01*
X67085947Y-25042691D01*
X67082797Y-25063926D01*
X67077581Y-25084750D01*
X67070349Y-25104962D01*
X67061170Y-25124368D01*
X67050134Y-25142781D01*
X67037346Y-25160024D01*
X67022930Y-25175930D01*
X67007024Y-25190346D01*
X66989781Y-25203134D01*
X66971368Y-25214170D01*
X66951962Y-25223349D01*
X66931750Y-25230581D01*
X66910926Y-25235797D01*
X66889691Y-25238947D01*
X66868250Y-25240000D01*
X66430750Y-25240000D01*
X66409309Y-25238947D01*
X66388074Y-25235797D01*
X66367250Y-25230581D01*
X66347038Y-25223349D01*
X66327632Y-25214170D01*
X66309219Y-25203134D01*
X66291976Y-25190346D01*
X66276070Y-25175930D01*
X66261654Y-25160024D01*
X66248866Y-25142781D01*
X66237830Y-25124368D01*
X66228651Y-25104962D01*
X66221419Y-25084750D01*
X66216203Y-25063926D01*
X66213053Y-25042691D01*
X66212000Y-25021250D01*
X66212000Y-24508750D01*
X66213053Y-24487309D01*
X66216203Y-24466074D01*
X66221419Y-24445250D01*
X66228651Y-24425038D01*
X66237830Y-24405632D01*
X66248866Y-24387219D01*
X66261654Y-24369976D01*
X66276070Y-24354070D01*
X66291976Y-24339654D01*
X66309219Y-24326866D01*
X66327632Y-24315830D01*
X66347038Y-24306651D01*
X66367250Y-24299419D01*
X66388074Y-24294203D01*
X66409309Y-24291053D01*
X66430750Y-24290000D01*
X66868250Y-24290000D01*
X66889691Y-24291053D01*
G37*
G36*
X62952691Y-24291053D02*
G01*
X62973926Y-24294203D01*
X62994750Y-24299419D01*
X63014962Y-24306651D01*
X63034368Y-24315830D01*
X63052781Y-24326866D01*
X63070024Y-24339654D01*
X63085930Y-24354070D01*
X63100346Y-24369976D01*
X63113134Y-24387219D01*
X63124170Y-24405632D01*
X63133349Y-24425038D01*
X63140581Y-24445250D01*
X63145797Y-24466074D01*
X63148947Y-24487309D01*
X63150000Y-24508750D01*
X63150000Y-25021250D01*
X63148947Y-25042691D01*
X63145797Y-25063926D01*
X63140581Y-25084750D01*
X63133349Y-25104962D01*
X63124170Y-25124368D01*
X63113134Y-25142781D01*
X63100346Y-25160024D01*
X63085930Y-25175930D01*
X63070024Y-25190346D01*
X63052781Y-25203134D01*
X63034368Y-25214170D01*
X63014962Y-25223349D01*
X62994750Y-25230581D01*
X62973926Y-25235797D01*
X62952691Y-25238947D01*
X62931250Y-25240000D01*
X62493750Y-25240000D01*
X62472309Y-25238947D01*
X62451074Y-25235797D01*
X62430250Y-25230581D01*
X62410038Y-25223349D01*
X62390632Y-25214170D01*
X62372219Y-25203134D01*
X62354976Y-25190346D01*
X62339070Y-25175930D01*
X62324654Y-25160024D01*
X62311866Y-25142781D01*
X62300830Y-25124368D01*
X62291651Y-25104962D01*
X62284419Y-25084750D01*
X62279203Y-25063926D01*
X62276053Y-25042691D01*
X62275000Y-25021250D01*
X62275000Y-24508750D01*
X62276053Y-24487309D01*
X62279203Y-24466074D01*
X62284419Y-24445250D01*
X62291651Y-24425038D01*
X62300830Y-24405632D01*
X62311866Y-24387219D01*
X62324654Y-24369976D01*
X62339070Y-24354070D01*
X62354976Y-24339654D01*
X62372219Y-24326866D01*
X62390632Y-24315830D01*
X62410038Y-24306651D01*
X62430250Y-24299419D01*
X62451074Y-24294203D01*
X62472309Y-24291053D01*
X62493750Y-24290000D01*
X62931250Y-24290000D01*
X62952691Y-24291053D01*
G37*
G36*
X64527691Y-24291053D02*
G01*
X64548926Y-24294203D01*
X64569750Y-24299419D01*
X64589962Y-24306651D01*
X64609368Y-24315830D01*
X64627781Y-24326866D01*
X64645024Y-24339654D01*
X64660930Y-24354070D01*
X64675346Y-24369976D01*
X64688134Y-24387219D01*
X64699170Y-24405632D01*
X64708349Y-24425038D01*
X64715581Y-24445250D01*
X64720797Y-24466074D01*
X64723947Y-24487309D01*
X64725000Y-24508750D01*
X64725000Y-25021250D01*
X64723947Y-25042691D01*
X64720797Y-25063926D01*
X64715581Y-25084750D01*
X64708349Y-25104962D01*
X64699170Y-25124368D01*
X64688134Y-25142781D01*
X64675346Y-25160024D01*
X64660930Y-25175930D01*
X64645024Y-25190346D01*
X64627781Y-25203134D01*
X64609368Y-25214170D01*
X64589962Y-25223349D01*
X64569750Y-25230581D01*
X64548926Y-25235797D01*
X64527691Y-25238947D01*
X64506250Y-25240000D01*
X64068750Y-25240000D01*
X64047309Y-25238947D01*
X64026074Y-25235797D01*
X64005250Y-25230581D01*
X63985038Y-25223349D01*
X63965632Y-25214170D01*
X63947219Y-25203134D01*
X63929976Y-25190346D01*
X63914070Y-25175930D01*
X63899654Y-25160024D01*
X63886866Y-25142781D01*
X63875830Y-25124368D01*
X63866651Y-25104962D01*
X63859419Y-25084750D01*
X63854203Y-25063926D01*
X63851053Y-25042691D01*
X63850000Y-25021250D01*
X63850000Y-24508750D01*
X63851053Y-24487309D01*
X63854203Y-24466074D01*
X63859419Y-24445250D01*
X63866651Y-24425038D01*
X63875830Y-24405632D01*
X63886866Y-24387219D01*
X63899654Y-24369976D01*
X63914070Y-24354070D01*
X63929976Y-24339654D01*
X63947219Y-24326866D01*
X63965632Y-24315830D01*
X63985038Y-24306651D01*
X64005250Y-24299419D01*
X64026074Y-24294203D01*
X64047309Y-24291053D01*
X64068750Y-24290000D01*
X64506250Y-24290000D01*
X64527691Y-24291053D01*
G37*
G36*
X36789504Y-24047204D02*
G01*
X36813773Y-24050804D01*
X36837571Y-24056765D01*
X36860671Y-24065030D01*
X36882849Y-24075520D01*
X36903893Y-24088133D01*
X36923598Y-24102747D01*
X36941777Y-24119223D01*
X36958253Y-24137402D01*
X36972867Y-24157107D01*
X36985480Y-24178151D01*
X36995970Y-24200329D01*
X37004235Y-24223429D01*
X37010196Y-24247227D01*
X37013796Y-24271496D01*
X37015000Y-24296000D01*
X37015000Y-25996000D01*
X37013796Y-26020504D01*
X37010196Y-26044773D01*
X37004235Y-26068571D01*
X36995970Y-26091671D01*
X36985480Y-26113849D01*
X36972867Y-26134893D01*
X36958253Y-26154598D01*
X36941777Y-26172777D01*
X36923598Y-26189253D01*
X36903893Y-26203867D01*
X36882849Y-26216480D01*
X36860671Y-26226970D01*
X36837571Y-26235235D01*
X36813773Y-26241196D01*
X36789504Y-26244796D01*
X36765000Y-26246000D01*
X36015000Y-26246000D01*
X35990496Y-26244796D01*
X35966227Y-26241196D01*
X35942429Y-26235235D01*
X35919329Y-26226970D01*
X35897151Y-26216480D01*
X35876107Y-26203867D01*
X35856402Y-26189253D01*
X35838223Y-26172777D01*
X35821747Y-26154598D01*
X35807133Y-26134893D01*
X35794520Y-26113849D01*
X35784030Y-26091671D01*
X35775765Y-26068571D01*
X35769804Y-26044773D01*
X35766204Y-26020504D01*
X35765000Y-25996000D01*
X35765000Y-24296000D01*
X35766204Y-24271496D01*
X35769804Y-24247227D01*
X35775765Y-24223429D01*
X35784030Y-24200329D01*
X35794520Y-24178151D01*
X35807133Y-24157107D01*
X35821747Y-24137402D01*
X35838223Y-24119223D01*
X35856402Y-24102747D01*
X35876107Y-24088133D01*
X35897151Y-24075520D01*
X35919329Y-24065030D01*
X35942429Y-24056765D01*
X35966227Y-24050804D01*
X35990496Y-24047204D01*
X36015000Y-24046000D01*
X36765000Y-24046000D01*
X36789504Y-24047204D01*
G37*
G36*
X38939504Y-24047204D02*
G01*
X38963773Y-24050804D01*
X38987571Y-24056765D01*
X39010671Y-24065030D01*
X39032849Y-24075520D01*
X39053893Y-24088133D01*
X39073598Y-24102747D01*
X39091777Y-24119223D01*
X39108253Y-24137402D01*
X39122867Y-24157107D01*
X39135480Y-24178151D01*
X39145970Y-24200329D01*
X39154235Y-24223429D01*
X39160196Y-24247227D01*
X39163796Y-24271496D01*
X39165000Y-24296000D01*
X39165000Y-25996000D01*
X39163796Y-26020504D01*
X39160196Y-26044773D01*
X39154235Y-26068571D01*
X39145970Y-26091671D01*
X39135480Y-26113849D01*
X39122867Y-26134893D01*
X39108253Y-26154598D01*
X39091777Y-26172777D01*
X39073598Y-26189253D01*
X39053893Y-26203867D01*
X39032849Y-26216480D01*
X39010671Y-26226970D01*
X38987571Y-26235235D01*
X38963773Y-26241196D01*
X38939504Y-26244796D01*
X38915000Y-26246000D01*
X38165000Y-26246000D01*
X38140496Y-26244796D01*
X38116227Y-26241196D01*
X38092429Y-26235235D01*
X38069329Y-26226970D01*
X38047151Y-26216480D01*
X38026107Y-26203867D01*
X38006402Y-26189253D01*
X37988223Y-26172777D01*
X37971747Y-26154598D01*
X37957133Y-26134893D01*
X37944520Y-26113849D01*
X37934030Y-26091671D01*
X37925765Y-26068571D01*
X37919804Y-26044773D01*
X37916204Y-26020504D01*
X37915000Y-25996000D01*
X37915000Y-24296000D01*
X37916204Y-24271496D01*
X37919804Y-24247227D01*
X37925765Y-24223429D01*
X37934030Y-24200329D01*
X37944520Y-24178151D01*
X37957133Y-24157107D01*
X37971747Y-24137402D01*
X37988223Y-24119223D01*
X38006402Y-24102747D01*
X38026107Y-24088133D01*
X38047151Y-24075520D01*
X38069329Y-24065030D01*
X38092429Y-24056765D01*
X38116227Y-24050804D01*
X38140496Y-24047204D01*
X38165000Y-24046000D01*
X38915000Y-24046000D01*
X38939504Y-24047204D01*
G37*
G36*
X76338691Y-24354553D02*
G01*
X76359926Y-24357703D01*
X76380750Y-24362919D01*
X76400962Y-24370151D01*
X76420368Y-24379330D01*
X76438781Y-24390366D01*
X76456024Y-24403154D01*
X76471930Y-24417570D01*
X76486346Y-24433476D01*
X76499134Y-24450719D01*
X76510170Y-24469132D01*
X76519349Y-24488538D01*
X76526581Y-24508750D01*
X76531797Y-24529574D01*
X76534947Y-24550809D01*
X76536000Y-24572250D01*
X76536000Y-25084750D01*
X76534947Y-25106191D01*
X76531797Y-25127426D01*
X76526581Y-25148250D01*
X76519349Y-25168462D01*
X76510170Y-25187868D01*
X76499134Y-25206281D01*
X76486346Y-25223524D01*
X76471930Y-25239430D01*
X76456024Y-25253846D01*
X76438781Y-25266634D01*
X76420368Y-25277670D01*
X76400962Y-25286849D01*
X76380750Y-25294081D01*
X76359926Y-25299297D01*
X76338691Y-25302447D01*
X76317250Y-25303500D01*
X75879750Y-25303500D01*
X75858309Y-25302447D01*
X75837074Y-25299297D01*
X75816250Y-25294081D01*
X75796038Y-25286849D01*
X75776632Y-25277670D01*
X75758219Y-25266634D01*
X75740976Y-25253846D01*
X75725070Y-25239430D01*
X75710654Y-25223524D01*
X75697866Y-25206281D01*
X75686830Y-25187868D01*
X75677651Y-25168462D01*
X75670419Y-25148250D01*
X75665203Y-25127426D01*
X75662053Y-25106191D01*
X75661000Y-25084750D01*
X75661000Y-24572250D01*
X75662053Y-24550809D01*
X75665203Y-24529574D01*
X75670419Y-24508750D01*
X75677651Y-24488538D01*
X75686830Y-24469132D01*
X75697866Y-24450719D01*
X75710654Y-24433476D01*
X75725070Y-24417570D01*
X75740976Y-24403154D01*
X75758219Y-24390366D01*
X75776632Y-24379330D01*
X75796038Y-24370151D01*
X75816250Y-24362919D01*
X75837074Y-24357703D01*
X75858309Y-24354553D01*
X75879750Y-24353500D01*
X76317250Y-24353500D01*
X76338691Y-24354553D01*
G37*
G36*
X74763691Y-24354553D02*
G01*
X74784926Y-24357703D01*
X74805750Y-24362919D01*
X74825962Y-24370151D01*
X74845368Y-24379330D01*
X74863781Y-24390366D01*
X74881024Y-24403154D01*
X74896930Y-24417570D01*
X74911346Y-24433476D01*
X74924134Y-24450719D01*
X74935170Y-24469132D01*
X74944349Y-24488538D01*
X74951581Y-24508750D01*
X74956797Y-24529574D01*
X74959947Y-24550809D01*
X74961000Y-24572250D01*
X74961000Y-25084750D01*
X74959947Y-25106191D01*
X74956797Y-25127426D01*
X74951581Y-25148250D01*
X74944349Y-25168462D01*
X74935170Y-25187868D01*
X74924134Y-25206281D01*
X74911346Y-25223524D01*
X74896930Y-25239430D01*
X74881024Y-25253846D01*
X74863781Y-25266634D01*
X74845368Y-25277670D01*
X74825962Y-25286849D01*
X74805750Y-25294081D01*
X74784926Y-25299297D01*
X74763691Y-25302447D01*
X74742250Y-25303500D01*
X74304750Y-25303500D01*
X74283309Y-25302447D01*
X74262074Y-25299297D01*
X74241250Y-25294081D01*
X74221038Y-25286849D01*
X74201632Y-25277670D01*
X74183219Y-25266634D01*
X74165976Y-25253846D01*
X74150070Y-25239430D01*
X74135654Y-25223524D01*
X74122866Y-25206281D01*
X74111830Y-25187868D01*
X74102651Y-25168462D01*
X74095419Y-25148250D01*
X74090203Y-25127426D01*
X74087053Y-25106191D01*
X74086000Y-25084750D01*
X74086000Y-24572250D01*
X74087053Y-24550809D01*
X74090203Y-24529574D01*
X74095419Y-24508750D01*
X74102651Y-24488538D01*
X74111830Y-24469132D01*
X74122866Y-24450719D01*
X74135654Y-24433476D01*
X74150070Y-24417570D01*
X74165976Y-24403154D01*
X74183219Y-24390366D01*
X74201632Y-24379330D01*
X74221038Y-24370151D01*
X74241250Y-24362919D01*
X74262074Y-24357703D01*
X74283309Y-24354553D01*
X74304750Y-24353500D01*
X74742250Y-24353500D01*
X74763691Y-24354553D01*
G37*
G36*
X39102191Y-34578053D02*
G01*
X39123426Y-34581203D01*
X39144250Y-34586419D01*
X39164462Y-34593651D01*
X39183868Y-34602830D01*
X39202281Y-34613866D01*
X39219524Y-34626654D01*
X39235430Y-34641070D01*
X39249846Y-34656976D01*
X39262634Y-34674219D01*
X39273670Y-34692632D01*
X39282849Y-34712038D01*
X39290081Y-34732250D01*
X39295297Y-34753074D01*
X39298447Y-34774309D01*
X39299500Y-34795750D01*
X39299500Y-35308250D01*
X39298447Y-35329691D01*
X39295297Y-35350926D01*
X39290081Y-35371750D01*
X39282849Y-35391962D01*
X39273670Y-35411368D01*
X39262634Y-35429781D01*
X39249846Y-35447024D01*
X39235430Y-35462930D01*
X39219524Y-35477346D01*
X39202281Y-35490134D01*
X39183868Y-35501170D01*
X39164462Y-35510349D01*
X39144250Y-35517581D01*
X39123426Y-35522797D01*
X39102191Y-35525947D01*
X39080750Y-35527000D01*
X38643250Y-35527000D01*
X38621809Y-35525947D01*
X38600574Y-35522797D01*
X38579750Y-35517581D01*
X38559538Y-35510349D01*
X38540132Y-35501170D01*
X38521719Y-35490134D01*
X38504476Y-35477346D01*
X38488570Y-35462930D01*
X38474154Y-35447024D01*
X38461366Y-35429781D01*
X38450330Y-35411368D01*
X38441151Y-35391962D01*
X38433919Y-35371750D01*
X38428703Y-35350926D01*
X38425553Y-35329691D01*
X38424500Y-35308250D01*
X38424500Y-34795750D01*
X38425553Y-34774309D01*
X38428703Y-34753074D01*
X38433919Y-34732250D01*
X38441151Y-34712038D01*
X38450330Y-34692632D01*
X38461366Y-34674219D01*
X38474154Y-34656976D01*
X38488570Y-34641070D01*
X38504476Y-34626654D01*
X38521719Y-34613866D01*
X38540132Y-34602830D01*
X38559538Y-34593651D01*
X38579750Y-34586419D01*
X38600574Y-34581203D01*
X38621809Y-34578053D01*
X38643250Y-34577000D01*
X39080750Y-34577000D01*
X39102191Y-34578053D01*
G37*
G36*
X37527191Y-34578053D02*
G01*
X37548426Y-34581203D01*
X37569250Y-34586419D01*
X37589462Y-34593651D01*
X37608868Y-34602830D01*
X37627281Y-34613866D01*
X37644524Y-34626654D01*
X37660430Y-34641070D01*
X37674846Y-34656976D01*
X37687634Y-34674219D01*
X37698670Y-34692632D01*
X37707849Y-34712038D01*
X37715081Y-34732250D01*
X37720297Y-34753074D01*
X37723447Y-34774309D01*
X37724500Y-34795750D01*
X37724500Y-35308250D01*
X37723447Y-35329691D01*
X37720297Y-35350926D01*
X37715081Y-35371750D01*
X37707849Y-35391962D01*
X37698670Y-35411368D01*
X37687634Y-35429781D01*
X37674846Y-35447024D01*
X37660430Y-35462930D01*
X37644524Y-35477346D01*
X37627281Y-35490134D01*
X37608868Y-35501170D01*
X37589462Y-35510349D01*
X37569250Y-35517581D01*
X37548426Y-35522797D01*
X37527191Y-35525947D01*
X37505750Y-35527000D01*
X37068250Y-35527000D01*
X37046809Y-35525947D01*
X37025574Y-35522797D01*
X37004750Y-35517581D01*
X36984538Y-35510349D01*
X36965132Y-35501170D01*
X36946719Y-35490134D01*
X36929476Y-35477346D01*
X36913570Y-35462930D01*
X36899154Y-35447024D01*
X36886366Y-35429781D01*
X36875330Y-35411368D01*
X36866151Y-35391962D01*
X36858919Y-35371750D01*
X36853703Y-35350926D01*
X36850553Y-35329691D01*
X36849500Y-35308250D01*
X36849500Y-34795750D01*
X36850553Y-34774309D01*
X36853703Y-34753074D01*
X36858919Y-34732250D01*
X36866151Y-34712038D01*
X36875330Y-34692632D01*
X36886366Y-34674219D01*
X36899154Y-34656976D01*
X36913570Y-34641070D01*
X36929476Y-34626654D01*
X36946719Y-34613866D01*
X36965132Y-34602830D01*
X36984538Y-34593651D01*
X37004750Y-34586419D01*
X37025574Y-34581203D01*
X37046809Y-34578053D01*
X37068250Y-34577000D01*
X37505750Y-34577000D01*
X37527191Y-34578053D01*
G37*
G36*
X76350691Y-28595553D02*
G01*
X76371926Y-28598703D01*
X76392750Y-28603919D01*
X76412962Y-28611151D01*
X76432368Y-28620330D01*
X76450781Y-28631366D01*
X76468024Y-28644154D01*
X76483930Y-28658570D01*
X76498346Y-28674476D01*
X76511134Y-28691719D01*
X76522170Y-28710132D01*
X76531349Y-28729538D01*
X76538581Y-28749750D01*
X76543797Y-28770574D01*
X76546947Y-28791809D01*
X76548000Y-28813250D01*
X76548000Y-29250750D01*
X76546947Y-29272191D01*
X76543797Y-29293426D01*
X76538581Y-29314250D01*
X76531349Y-29334462D01*
X76522170Y-29353868D01*
X76511134Y-29372281D01*
X76498346Y-29389524D01*
X76483930Y-29405430D01*
X76468024Y-29419846D01*
X76450781Y-29432634D01*
X76432368Y-29443670D01*
X76412962Y-29452849D01*
X76392750Y-29460081D01*
X76371926Y-29465297D01*
X76350691Y-29468447D01*
X76329250Y-29469500D01*
X75816750Y-29469500D01*
X75795309Y-29468447D01*
X75774074Y-29465297D01*
X75753250Y-29460081D01*
X75733038Y-29452849D01*
X75713632Y-29443670D01*
X75695219Y-29432634D01*
X75677976Y-29419846D01*
X75662070Y-29405430D01*
X75647654Y-29389524D01*
X75634866Y-29372281D01*
X75623830Y-29353868D01*
X75614651Y-29334462D01*
X75607419Y-29314250D01*
X75602203Y-29293426D01*
X75599053Y-29272191D01*
X75598000Y-29250750D01*
X75598000Y-28813250D01*
X75599053Y-28791809D01*
X75602203Y-28770574D01*
X75607419Y-28749750D01*
X75614651Y-28729538D01*
X75623830Y-28710132D01*
X75634866Y-28691719D01*
X75647654Y-28674476D01*
X75662070Y-28658570D01*
X75677976Y-28644154D01*
X75695219Y-28631366D01*
X75713632Y-28620330D01*
X75733038Y-28611151D01*
X75753250Y-28603919D01*
X75774074Y-28598703D01*
X75795309Y-28595553D01*
X75816750Y-28594500D01*
X76329250Y-28594500D01*
X76350691Y-28595553D01*
G37*
G36*
X76350691Y-30170553D02*
G01*
X76371926Y-30173703D01*
X76392750Y-30178919D01*
X76412962Y-30186151D01*
X76432368Y-30195330D01*
X76450781Y-30206366D01*
X76468024Y-30219154D01*
X76483930Y-30233570D01*
X76498346Y-30249476D01*
X76511134Y-30266719D01*
X76522170Y-30285132D01*
X76531349Y-30304538D01*
X76538581Y-30324750D01*
X76543797Y-30345574D01*
X76546947Y-30366809D01*
X76548000Y-30388250D01*
X76548000Y-30825750D01*
X76546947Y-30847191D01*
X76543797Y-30868426D01*
X76538581Y-30889250D01*
X76531349Y-30909462D01*
X76522170Y-30928868D01*
X76511134Y-30947281D01*
X76498346Y-30964524D01*
X76483930Y-30980430D01*
X76468024Y-30994846D01*
X76450781Y-31007634D01*
X76432368Y-31018670D01*
X76412962Y-31027849D01*
X76392750Y-31035081D01*
X76371926Y-31040297D01*
X76350691Y-31043447D01*
X76329250Y-31044500D01*
X75816750Y-31044500D01*
X75795309Y-31043447D01*
X75774074Y-31040297D01*
X75753250Y-31035081D01*
X75733038Y-31027849D01*
X75713632Y-31018670D01*
X75695219Y-31007634D01*
X75677976Y-30994846D01*
X75662070Y-30980430D01*
X75647654Y-30964524D01*
X75634866Y-30947281D01*
X75623830Y-30928868D01*
X75614651Y-30909462D01*
X75607419Y-30889250D01*
X75602203Y-30868426D01*
X75599053Y-30847191D01*
X75598000Y-30825750D01*
X75598000Y-30388250D01*
X75599053Y-30366809D01*
X75602203Y-30345574D01*
X75607419Y-30324750D01*
X75614651Y-30304538D01*
X75623830Y-30285132D01*
X75634866Y-30266719D01*
X75647654Y-30249476D01*
X75662070Y-30233570D01*
X75677976Y-30219154D01*
X75695219Y-30206366D01*
X75713632Y-30195330D01*
X75733038Y-30186151D01*
X75753250Y-30178919D01*
X75774074Y-30173703D01*
X75795309Y-30170553D01*
X75816750Y-30169500D01*
X76329250Y-30169500D01*
X76350691Y-30170553D01*
G37*
G36*
X42124691Y-39658053D02*
G01*
X42145926Y-39661203D01*
X42166750Y-39666419D01*
X42186962Y-39673651D01*
X42206368Y-39682830D01*
X42224781Y-39693866D01*
X42242024Y-39706654D01*
X42257930Y-39721070D01*
X42272346Y-39736976D01*
X42285134Y-39754219D01*
X42296170Y-39772632D01*
X42305349Y-39792038D01*
X42312581Y-39812250D01*
X42317797Y-39833074D01*
X42320947Y-39854309D01*
X42322000Y-39875750D01*
X42322000Y-40388250D01*
X42320947Y-40409691D01*
X42317797Y-40430926D01*
X42312581Y-40451750D01*
X42305349Y-40471962D01*
X42296170Y-40491368D01*
X42285134Y-40509781D01*
X42272346Y-40527024D01*
X42257930Y-40542930D01*
X42242024Y-40557346D01*
X42224781Y-40570134D01*
X42206368Y-40581170D01*
X42186962Y-40590349D01*
X42166750Y-40597581D01*
X42145926Y-40602797D01*
X42124691Y-40605947D01*
X42103250Y-40607000D01*
X41665750Y-40607000D01*
X41644309Y-40605947D01*
X41623074Y-40602797D01*
X41602250Y-40597581D01*
X41582038Y-40590349D01*
X41562632Y-40581170D01*
X41544219Y-40570134D01*
X41526976Y-40557346D01*
X41511070Y-40542930D01*
X41496654Y-40527024D01*
X41483866Y-40509781D01*
X41472830Y-40491368D01*
X41463651Y-40471962D01*
X41456419Y-40451750D01*
X41451203Y-40430926D01*
X41448053Y-40409691D01*
X41447000Y-40388250D01*
X41447000Y-39875750D01*
X41448053Y-39854309D01*
X41451203Y-39833074D01*
X41456419Y-39812250D01*
X41463651Y-39792038D01*
X41472830Y-39772632D01*
X41483866Y-39754219D01*
X41496654Y-39736976D01*
X41511070Y-39721070D01*
X41526976Y-39706654D01*
X41544219Y-39693866D01*
X41562632Y-39682830D01*
X41582038Y-39673651D01*
X41602250Y-39666419D01*
X41623074Y-39661203D01*
X41644309Y-39658053D01*
X41665750Y-39657000D01*
X42103250Y-39657000D01*
X42124691Y-39658053D01*
G37*
G36*
X43699691Y-39658053D02*
G01*
X43720926Y-39661203D01*
X43741750Y-39666419D01*
X43761962Y-39673651D01*
X43781368Y-39682830D01*
X43799781Y-39693866D01*
X43817024Y-39706654D01*
X43832930Y-39721070D01*
X43847346Y-39736976D01*
X43860134Y-39754219D01*
X43871170Y-39772632D01*
X43880349Y-39792038D01*
X43887581Y-39812250D01*
X43892797Y-39833074D01*
X43895947Y-39854309D01*
X43897000Y-39875750D01*
X43897000Y-40388250D01*
X43895947Y-40409691D01*
X43892797Y-40430926D01*
X43887581Y-40451750D01*
X43880349Y-40471962D01*
X43871170Y-40491368D01*
X43860134Y-40509781D01*
X43847346Y-40527024D01*
X43832930Y-40542930D01*
X43817024Y-40557346D01*
X43799781Y-40570134D01*
X43781368Y-40581170D01*
X43761962Y-40590349D01*
X43741750Y-40597581D01*
X43720926Y-40602797D01*
X43699691Y-40605947D01*
X43678250Y-40607000D01*
X43240750Y-40607000D01*
X43219309Y-40605947D01*
X43198074Y-40602797D01*
X43177250Y-40597581D01*
X43157038Y-40590349D01*
X43137632Y-40581170D01*
X43119219Y-40570134D01*
X43101976Y-40557346D01*
X43086070Y-40542930D01*
X43071654Y-40527024D01*
X43058866Y-40509781D01*
X43047830Y-40491368D01*
X43038651Y-40471962D01*
X43031419Y-40451750D01*
X43026203Y-40430926D01*
X43023053Y-40409691D01*
X43022000Y-40388250D01*
X43022000Y-39875750D01*
X43023053Y-39854309D01*
X43026203Y-39833074D01*
X43031419Y-39812250D01*
X43038651Y-39792038D01*
X43047830Y-39772632D01*
X43058866Y-39754219D01*
X43071654Y-39736976D01*
X43086070Y-39721070D01*
X43101976Y-39706654D01*
X43119219Y-39693866D01*
X43137632Y-39682830D01*
X43157038Y-39673651D01*
X43177250Y-39666419D01*
X43198074Y-39661203D01*
X43219309Y-39658053D01*
X43240750Y-39657000D01*
X43678250Y-39657000D01*
X43699691Y-39658053D01*
G37*
D11*
X36215000Y-37658000D03*
X36215000Y-38608000D03*
X36215000Y-39558000D03*
X38715000Y-39558000D03*
X38715000Y-38608000D03*
X38715000Y-37658000D03*
D12*
X65575000Y-30793000D03*
X61425000Y-30793000D03*
X65575000Y-28643000D03*
X61425000Y-28643000D03*
D10*
G36*
X55942191Y-26323053D02*
G01*
X55963426Y-26326203D01*
X55984250Y-26331419D01*
X56004462Y-26338651D01*
X56023868Y-26347830D01*
X56042281Y-26358866D01*
X56059524Y-26371654D01*
X56075430Y-26386070D01*
X56089846Y-26401976D01*
X56102634Y-26419219D01*
X56113670Y-26437632D01*
X56122849Y-26457038D01*
X56130081Y-26477250D01*
X56135297Y-26498074D01*
X56138447Y-26519309D01*
X56139500Y-26540750D01*
X56139500Y-27053250D01*
X56138447Y-27074691D01*
X56135297Y-27095926D01*
X56130081Y-27116750D01*
X56122849Y-27136962D01*
X56113670Y-27156368D01*
X56102634Y-27174781D01*
X56089846Y-27192024D01*
X56075430Y-27207930D01*
X56059524Y-27222346D01*
X56042281Y-27235134D01*
X56023868Y-27246170D01*
X56004462Y-27255349D01*
X55984250Y-27262581D01*
X55963426Y-27267797D01*
X55942191Y-27270947D01*
X55920750Y-27272000D01*
X55483250Y-27272000D01*
X55461809Y-27270947D01*
X55440574Y-27267797D01*
X55419750Y-27262581D01*
X55399538Y-27255349D01*
X55380132Y-27246170D01*
X55361719Y-27235134D01*
X55344476Y-27222346D01*
X55328570Y-27207930D01*
X55314154Y-27192024D01*
X55301366Y-27174781D01*
X55290330Y-27156368D01*
X55281151Y-27136962D01*
X55273919Y-27116750D01*
X55268703Y-27095926D01*
X55265553Y-27074691D01*
X55264500Y-27053250D01*
X55264500Y-26540750D01*
X55265553Y-26519309D01*
X55268703Y-26498074D01*
X55273919Y-26477250D01*
X55281151Y-26457038D01*
X55290330Y-26437632D01*
X55301366Y-26419219D01*
X55314154Y-26401976D01*
X55328570Y-26386070D01*
X55344476Y-26371654D01*
X55361719Y-26358866D01*
X55380132Y-26347830D01*
X55399538Y-26338651D01*
X55419750Y-26331419D01*
X55440574Y-26326203D01*
X55461809Y-26323053D01*
X55483250Y-26322000D01*
X55920750Y-26322000D01*
X55942191Y-26323053D01*
G37*
G36*
X57517191Y-26323053D02*
G01*
X57538426Y-26326203D01*
X57559250Y-26331419D01*
X57579462Y-26338651D01*
X57598868Y-26347830D01*
X57617281Y-26358866D01*
X57634524Y-26371654D01*
X57650430Y-26386070D01*
X57664846Y-26401976D01*
X57677634Y-26419219D01*
X57688670Y-26437632D01*
X57697849Y-26457038D01*
X57705081Y-26477250D01*
X57710297Y-26498074D01*
X57713447Y-26519309D01*
X57714500Y-26540750D01*
X57714500Y-27053250D01*
X57713447Y-27074691D01*
X57710297Y-27095926D01*
X57705081Y-27116750D01*
X57697849Y-27136962D01*
X57688670Y-27156368D01*
X57677634Y-27174781D01*
X57664846Y-27192024D01*
X57650430Y-27207930D01*
X57634524Y-27222346D01*
X57617281Y-27235134D01*
X57598868Y-27246170D01*
X57579462Y-27255349D01*
X57559250Y-27262581D01*
X57538426Y-27267797D01*
X57517191Y-27270947D01*
X57495750Y-27272000D01*
X57058250Y-27272000D01*
X57036809Y-27270947D01*
X57015574Y-27267797D01*
X56994750Y-27262581D01*
X56974538Y-27255349D01*
X56955132Y-27246170D01*
X56936719Y-27235134D01*
X56919476Y-27222346D01*
X56903570Y-27207930D01*
X56889154Y-27192024D01*
X56876366Y-27174781D01*
X56865330Y-27156368D01*
X56856151Y-27136962D01*
X56848919Y-27116750D01*
X56843703Y-27095926D01*
X56840553Y-27074691D01*
X56839500Y-27053250D01*
X56839500Y-26540750D01*
X56840553Y-26519309D01*
X56843703Y-26498074D01*
X56848919Y-26477250D01*
X56856151Y-26457038D01*
X56865330Y-26437632D01*
X56876366Y-26419219D01*
X56889154Y-26401976D01*
X56903570Y-26386070D01*
X56919476Y-26371654D01*
X56936719Y-26358866D01*
X56955132Y-26347830D01*
X56974538Y-26338651D01*
X56994750Y-26331419D01*
X57015574Y-26326203D01*
X57036809Y-26323053D01*
X57058250Y-26322000D01*
X57495750Y-26322000D01*
X57517191Y-26323053D01*
G37*
D13*
X43772000Y-24765000D03*
X41572000Y-24765000D03*
D11*
X52959000Y-33025000D03*
X52959000Y-33975000D03*
X52959000Y-34925000D03*
X50459000Y-34925000D03*
X50459000Y-33975000D03*
X50459000Y-33025000D03*
D14*
X36108000Y-27945000D03*
X36108000Y-28895000D03*
X36108000Y-29845000D03*
X38608000Y-29845000D03*
X38608000Y-27945000D03*
D11*
X55880000Y-30800000D03*
X55880000Y-31750000D03*
X55880000Y-32700000D03*
X58380000Y-32700000D03*
X58380000Y-30800000D03*
M02*
