G04 #@! TF.GenerationSoftware,KiCad,Pcbnew,(5.1.5)-3*
G04 #@! TF.CreationDate,2020-10-19T00:58:10-04:00*
G04 #@! TF.ProjectId,Updifier,55706469-6669-4657-922e-6b696361645f,rev?*
G04 #@! TF.SameCoordinates,Original*
G04 #@! TF.FileFunction,Legend,Top*
G04 #@! TF.FilePolarity,Positive*
%FSLAX46Y46*%
G04 Gerber Fmt 4.6, Leading zero omitted, Abs format (unit mm)*
G04 Created by KiCad (PCBNEW (5.1.5)-3) date 2020-10-19 00:58:10*
%MOMM*%
%LPD*%
G04 APERTURE LIST*
%ADD10C,0.127000*%
%ADD11C,0.152400*%
%ADD12C,0.101600*%
%ADD13C,0.228600*%
%ADD14C,0.120000*%
%ADD15C,0.200000*%
%ADD16C,0.100000*%
G04 APERTURE END LIST*
D10*
X26107571Y-26590171D02*
X26107571Y-27083657D01*
X26136600Y-27141714D01*
X26165628Y-27170742D01*
X26223685Y-27199771D01*
X26339800Y-27199771D01*
X26397857Y-27170742D01*
X26426885Y-27141714D01*
X26455914Y-27083657D01*
X26455914Y-26590171D01*
X26746200Y-27199771D02*
X26746200Y-26590171D01*
X26978428Y-26590171D01*
X27036485Y-26619200D01*
X27065514Y-26648228D01*
X27094542Y-26706285D01*
X27094542Y-26793371D01*
X27065514Y-26851428D01*
X27036485Y-26880457D01*
X26978428Y-26909485D01*
X26746200Y-26909485D01*
X27355800Y-27199771D02*
X27355800Y-26590171D01*
X27500942Y-26590171D01*
X27588028Y-26619200D01*
X27646085Y-26677257D01*
X27675114Y-26735314D01*
X27704142Y-26851428D01*
X27704142Y-26938514D01*
X27675114Y-27054628D01*
X27646085Y-27112685D01*
X27588028Y-27170742D01*
X27500942Y-27199771D01*
X27355800Y-27199771D01*
X27965400Y-27199771D02*
X27965400Y-26590171D01*
X28255685Y-26967542D02*
X28720142Y-26967542D01*
X29010428Y-27199771D02*
X29010428Y-26590171D01*
X29010428Y-26880457D02*
X29358771Y-26880457D01*
X29358771Y-27199771D02*
X29358771Y-26590171D01*
X29765171Y-26590171D02*
X29881285Y-26590171D01*
X29939342Y-26619200D01*
X29997400Y-26677257D01*
X30026428Y-26793371D01*
X30026428Y-26996571D01*
X29997400Y-27112685D01*
X29939342Y-27170742D01*
X29881285Y-27199771D01*
X29765171Y-27199771D01*
X29707114Y-27170742D01*
X29649057Y-27112685D01*
X29620028Y-26996571D01*
X29620028Y-26793371D01*
X29649057Y-26677257D01*
X29707114Y-26619200D01*
X29765171Y-26590171D01*
X30258657Y-27170742D02*
X30345742Y-27199771D01*
X30490885Y-27199771D01*
X30548942Y-27170742D01*
X30577971Y-27141714D01*
X30607000Y-27083657D01*
X30607000Y-27025600D01*
X30577971Y-26967542D01*
X30548942Y-26938514D01*
X30490885Y-26909485D01*
X30374771Y-26880457D01*
X30316714Y-26851428D01*
X30287685Y-26822400D01*
X30258657Y-26764342D01*
X30258657Y-26706285D01*
X30287685Y-26648228D01*
X30316714Y-26619200D01*
X30374771Y-26590171D01*
X30519914Y-26590171D01*
X30607000Y-26619200D01*
X30781171Y-26590171D02*
X31129514Y-26590171D01*
X30955342Y-27199771D02*
X30955342Y-26590171D01*
X70419685Y-26691771D02*
X70419685Y-26082171D01*
X70419685Y-26372457D02*
X70768028Y-26372457D01*
X70768028Y-26691771D02*
X70768028Y-26082171D01*
X70971228Y-26082171D02*
X71174428Y-26691771D01*
X71377628Y-26082171D01*
X71580828Y-26459542D02*
X72045285Y-26459542D01*
X72335571Y-26082171D02*
X72335571Y-26575657D01*
X72364600Y-26633714D01*
X72393628Y-26662742D01*
X72451685Y-26691771D01*
X72567800Y-26691771D01*
X72625857Y-26662742D01*
X72654885Y-26633714D01*
X72683914Y-26575657D01*
X72683914Y-26082171D01*
X72974200Y-26691771D02*
X72974200Y-26082171D01*
X73206428Y-26082171D01*
X73264485Y-26111200D01*
X73293514Y-26140228D01*
X73322542Y-26198285D01*
X73322542Y-26285371D01*
X73293514Y-26343428D01*
X73264485Y-26372457D01*
X73206428Y-26401485D01*
X72974200Y-26401485D01*
X73583800Y-26691771D02*
X73583800Y-26082171D01*
X73728942Y-26082171D01*
X73816028Y-26111200D01*
X73874085Y-26169257D01*
X73903114Y-26227314D01*
X73932142Y-26343428D01*
X73932142Y-26430514D01*
X73903114Y-26546628D01*
X73874085Y-26604685D01*
X73816028Y-26662742D01*
X73728942Y-26691771D01*
X73583800Y-26691771D01*
X74193400Y-26691771D02*
X74193400Y-26082171D01*
X74483685Y-26459542D02*
X74948142Y-26459542D01*
X75151342Y-26082171D02*
X75499685Y-26082171D01*
X75325514Y-26691771D02*
X75325514Y-26082171D01*
X75673857Y-26517600D02*
X75964142Y-26517600D01*
X75615800Y-26691771D02*
X75819000Y-26082171D01*
X76022200Y-26691771D01*
X76573742Y-26691771D02*
X76370542Y-26401485D01*
X76225400Y-26691771D02*
X76225400Y-26082171D01*
X76457628Y-26082171D01*
X76515685Y-26111200D01*
X76544714Y-26140228D01*
X76573742Y-26198285D01*
X76573742Y-26285371D01*
X76544714Y-26343428D01*
X76515685Y-26372457D01*
X76457628Y-26401485D01*
X76225400Y-26401485D01*
X77154314Y-26111200D02*
X77096257Y-26082171D01*
X77009171Y-26082171D01*
X76922085Y-26111200D01*
X76864028Y-26169257D01*
X76835000Y-26227314D01*
X76805971Y-26343428D01*
X76805971Y-26430514D01*
X76835000Y-26546628D01*
X76864028Y-26604685D01*
X76922085Y-26662742D01*
X77009171Y-26691771D01*
X77067228Y-26691771D01*
X77154314Y-26662742D01*
X77183342Y-26633714D01*
X77183342Y-26430514D01*
X77067228Y-26430514D01*
X77444600Y-26372457D02*
X77647800Y-26372457D01*
X77734885Y-26691771D02*
X77444600Y-26691771D01*
X77444600Y-26082171D01*
X77734885Y-26082171D01*
X77909057Y-26082171D02*
X78257400Y-26082171D01*
X78083228Y-26691771D02*
X78083228Y-26082171D01*
D11*
X61177714Y-27014714D02*
X60923714Y-26651857D01*
X60742285Y-27014714D02*
X60742285Y-26252714D01*
X61032571Y-26252714D01*
X61105142Y-26289000D01*
X61141428Y-26325285D01*
X61177714Y-26397857D01*
X61177714Y-26506714D01*
X61141428Y-26579285D01*
X61105142Y-26615571D01*
X61032571Y-26651857D01*
X60742285Y-26651857D01*
X61504285Y-26615571D02*
X61758285Y-26615571D01*
X61867142Y-27014714D02*
X61504285Y-27014714D01*
X61504285Y-26252714D01*
X61867142Y-26252714D01*
X62193714Y-26724428D02*
X62774285Y-26724428D01*
X63137142Y-26252714D02*
X63137142Y-26869571D01*
X63173428Y-26942142D01*
X63209714Y-26978428D01*
X63282285Y-27014714D01*
X63427428Y-27014714D01*
X63500000Y-26978428D01*
X63536285Y-26942142D01*
X63572571Y-26869571D01*
X63572571Y-26252714D01*
X63935428Y-27014714D02*
X63935428Y-26252714D01*
X64225714Y-26252714D01*
X64298285Y-26289000D01*
X64334571Y-26325285D01*
X64370857Y-26397857D01*
X64370857Y-26506714D01*
X64334571Y-26579285D01*
X64298285Y-26615571D01*
X64225714Y-26651857D01*
X63935428Y-26651857D01*
X64697428Y-27014714D02*
X64697428Y-26252714D01*
X64878857Y-26252714D01*
X64987714Y-26289000D01*
X65060285Y-26361571D01*
X65096571Y-26434142D01*
X65132857Y-26579285D01*
X65132857Y-26688142D01*
X65096571Y-26833285D01*
X65060285Y-26905857D01*
X64987714Y-26978428D01*
X64878857Y-27014714D01*
X64697428Y-27014714D01*
X65459428Y-27014714D02*
X65459428Y-26252714D01*
X66076285Y-26615571D02*
X65822285Y-26615571D01*
X65822285Y-27014714D02*
X65822285Y-26252714D01*
X66185142Y-26252714D01*
X66620571Y-26651857D02*
X66620571Y-27014714D01*
X66366571Y-26252714D02*
X66620571Y-26651857D01*
X66874571Y-26252714D01*
D12*
X69317809Y-25381857D02*
X69825809Y-25212523D01*
X69317809Y-25043190D01*
X69317809Y-24946428D02*
X69317809Y-24656142D01*
X69825809Y-24801285D02*
X69317809Y-24801285D01*
X69342000Y-24220714D02*
X69317809Y-24269095D01*
X69317809Y-24341666D01*
X69342000Y-24414238D01*
X69390380Y-24462619D01*
X69438761Y-24486809D01*
X69535523Y-24511000D01*
X69608095Y-24511000D01*
X69704857Y-24486809D01*
X69753238Y-24462619D01*
X69801619Y-24414238D01*
X69825809Y-24341666D01*
X69825809Y-24293285D01*
X69801619Y-24220714D01*
X69777428Y-24196523D01*
X69608095Y-24196523D01*
X69608095Y-24293285D01*
X73762809Y-25127857D02*
X73254809Y-25127857D01*
X73496714Y-25127857D02*
X73496714Y-24837571D01*
X73762809Y-24837571D02*
X73254809Y-24837571D01*
X73254809Y-24668238D02*
X73762809Y-24498904D01*
X73254809Y-24329571D01*
D10*
X30212506Y-38455600D02*
X30322572Y-38929733D01*
X30551172Y-38455600D01*
X31135372Y-38929733D02*
X30728972Y-38929733D01*
X30932172Y-38929733D02*
X31021072Y-38218533D01*
X30940639Y-38320133D01*
X30864439Y-38387866D01*
X30792472Y-38421733D01*
X31448639Y-38862000D02*
X31478272Y-38895866D01*
X31440172Y-38929733D01*
X31410539Y-38895866D01*
X31448639Y-38862000D01*
X31440172Y-38929733D01*
X32003206Y-38218533D02*
X32070939Y-38218533D01*
X32134439Y-38252400D01*
X32164072Y-38286266D01*
X32189472Y-38354000D01*
X32206406Y-38489466D01*
X32185239Y-38658800D01*
X32134439Y-38794266D01*
X32092106Y-38862000D01*
X32054006Y-38895866D01*
X31982039Y-38929733D01*
X31914306Y-38929733D01*
X31850806Y-38895866D01*
X31821172Y-38862000D01*
X31795772Y-38794266D01*
X31778839Y-38658800D01*
X31800006Y-38489466D01*
X31850806Y-38354000D01*
X31893139Y-38286266D01*
X31931239Y-38252400D01*
X32003206Y-38218533D01*
D13*
X30555693Y-21712161D02*
X30437462Y-22658009D01*
X30491286Y-22769285D01*
X30552064Y-22824923D01*
X30680576Y-22880561D01*
X30951510Y-22880561D01*
X31093931Y-22824923D01*
X31168619Y-22769285D01*
X31250262Y-22658009D01*
X31368493Y-21712161D01*
X31997143Y-22101628D02*
X31851093Y-23270028D01*
X31990188Y-22157266D02*
X32132610Y-22101628D01*
X32403543Y-22101628D01*
X32532055Y-22157266D01*
X32592833Y-22212904D01*
X32646657Y-22324180D01*
X32604929Y-22658009D01*
X32523286Y-22769285D01*
X32448598Y-22824923D01*
X32306176Y-22880561D01*
X32035243Y-22880561D01*
X31906731Y-22824923D01*
X33796310Y-22880561D02*
X33942360Y-21712161D01*
X33803264Y-22824923D02*
X33660843Y-22880561D01*
X33389910Y-22880561D01*
X33261398Y-22824923D01*
X33200619Y-22769285D01*
X33146795Y-22658009D01*
X33188524Y-22324180D01*
X33270167Y-22212904D01*
X33344855Y-22157266D01*
X33487276Y-22101628D01*
X33758210Y-22101628D01*
X33886722Y-22157266D01*
X34473643Y-22880561D02*
X34571010Y-22101628D01*
X34619693Y-21712161D02*
X34545005Y-21767800D01*
X34605783Y-21823438D01*
X34680472Y-21767800D01*
X34619693Y-21712161D01*
X34605783Y-21823438D01*
X35206614Y-22435457D02*
X36290348Y-22435457D01*
X36912043Y-22880561D02*
X37058093Y-21712161D01*
X37724843Y-22880561D02*
X37198700Y-22212904D01*
X37870893Y-21712161D02*
X36974636Y-22379819D01*
X38883264Y-22824923D02*
X38740843Y-22880561D01*
X38469910Y-22880561D01*
X38341398Y-22824923D01*
X38287574Y-22713647D01*
X38343212Y-22268542D01*
X38424855Y-22157266D01*
X38567276Y-22101628D01*
X38838210Y-22101628D01*
X38966722Y-22157266D01*
X39020545Y-22268542D01*
X39006636Y-22379819D01*
X38315393Y-22491095D01*
X39515543Y-22101628D02*
X39756843Y-22880561D01*
X40192876Y-22101628D02*
X39756843Y-22880561D01*
X39586603Y-23158752D01*
X39511914Y-23214390D01*
X39369493Y-23270028D01*
D14*
X27305000Y-34290000D02*
X27305000Y-35560000D01*
X27305000Y-35560000D02*
X26035000Y-35560000D01*
X77630000Y-34985000D02*
X77630000Y-33655000D01*
X78740000Y-34985000D02*
X77630000Y-34985000D01*
X70574000Y-25563500D02*
X72859000Y-25563500D01*
X72859000Y-25563500D02*
X72859000Y-24093500D01*
X72859000Y-24093500D02*
X70574000Y-24093500D01*
X32547779Y-25275000D02*
X32222221Y-25275000D01*
X32547779Y-24255000D02*
X32222221Y-24255000D01*
X47178279Y-33022000D02*
X46852721Y-33022000D01*
X47178279Y-32002000D02*
X46852721Y-32002000D01*
X37937221Y-32002000D02*
X38262779Y-32002000D01*
X37937221Y-33022000D02*
X38262779Y-33022000D01*
X56326721Y-25275000D02*
X56652279Y-25275000D01*
X56326721Y-24255000D02*
X56652279Y-24255000D01*
X42834779Y-32002000D02*
X42509221Y-32002000D01*
X42834779Y-33022000D02*
X42509221Y-33022000D01*
X56703279Y-34415000D02*
X56377721Y-34415000D01*
X56703279Y-35435000D02*
X56377721Y-35435000D01*
X42834779Y-35562000D02*
X42509221Y-35562000D01*
X42834779Y-34542000D02*
X42509221Y-34542000D01*
X49367221Y-25275000D02*
X49692779Y-25275000D01*
X49367221Y-24255000D02*
X49692779Y-24255000D01*
X42834779Y-29335000D02*
X42509221Y-29335000D01*
X42834779Y-30355000D02*
X42509221Y-30355000D01*
X42834779Y-27815000D02*
X42509221Y-27815000D01*
X42834779Y-26795000D02*
X42509221Y-26795000D01*
X49595000Y-26015000D02*
X47645000Y-26015000D01*
X49595000Y-26015000D02*
X51545000Y-26015000D01*
X49595000Y-31135000D02*
X47645000Y-31135000D01*
X49595000Y-31135000D02*
X53045000Y-31135000D01*
X73720000Y-34985000D02*
X72390000Y-34985000D01*
X73720000Y-33655000D02*
X73720000Y-34985000D01*
X71120000Y-34985000D02*
X68520000Y-34985000D01*
X71120000Y-32385000D02*
X71120000Y-34985000D01*
X73720000Y-32385000D02*
X71120000Y-32385000D01*
X68520000Y-34985000D02*
X68520000Y-27245000D01*
X73720000Y-32385000D02*
X73720000Y-27245000D01*
X73720000Y-27245000D02*
X68520000Y-27245000D01*
X42834779Y-38102000D02*
X42509221Y-38102000D01*
X42834779Y-37082000D02*
X42509221Y-37082000D01*
X56326721Y-28319000D02*
X56652279Y-28319000D01*
X56326721Y-29339000D02*
X56652279Y-29339000D01*
X67274221Y-25275000D02*
X67599779Y-25275000D01*
X67274221Y-24255000D02*
X67599779Y-24255000D01*
X63337221Y-24255000D02*
X63662779Y-24255000D01*
X63337221Y-25275000D02*
X63662779Y-25275000D01*
X33715000Y-27880000D02*
X28515000Y-27880000D01*
X33715000Y-33020000D02*
X33715000Y-27880000D01*
X28515000Y-35620000D02*
X28515000Y-27880000D01*
X33715000Y-33020000D02*
X31115000Y-33020000D01*
X31115000Y-33020000D02*
X31115000Y-35620000D01*
X31115000Y-35620000D02*
X28515000Y-35620000D01*
X33715000Y-34290000D02*
X33715000Y-35620000D01*
X33715000Y-35620000D02*
X32385000Y-35620000D01*
X37203748Y-24036000D02*
X37726252Y-24036000D01*
X37203748Y-26256000D02*
X37726252Y-26256000D01*
X74511000Y-25563500D02*
X76796000Y-25563500D01*
X76796000Y-25563500D02*
X76796000Y-24093500D01*
X76796000Y-24093500D02*
X74511000Y-24093500D01*
X37911721Y-35562000D02*
X38237279Y-35562000D01*
X37911721Y-34542000D02*
X38237279Y-34542000D01*
X76583000Y-29656721D02*
X76583000Y-29982279D01*
X75563000Y-29656721D02*
X75563000Y-29982279D01*
X42509221Y-39622000D02*
X42834779Y-39622000D01*
X42509221Y-40642000D02*
X42834779Y-40642000D01*
D15*
X37165000Y-37158000D02*
X37765000Y-37158000D01*
X37765000Y-37158000D02*
X37765000Y-40058000D01*
X37765000Y-40058000D02*
X37165000Y-40058000D01*
X37165000Y-40058000D02*
X37165000Y-37158000D01*
X35615000Y-37008000D02*
X36815000Y-37008000D01*
D16*
X64500000Y-28118000D02*
X62500000Y-28118000D01*
X64500000Y-31318000D02*
X62500000Y-31318000D01*
X66500000Y-30718000D02*
X66500000Y-30718000D01*
X66600000Y-30718000D02*
X66600000Y-30718000D01*
X66600000Y-30718000D02*
G75*
G02X66500000Y-30718000I-50000J0D01*
G01*
X66500000Y-30718000D02*
G75*
G02X66600000Y-30718000I50000J0D01*
G01*
D14*
X56326721Y-26287000D02*
X56652279Y-26287000D01*
X56326721Y-27307000D02*
X56652279Y-27307000D01*
X44172000Y-25615000D02*
X44172000Y-23915000D01*
X44172000Y-23915000D02*
X41622000Y-23915000D01*
X44172000Y-25615000D02*
X41622000Y-25615000D01*
D15*
X49859000Y-32375000D02*
X51059000Y-32375000D01*
X51409000Y-35425000D02*
X51409000Y-32525000D01*
X52009000Y-35425000D02*
X51409000Y-35425000D01*
X52009000Y-32525000D02*
X52009000Y-35425000D01*
X51409000Y-32525000D02*
X52009000Y-32525000D01*
X37083000Y-27395000D02*
X37633000Y-27395000D01*
X37633000Y-27395000D02*
X37633000Y-30395000D01*
X37633000Y-30395000D02*
X37083000Y-30395000D01*
X37083000Y-30395000D02*
X37083000Y-27395000D01*
X35483000Y-27395000D02*
X36733000Y-27395000D01*
X56830000Y-30300000D02*
X57430000Y-30300000D01*
X57430000Y-30300000D02*
X57430000Y-33200000D01*
X57430000Y-33200000D02*
X56830000Y-33200000D01*
X56830000Y-33200000D02*
X56830000Y-30300000D01*
X55280000Y-30250000D02*
X56480000Y-30250000D01*
D12*
X30443714Y-24934333D02*
X30443714Y-25103666D01*
X30709809Y-25103666D02*
X30201809Y-25103666D01*
X30201809Y-24861761D01*
X30709809Y-24402142D02*
X30709809Y-24692428D01*
X30709809Y-24547285D02*
X30201809Y-24547285D01*
X30274380Y-24595666D01*
X30322761Y-24644047D01*
X30346952Y-24692428D01*
X45291928Y-32596666D02*
X45316119Y-32620857D01*
X45340309Y-32693428D01*
X45340309Y-32741809D01*
X45316119Y-32814380D01*
X45267738Y-32862761D01*
X45219357Y-32886952D01*
X45122595Y-32911142D01*
X45050023Y-32911142D01*
X44953261Y-32886952D01*
X44904880Y-32862761D01*
X44856500Y-32814380D01*
X44832309Y-32741809D01*
X44832309Y-32693428D01*
X44856500Y-32620857D01*
X44880690Y-32596666D01*
X45340309Y-32112857D02*
X45340309Y-32403142D01*
X45340309Y-32258000D02*
X44832309Y-32258000D01*
X44904880Y-32306380D01*
X44953261Y-32354761D01*
X44977452Y-32403142D01*
X36376428Y-32723666D02*
X36400619Y-32747857D01*
X36424809Y-32820428D01*
X36424809Y-32868809D01*
X36400619Y-32941380D01*
X36352238Y-32989761D01*
X36303857Y-33013952D01*
X36207095Y-33038142D01*
X36134523Y-33038142D01*
X36037761Y-33013952D01*
X35989380Y-32989761D01*
X35941000Y-32941380D01*
X35916809Y-32868809D01*
X35916809Y-32820428D01*
X35941000Y-32747857D01*
X35965190Y-32723666D01*
X35965190Y-32530142D02*
X35941000Y-32505952D01*
X35916809Y-32457571D01*
X35916809Y-32336619D01*
X35941000Y-32288238D01*
X35965190Y-32264047D01*
X36013571Y-32239857D01*
X36061952Y-32239857D01*
X36134523Y-32264047D01*
X36424809Y-32554333D01*
X36424809Y-32239857D01*
X54791428Y-24849666D02*
X54815619Y-24873857D01*
X54839809Y-24946428D01*
X54839809Y-24994809D01*
X54815619Y-25067380D01*
X54767238Y-25115761D01*
X54718857Y-25139952D01*
X54622095Y-25164142D01*
X54549523Y-25164142D01*
X54452761Y-25139952D01*
X54404380Y-25115761D01*
X54356000Y-25067380D01*
X54331809Y-24994809D01*
X54331809Y-24946428D01*
X54356000Y-24873857D01*
X54380190Y-24849666D01*
X54331809Y-24680333D02*
X54331809Y-24365857D01*
X54525333Y-24535190D01*
X54525333Y-24462619D01*
X54549523Y-24414238D01*
X54573714Y-24390047D01*
X54622095Y-24365857D01*
X54743047Y-24365857D01*
X54791428Y-24390047D01*
X54815619Y-24414238D01*
X54839809Y-24462619D01*
X54839809Y-24607761D01*
X54815619Y-24656142D01*
X54791428Y-24680333D01*
X40948428Y-32596666D02*
X40972619Y-32620857D01*
X40996809Y-32693428D01*
X40996809Y-32741809D01*
X40972619Y-32814380D01*
X40924238Y-32862761D01*
X40875857Y-32886952D01*
X40779095Y-32911142D01*
X40706523Y-32911142D01*
X40609761Y-32886952D01*
X40561380Y-32862761D01*
X40513000Y-32814380D01*
X40488809Y-32741809D01*
X40488809Y-32693428D01*
X40513000Y-32620857D01*
X40537190Y-32596666D01*
X40658142Y-32161238D02*
X40996809Y-32161238D01*
X40464619Y-32282190D02*
X40827476Y-32403142D01*
X40827476Y-32088666D01*
X54842428Y-35009666D02*
X54866619Y-35033857D01*
X54890809Y-35106428D01*
X54890809Y-35154809D01*
X54866619Y-35227380D01*
X54818238Y-35275761D01*
X54769857Y-35299952D01*
X54673095Y-35324142D01*
X54600523Y-35324142D01*
X54503761Y-35299952D01*
X54455380Y-35275761D01*
X54407000Y-35227380D01*
X54382809Y-35154809D01*
X54382809Y-35106428D01*
X54407000Y-35033857D01*
X54431190Y-35009666D01*
X54382809Y-34550047D02*
X54382809Y-34791952D01*
X54624714Y-34816142D01*
X54600523Y-34791952D01*
X54576333Y-34743571D01*
X54576333Y-34622619D01*
X54600523Y-34574238D01*
X54624714Y-34550047D01*
X54673095Y-34525857D01*
X54794047Y-34525857D01*
X54842428Y-34550047D01*
X54866619Y-34574238D01*
X54890809Y-34622619D01*
X54890809Y-34743571D01*
X54866619Y-34791952D01*
X54842428Y-34816142D01*
X40948428Y-35136666D02*
X40972619Y-35160857D01*
X40996809Y-35233428D01*
X40996809Y-35281809D01*
X40972619Y-35354380D01*
X40924238Y-35402761D01*
X40875857Y-35426952D01*
X40779095Y-35451142D01*
X40706523Y-35451142D01*
X40609761Y-35426952D01*
X40561380Y-35402761D01*
X40513000Y-35354380D01*
X40488809Y-35281809D01*
X40488809Y-35233428D01*
X40513000Y-35160857D01*
X40537190Y-35136666D01*
X40488809Y-34701238D02*
X40488809Y-34798000D01*
X40513000Y-34846380D01*
X40537190Y-34870571D01*
X40609761Y-34918952D01*
X40706523Y-34943142D01*
X40900047Y-34943142D01*
X40948428Y-34918952D01*
X40972619Y-34894761D01*
X40996809Y-34846380D01*
X40996809Y-34749619D01*
X40972619Y-34701238D01*
X40948428Y-34677047D01*
X40900047Y-34652857D01*
X40779095Y-34652857D01*
X40730714Y-34677047D01*
X40706523Y-34701238D01*
X40682333Y-34749619D01*
X40682333Y-34846380D01*
X40706523Y-34894761D01*
X40730714Y-34918952D01*
X40779095Y-34943142D01*
X47918309Y-24849666D02*
X47676404Y-25019000D01*
X47918309Y-25139952D02*
X47410309Y-25139952D01*
X47410309Y-24946428D01*
X47434500Y-24898047D01*
X47458690Y-24873857D01*
X47507071Y-24849666D01*
X47579642Y-24849666D01*
X47628023Y-24873857D01*
X47652214Y-24898047D01*
X47676404Y-24946428D01*
X47676404Y-25139952D01*
X47410309Y-24680333D02*
X47410309Y-24365857D01*
X47603833Y-24535190D01*
X47603833Y-24462619D01*
X47628023Y-24414238D01*
X47652214Y-24390047D01*
X47700595Y-24365857D01*
X47821547Y-24365857D01*
X47869928Y-24390047D01*
X47894119Y-24414238D01*
X47918309Y-24462619D01*
X47918309Y-24607761D01*
X47894119Y-24656142D01*
X47869928Y-24680333D01*
X41022309Y-29929666D02*
X40780404Y-30099000D01*
X41022309Y-30219952D02*
X40514309Y-30219952D01*
X40514309Y-30026428D01*
X40538500Y-29978047D01*
X40562690Y-29953857D01*
X40611071Y-29929666D01*
X40683642Y-29929666D01*
X40732023Y-29953857D01*
X40756214Y-29978047D01*
X40780404Y-30026428D01*
X40780404Y-30219952D01*
X40514309Y-29470047D02*
X40514309Y-29711952D01*
X40756214Y-29736142D01*
X40732023Y-29711952D01*
X40707833Y-29663571D01*
X40707833Y-29542619D01*
X40732023Y-29494238D01*
X40756214Y-29470047D01*
X40804595Y-29445857D01*
X40925547Y-29445857D01*
X40973928Y-29470047D01*
X40998119Y-29494238D01*
X41022309Y-29542619D01*
X41022309Y-29663571D01*
X40998119Y-29711952D01*
X40973928Y-29736142D01*
X40996809Y-27389666D02*
X40754904Y-27559000D01*
X40996809Y-27679952D02*
X40488809Y-27679952D01*
X40488809Y-27486428D01*
X40513000Y-27438047D01*
X40537190Y-27413857D01*
X40585571Y-27389666D01*
X40658142Y-27389666D01*
X40706523Y-27413857D01*
X40730714Y-27438047D01*
X40754904Y-27486428D01*
X40754904Y-27679952D01*
X40488809Y-26954238D02*
X40488809Y-27051000D01*
X40513000Y-27099380D01*
X40537190Y-27123571D01*
X40609761Y-27171952D01*
X40706523Y-27196142D01*
X40900047Y-27196142D01*
X40948428Y-27171952D01*
X40972619Y-27147761D01*
X40996809Y-27099380D01*
X40996809Y-27002619D01*
X40972619Y-26954238D01*
X40948428Y-26930047D01*
X40900047Y-26905857D01*
X40779095Y-26905857D01*
X40730714Y-26930047D01*
X40706523Y-26954238D01*
X40682333Y-27002619D01*
X40682333Y-27099380D01*
X40706523Y-27147761D01*
X40730714Y-27171952D01*
X40779095Y-27196142D01*
X45187809Y-28835047D02*
X45599047Y-28835047D01*
X45647428Y-28810857D01*
X45671619Y-28786666D01*
X45695809Y-28738285D01*
X45695809Y-28641523D01*
X45671619Y-28593142D01*
X45647428Y-28568952D01*
X45599047Y-28544761D01*
X45187809Y-28544761D01*
X45695809Y-28036761D02*
X45695809Y-28327047D01*
X45695809Y-28181904D02*
X45187809Y-28181904D01*
X45260380Y-28230285D01*
X45308761Y-28278666D01*
X45332952Y-28327047D01*
X40948428Y-37676666D02*
X40972619Y-37700857D01*
X40996809Y-37773428D01*
X40996809Y-37821809D01*
X40972619Y-37894380D01*
X40924238Y-37942761D01*
X40875857Y-37966952D01*
X40779095Y-37991142D01*
X40706523Y-37991142D01*
X40609761Y-37966952D01*
X40561380Y-37942761D01*
X40513000Y-37894380D01*
X40488809Y-37821809D01*
X40488809Y-37773428D01*
X40513000Y-37700857D01*
X40537190Y-37676666D01*
X40488809Y-37507333D02*
X40488809Y-37168666D01*
X40996809Y-37386380D01*
X54877809Y-28913666D02*
X54635904Y-29083000D01*
X54877809Y-29203952D02*
X54369809Y-29203952D01*
X54369809Y-29010428D01*
X54394000Y-28962047D01*
X54418190Y-28937857D01*
X54466571Y-28913666D01*
X54539142Y-28913666D01*
X54587523Y-28937857D01*
X54611714Y-28962047D01*
X54635904Y-29010428D01*
X54635904Y-29203952D01*
X54539142Y-28478238D02*
X54877809Y-28478238D01*
X54345619Y-28599190D02*
X54708476Y-28720142D01*
X54708476Y-28405666D01*
X65787309Y-24849666D02*
X65545404Y-25019000D01*
X65787309Y-25139952D02*
X65279309Y-25139952D01*
X65279309Y-24946428D01*
X65303500Y-24898047D01*
X65327690Y-24873857D01*
X65376071Y-24849666D01*
X65448642Y-24849666D01*
X65497023Y-24873857D01*
X65521214Y-24898047D01*
X65545404Y-24946428D01*
X65545404Y-25139952D01*
X65497023Y-24559380D02*
X65472833Y-24607761D01*
X65448642Y-24631952D01*
X65400261Y-24656142D01*
X65376071Y-24656142D01*
X65327690Y-24631952D01*
X65303500Y-24607761D01*
X65279309Y-24559380D01*
X65279309Y-24462619D01*
X65303500Y-24414238D01*
X65327690Y-24390047D01*
X65376071Y-24365857D01*
X65400261Y-24365857D01*
X65448642Y-24390047D01*
X65472833Y-24414238D01*
X65497023Y-24462619D01*
X65497023Y-24559380D01*
X65521214Y-24607761D01*
X65545404Y-24631952D01*
X65593785Y-24656142D01*
X65690547Y-24656142D01*
X65738928Y-24631952D01*
X65763119Y-24607761D01*
X65787309Y-24559380D01*
X65787309Y-24462619D01*
X65763119Y-24414238D01*
X65738928Y-24390047D01*
X65690547Y-24365857D01*
X65593785Y-24365857D01*
X65545404Y-24390047D01*
X65521214Y-24414238D01*
X65497023Y-24462619D01*
X61850309Y-24849666D02*
X61608404Y-25019000D01*
X61850309Y-25139952D02*
X61342309Y-25139952D01*
X61342309Y-24946428D01*
X61366500Y-24898047D01*
X61390690Y-24873857D01*
X61439071Y-24849666D01*
X61511642Y-24849666D01*
X61560023Y-24873857D01*
X61584214Y-24898047D01*
X61608404Y-24946428D01*
X61608404Y-25139952D01*
X61850309Y-24607761D02*
X61850309Y-24511000D01*
X61826119Y-24462619D01*
X61801928Y-24438428D01*
X61729357Y-24390047D01*
X61632595Y-24365857D01*
X61439071Y-24365857D01*
X61390690Y-24390047D01*
X61366500Y-24414238D01*
X61342309Y-24462619D01*
X61342309Y-24559380D01*
X61366500Y-24607761D01*
X61390690Y-24631952D01*
X61439071Y-24656142D01*
X61560023Y-24656142D01*
X61608404Y-24631952D01*
X61632595Y-24607761D01*
X61656785Y-24559380D01*
X61656785Y-24462619D01*
X61632595Y-24414238D01*
X61608404Y-24390047D01*
X61560023Y-24365857D01*
X35281809Y-25230666D02*
X35281809Y-25472571D01*
X34773809Y-25472571D01*
X35281809Y-24795238D02*
X35281809Y-25085523D01*
X35281809Y-24940380D02*
X34773809Y-24940380D01*
X34846380Y-24988761D01*
X34894761Y-25037142D01*
X34918952Y-25085523D01*
X36373809Y-35378571D02*
X36131904Y-35547904D01*
X36373809Y-35668857D02*
X35865809Y-35668857D01*
X35865809Y-35475333D01*
X35890000Y-35426952D01*
X35914190Y-35402761D01*
X35962571Y-35378571D01*
X36035142Y-35378571D01*
X36083523Y-35402761D01*
X36107714Y-35426952D01*
X36131904Y-35475333D01*
X36131904Y-35668857D01*
X36373809Y-34894761D02*
X36373809Y-35185047D01*
X36373809Y-35039904D02*
X35865809Y-35039904D01*
X35938380Y-35088285D01*
X35986761Y-35136666D01*
X36010952Y-35185047D01*
X35865809Y-34580285D02*
X35865809Y-34531904D01*
X35890000Y-34483523D01*
X35914190Y-34459333D01*
X35962571Y-34435142D01*
X36059333Y-34410952D01*
X36180285Y-34410952D01*
X36277047Y-34435142D01*
X36325428Y-34459333D01*
X36349619Y-34483523D01*
X36373809Y-34531904D01*
X36373809Y-34580285D01*
X36349619Y-34628666D01*
X36325428Y-34652857D01*
X36277047Y-34677047D01*
X36180285Y-34701238D01*
X36059333Y-34701238D01*
X35962571Y-34677047D01*
X35914190Y-34652857D01*
X35890000Y-34628666D01*
X35865809Y-34580285D01*
X75159809Y-30247571D02*
X74917904Y-30416904D01*
X75159809Y-30537857D02*
X74651809Y-30537857D01*
X74651809Y-30344333D01*
X74676000Y-30295952D01*
X74700190Y-30271761D01*
X74748571Y-30247571D01*
X74821142Y-30247571D01*
X74869523Y-30271761D01*
X74893714Y-30295952D01*
X74917904Y-30344333D01*
X74917904Y-30537857D01*
X75159809Y-29763761D02*
X75159809Y-30054047D01*
X75159809Y-29908904D02*
X74651809Y-29908904D01*
X74724380Y-29957285D01*
X74772761Y-30005666D01*
X74796952Y-30054047D01*
X75159809Y-29279952D02*
X75159809Y-29570238D01*
X75159809Y-29425095D02*
X74651809Y-29425095D01*
X74724380Y-29473476D01*
X74772761Y-29521857D01*
X74796952Y-29570238D01*
X40996809Y-40458571D02*
X40754904Y-40627904D01*
X40996809Y-40748857D02*
X40488809Y-40748857D01*
X40488809Y-40555333D01*
X40513000Y-40506952D01*
X40537190Y-40482761D01*
X40585571Y-40458571D01*
X40658142Y-40458571D01*
X40706523Y-40482761D01*
X40730714Y-40506952D01*
X40754904Y-40555333D01*
X40754904Y-40748857D01*
X40996809Y-39974761D02*
X40996809Y-40265047D01*
X40996809Y-40119904D02*
X40488809Y-40119904D01*
X40561380Y-40168285D01*
X40609761Y-40216666D01*
X40633952Y-40265047D01*
X40537190Y-39781238D02*
X40513000Y-39757047D01*
X40488809Y-39708666D01*
X40488809Y-39587714D01*
X40513000Y-39539333D01*
X40537190Y-39515142D01*
X40585571Y-39490952D01*
X40633952Y-39490952D01*
X40706523Y-39515142D01*
X40996809Y-39805428D01*
X40996809Y-39490952D01*
X35150619Y-39285333D02*
X35174809Y-39212761D01*
X35174809Y-39091809D01*
X35150619Y-39043428D01*
X35126428Y-39019238D01*
X35078047Y-38995047D01*
X35029666Y-38995047D01*
X34981285Y-39019238D01*
X34957095Y-39043428D01*
X34932904Y-39091809D01*
X34908714Y-39188571D01*
X34884523Y-39236952D01*
X34860333Y-39261142D01*
X34811952Y-39285333D01*
X34763571Y-39285333D01*
X34715190Y-39261142D01*
X34691000Y-39236952D01*
X34666809Y-39188571D01*
X34666809Y-39067619D01*
X34691000Y-38995047D01*
X34666809Y-38825714D02*
X35174809Y-38704761D01*
X34811952Y-38608000D01*
X35174809Y-38511238D01*
X34666809Y-38390285D01*
X34715190Y-38220952D02*
X34691000Y-38196761D01*
X34666809Y-38148380D01*
X34666809Y-38027428D01*
X34691000Y-37979047D01*
X34715190Y-37954857D01*
X34763571Y-37930666D01*
X34811952Y-37930666D01*
X34884523Y-37954857D01*
X35174809Y-38245142D01*
X35174809Y-37930666D01*
X54791428Y-26881666D02*
X54815619Y-26905857D01*
X54839809Y-26978428D01*
X54839809Y-27026809D01*
X54815619Y-27099380D01*
X54767238Y-27147761D01*
X54718857Y-27171952D01*
X54622095Y-27196142D01*
X54549523Y-27196142D01*
X54452761Y-27171952D01*
X54404380Y-27147761D01*
X54356000Y-27099380D01*
X54331809Y-27026809D01*
X54331809Y-26978428D01*
X54356000Y-26905857D01*
X54380190Y-26881666D01*
X54549523Y-26591380D02*
X54525333Y-26639761D01*
X54501142Y-26663952D01*
X54452761Y-26688142D01*
X54428571Y-26688142D01*
X54380190Y-26663952D01*
X54356000Y-26639761D01*
X54331809Y-26591380D01*
X54331809Y-26494619D01*
X54356000Y-26446238D01*
X54380190Y-26422047D01*
X54428571Y-26397857D01*
X54452761Y-26397857D01*
X54501142Y-26422047D01*
X54525333Y-26446238D01*
X54549523Y-26494619D01*
X54549523Y-26591380D01*
X54573714Y-26639761D01*
X54597904Y-26663952D01*
X54646285Y-26688142D01*
X54743047Y-26688142D01*
X54791428Y-26663952D01*
X54815619Y-26639761D01*
X54839809Y-26591380D01*
X54839809Y-26494619D01*
X54815619Y-26446238D01*
X54791428Y-26422047D01*
X54743047Y-26397857D01*
X54646285Y-26397857D01*
X54597904Y-26422047D01*
X54573714Y-26446238D01*
X54549523Y-26494619D01*
X40869809Y-25139952D02*
X40361809Y-25139952D01*
X40361809Y-25019000D01*
X40386000Y-24946428D01*
X40434380Y-24898047D01*
X40482761Y-24873857D01*
X40579523Y-24849666D01*
X40652095Y-24849666D01*
X40748857Y-24873857D01*
X40797238Y-24898047D01*
X40845619Y-24946428D01*
X40869809Y-25019000D01*
X40869809Y-25139952D01*
X40410190Y-24656142D02*
X40386000Y-24631952D01*
X40361809Y-24583571D01*
X40361809Y-24462619D01*
X40386000Y-24414238D01*
X40410190Y-24390047D01*
X40458571Y-24365857D01*
X40506952Y-24365857D01*
X40579523Y-24390047D01*
X40869809Y-24680333D01*
X40869809Y-24365857D01*
X49374619Y-34652333D02*
X49398809Y-34579761D01*
X49398809Y-34458809D01*
X49374619Y-34410428D01*
X49350428Y-34386238D01*
X49302047Y-34362047D01*
X49253666Y-34362047D01*
X49205285Y-34386238D01*
X49181095Y-34410428D01*
X49156904Y-34458809D01*
X49132714Y-34555571D01*
X49108523Y-34603952D01*
X49084333Y-34628142D01*
X49035952Y-34652333D01*
X48987571Y-34652333D01*
X48939190Y-34628142D01*
X48915000Y-34603952D01*
X48890809Y-34555571D01*
X48890809Y-34434619D01*
X48915000Y-34362047D01*
X48890809Y-34192714D02*
X49398809Y-34071761D01*
X49035952Y-33975000D01*
X49398809Y-33878238D01*
X48890809Y-33757285D01*
X49398809Y-33297666D02*
X49398809Y-33587952D01*
X49398809Y-33442809D02*
X48890809Y-33442809D01*
X48963380Y-33491190D01*
X49011761Y-33539571D01*
X49035952Y-33587952D01*
X34539809Y-29282047D02*
X34951047Y-29282047D01*
X34999428Y-29257857D01*
X35023619Y-29233666D01*
X35047809Y-29185285D01*
X35047809Y-29088523D01*
X35023619Y-29040142D01*
X34999428Y-29015952D01*
X34951047Y-28991761D01*
X34539809Y-28991761D01*
X34588190Y-28774047D02*
X34564000Y-28749857D01*
X34539809Y-28701476D01*
X34539809Y-28580523D01*
X34564000Y-28532142D01*
X34588190Y-28507952D01*
X34636571Y-28483761D01*
X34684952Y-28483761D01*
X34757523Y-28507952D01*
X35047809Y-28798238D01*
X35047809Y-28483761D01*
X54331809Y-32137047D02*
X54743047Y-32137047D01*
X54791428Y-32112857D01*
X54815619Y-32088666D01*
X54839809Y-32040285D01*
X54839809Y-31943523D01*
X54815619Y-31895142D01*
X54791428Y-31870952D01*
X54743047Y-31846761D01*
X54331809Y-31846761D01*
X54331809Y-31653238D02*
X54331809Y-31338761D01*
X54525333Y-31508095D01*
X54525333Y-31435523D01*
X54549523Y-31387142D01*
X54573714Y-31362952D01*
X54622095Y-31338761D01*
X54743047Y-31338761D01*
X54791428Y-31362952D01*
X54815619Y-31387142D01*
X54839809Y-31435523D01*
X54839809Y-31580666D01*
X54815619Y-31629047D01*
X54791428Y-31653238D01*
M02*
